<svg width="385" height="339" viewBox="0 0 385 339" fill="none" xmlns="http://www.w3.org/2000/svg">
<path d="M156.292 338.328C113.118 336.94 69.9583 327.924 53.7753 323.589C49.6136 322.531 47.7065 321.126 47.2731 320.556C46.6229 319.327 46.2328 316.871 49.874 316.871C57.8933 320.772 104.492 328.358 110.777 329.008C116.629 330.526 155.425 332.693 162.144 332.91C168.863 333.126 211.994 333.56 221.53 333.343C231.067 333.126 251.657 331.393 265.745 330.092C279.833 328.792 300.856 325.324 305.841 324.457C309.829 323.763 324.697 320.411 331.633 318.821C334.234 318.474 333.8 323.336 332.933 323.589C327.009 325.323 307.315 329.918 275.931 334.426C240.386 338.328 210.26 340.062 156.292 338.328Z" fill="#130F23"/>
<path d="M47.0578 317.955C-11.7214 300.443 0.748199 276.269 14.3304 266.372C17.1481 262.254 12.3798 257.919 7.39486 255.101C5.31418 250.766 35.5707 246.793 50.9591 245.348L82.1693 235.161L179.484 241.88C180.351 241.952 183.516 242.054 189.238 241.88C194.96 241.707 310.972 256.691 368.263 264.204C396.439 284.578 378.016 304.951 336.402 317.955C275.499 342.23 120.532 339.846 47.0578 317.955Z" fill="#6AD79B" stroke="#130F23" stroke-width="6"/>
<path d="M377.584 296.281C388.681 280.676 375.706 268.683 367.831 264.637C367.615 264.71 367.311 264.941 367.831 265.288C379.535 278.292 369.565 281.543 363.063 285.878C358.295 287.395 352.443 298.232 352.009 299.532C351.576 300.832 347.458 304.3 341.172 307.985C334.887 311.669 313.864 315.137 291.973 321.639C272.25 329.225 188.806 328.792 180.57 328.792C173.981 328.792 168.433 327.202 166.482 326.407L161.931 323.807L157.813 325.324C157.379 325.035 155.428 323.893 151.094 321.639C145.675 318.822 138.306 324.674 135.055 324.457C132.454 324.283 117.066 321.206 109.697 319.689C106.301 318.099 98.0363 314.704 92.141 313.837C87.6329 314.704 70.7563 310.73 62.8815 308.635C60.4251 307.19 54.7321 304.3 51.6111 304.3C42.9416 313.187 33.8386 307.768 32.9717 303.65C35.9193 304.17 39.9795 303.433 41.6412 303C42.0747 302.422 42.8983 300.963 42.7249 299.749C42.5081 298.232 39.4738 295.847 37.5232 294.764C35.9627 293.897 23.4352 290.212 17.3666 288.478L48.5768 286.094C49.4437 286.094 53.6485 285.444 63.5317 282.843C74.5853 279.375 95.1754 278.508 106.229 276.341C117.283 274.174 133.538 277.858 136.789 278.508C140.04 279.159 156.729 280.893 168.649 281.109C171.25 283.537 182.015 285.3 187.072 285.878H188.806L183.171 305.167C183.099 305.601 183.127 306.771 183.821 307.985C188.329 308.678 193.068 311.308 194.875 312.536L197.475 310.802C221.028 303.795 273.247 289.736 293.707 289.562C319.282 289.345 354.61 283.277 364.363 279.159C370.259 277.425 365.086 273.379 361.763 271.573L201.377 267.672L135.055 262.47L101.027 261.386C82.4601 263.698 44.4154 268.235 40.7742 267.888C33.4919 270.489 23.5797 265.793 19.534 263.12C19.0283 263.554 17.1499 264.941 13.6821 267.021C9.34732 269.622 -1.05608 282.41 5.22931 291.729C14.9391 307.161 37.3065 315.643 47.2764 317.955C48.0711 318.533 50.224 319.819 52.4781 320.339C65.2656 327.491 146.542 334.427 189.456 335.51C232.37 336.594 275.284 329.008 277.235 328.792C279.186 328.575 296.091 324.24 316.248 319.038C330.292 315.05 337.994 315.932 340.089 316.871C345.146 316.943 357.428 312.103 377.584 296.281Z" fill="#006C6C"/>
<path d="M15.4135 248.815C13.8529 249.162 7.97213 250.983 5.22679 251.85C4.79331 251.986 4.1431 254.234 7.82764 255.101C9.21476 254.234 18.809 253.15 23.4327 252.717C23.6495 252.644 24.1696 251.676 24.5164 248.382C30.8021 248.382 37.521 246.648 43.8061 246.648L49.658 245.564C50.1637 243.397 51.2618 238.065 51.6086 234.077C51.9554 227.488 54.4985 216.738 55.7266 212.187C56.5213 210.381 57.2438 206.465 53.776 205.251C46.3202 205.425 40.266 215.582 38.1709 220.64C37.3762 218.328 34.1396 212.49 27.5508 207.635C21.1353 202.607 18.809 206.407 18.4478 208.936C19.098 209.875 20.7452 213.531 22.1323 220.64C16.9306 215.871 7.17742 214.788 6.74395 219.773C9.77827 224.974 16.2804 247.082 15.4135 248.815Z" fill="#121327"/>
<path d="M10.6445 220.856C13.4188 225.018 17.7246 240.796 19.5308 248.165C20.181 246.648 27.5501 242.313 30.8011 241.88C26.2496 224.107 14.7625 219.339 10.6445 220.856Z" fill="#68D798"/>
<path d="M37.9528 228.659C33.4446 214.267 25.671 209.803 22.3477 209.369V210.019C24.4283 213.14 27.5494 227.214 28.8498 233.86L30.8004 241.88C31.6674 241.808 33.618 241.663 34.485 241.663C34.2682 241.23 32.7511 237.979 35.5686 238.412C36.2113 238.511 36.2189 238.845 37.3025 242.53C37.8227 243.05 40.1201 243.325 41.2038 243.397C41.4928 241.519 42.2875 237.372 43.1545 235.811C42.9811 236.331 42.9377 241.663 42.9377 244.264C43.299 244.192 44.4982 244.09 46.4055 244.264C46.6223 240.363 49.6566 217.172 52.6909 209.586C48.3562 209.152 43.1545 215.221 37.9528 228.659Z" fill="#68D798"/>
<path d="M30.3694 241.88C27.7686 240.839 20.4717 231.043 17.1484 226.275C17.5819 227.358 18.2321 229.742 20.833 233.86C22.9137 237.155 24.4453 242.024 24.951 244.047C25.6734 244.047 27.7686 243.614 30.3694 241.88Z" fill="#8BBF0C"/>
<path d="M22.3482 239.712C22.1749 239.192 18.8804 239.568 17.3633 239.712C17.7968 241.735 18.8371 246.084 19.5307 248.165C19.5307 247.645 22.565 245.853 23.8654 244.914C23.5042 243.469 22.5216 240.232 22.3482 239.712Z" fill="#8BBF0C"/>
<path d="M25.1668 244.264L23.6496 244.914C23.6496 243.614 22.3492 240.146 20.832 234.077C22.3925 235.811 24.3721 241.591 25.1668 244.264Z" fill="#10192B"/>
<path d="M33.8366 239.713C33.1517 234.919 31.3503 224.684 29.3922 220.235C29.2856 220.01 29.1776 219.783 29.0684 219.556C29.1767 219.764 29.2847 219.991 29.3922 220.235C33.515 228.945 35.6573 236.094 36.2207 238.629L40.9889 238.195C42.4338 232.127 45.8438 219.426 47.9245 217.172C43.8065 231.043 42.9396 234.944 43.373 236.245C44.7602 237.285 46.3351 237.69 47.0576 237.762C46.8408 239.929 46.7541 244.091 46.4074 244.264C46.0606 244.437 43.8788 244.336 42.9396 244.264V236.245L41.2057 243.397L39.255 243.18L37.3044 242.747L36.2207 239.279L33.8366 239.713Z" fill="#8BBF0C"/>
<path d="M353.742 298.232C351.315 290.256 349.841 294.186 349.408 297.148C349.191 297.365 348.757 297.798 347.891 297.148C347.674 296.715 347.457 296.498 347.457 293.247C347.891 290.213 350.058 289.996 350.708 289.996C351.358 289.996 353.309 290.863 353.526 293.03C353.526 293.464 353.959 293.897 354.393 293.464C355.043 291.08 356.993 287.828 362.845 288.045C367.527 288.739 367.686 293.102 367.18 295.198C366.747 295.559 365.836 296.195 365.663 295.848C365.88 295.198 365.663 292.597 363.062 291.08C359.161 288.479 355.693 297.148 355.476 297.582C355.26 298.015 354.393 299.099 353.742 298.232Z" fill="#0D1426"/>
<path d="M48.1423 297.365C49.8762 298.752 49.2983 302.278 48.7925 303.867H48.1423C47.7525 300.489 46.3497 300.304 45.0551 301.586C44.292 302.341 41.9168 302.241 41.3381 301.336C40.0907 299.387 38.5274 298.433 37.7385 298.015C33.6205 297.365 30.6772 299.966 32.3205 303C31.6703 302.133 30.3698 301.049 30.5866 298.015C34.0544 293.68 39.9063 295.198 42.9406 299.099C43.1574 298.015 45.3247 296.064 48.1423 297.365Z" fill="#0D1520"/>
<path d="M134.837 324.457C133.797 324.457 132.236 325.18 131.586 325.541V327.275H136.354C136.788 326.625 140.689 323.374 142.206 322.507C143.723 321.64 147.408 321.206 151.309 322.507C154.083 322.853 156.511 326.263 157.378 327.925L159.112 325.974C159.834 325.324 161.886 324.24 164.313 325.107C165.874 325.974 166.697 328.647 166.914 329.876H167.564V327.275C167.637 326.986 167.304 325.931 165.397 324.024C163.316 321.77 159.473 323.085 157.811 324.024C157.305 324.168 155.644 324.067 153.043 322.507C146.758 316.221 137.221 321.64 134.837 324.457Z" fill="#0E1026"/>
<path d="M24.9513 289.129C18.5359 289.649 13.1753 286.745 11.2969 285.228C12.1638 278.292 19.0994 273.524 29.5028 273.307C37.4788 273.654 43.663 279.376 45.7582 282.193C47.0586 283.783 49.226 287.265 47.4921 288.479C43.8075 287.829 33.8376 287.829 24.9513 289.129Z" fill="#190C23"/>
<path d="M27.3348 285.661C22.4799 286.181 17.7984 284.866 16.0645 284.144C17.3649 278.075 24.5172 276.125 29.9357 276.775C34.4871 277.425 40.7725 280.676 43.1567 285.011C40.9893 284.794 34.9206 284.577 27.3348 285.661Z" fill="#8BBF0C"/>
<path d="M34.4871 281.977C28.9386 280.069 19.7489 281.904 15.8477 283.06C15.8477 282.844 16.021 282.28 16.7146 281.76C21.5695 279.159 30.5858 280.243 34.4871 281.11C34.7038 281.254 35.0073 281.63 34.4871 281.977Z" fill="#0D0D29"/>
<path d="M73.9339 294.981C72.7202 297.235 66.2036 303 63.097 305.601C62.7502 307.508 66.1314 308.852 67.8653 309.285C69.8881 309.719 75.4511 310.326 81.5197 309.285C89.1055 307.985 91.9231 305.601 98.2085 302.567C100.636 300.486 103.988 300.255 105.361 300.399C106.156 300.471 107.745 300.399 107.745 299.532C107.311 296.715 106.878 291.513 96.4746 288.262C86.0712 286.311 79.1356 289.562 73.9339 294.981Z" fill="#190C23"/>
<path d="M91.7045 301.266C95.5191 298.665 99.7961 297.581 101.458 297.365V295.414C101.602 295.125 100.721 294.114 96.0393 292.38C89.5372 289.996 83.902 291.73 77.3999 296.715C75.666 298.969 70.6087 303.433 68.2969 305.384C70.6087 305.673 75.8827 306.208 78.4835 306.034C81.7346 305.817 86.9363 304.517 91.7045 301.266Z" fill="#8BBF0C"/>
<path d="M102.108 296.715C97.7853 296.256 88.5825 296.059 83.4122 298.48C82.9395 298.745 82.4538 299.024 81.9512 299.316C82.3888 299.008 82.8791 298.73 83.4122 298.48C89.2589 295.206 93.1329 294.027 102.758 295.631C102.931 296.325 102.397 296.643 102.108 296.715Z" fill="#0D1028"/>
<path d="M114.896 304.084C113.335 304.084 112.512 305.529 112.295 306.251C112.295 307.335 116.846 311.019 123.349 311.886C129.851 312.753 140.254 311.886 144.155 308.418C148.057 304.951 146.106 301.266 145.673 300.616C145.239 299.966 143.505 296.931 137.22 295.631C132.191 294.591 126.889 297.076 124.866 298.448C122.915 299.966 118.19 303.217 114.896 304.084Z" fill="#0C1128"/>
<path d="M134.186 298.665C138.694 298.145 141.988 301.049 143.072 302.566V303.867C141.511 309.069 128.695 308.78 122.482 307.985C121.182 307.696 118.711 306.944 119.231 306.251C120.098 304.734 128.551 299.315 134.186 298.665Z" fill="#8BBF0C"/>
<path d="M123.56 304.517C126.161 302.61 137.937 302.567 143.5 302.783C143.573 302.928 143.764 303.347 143.937 303.867C135.961 303 127.61 304.373 124.431 305.167C124.215 305.167 122.697 305.384 123.56 304.517Z" fill="#101425"/>
<path d="M148.708 286.528C148.188 286.528 146.902 284.505 146.324 283.494H152.61C154.416 282.771 159.285 281.5 164.313 282.193C172.289 284.101 178.907 289.49 181.219 291.947L185.12 297.148C184.976 298.376 184.383 301.786 183.17 305.601C162.58 309.936 152.826 303.65 148.275 295.848C146.974 292.814 146.324 288.912 148.708 286.528Z" fill="#0C1128"/>
<path d="M154.777 298.449C149.749 294.981 150.659 290.8 151.743 288.479C153.261 285.228 155.427 285.011 160.845 285.228C166.264 286.095 167.131 286.528 173.633 290.646C179.181 293.594 182.302 299.099 183.169 301.483C182.88 301.916 181.349 302.827 177.534 303C165.614 303.65 161.062 302.783 154.777 298.449Z" fill="#8BBF0C"/>
<path d="M176.019 296.498C161.801 289.909 153.767 287.973 151.528 287.829C151.383 287.612 151.267 287.092 151.961 286.745C156.513 287.395 171.684 293.03 176.019 296.498Z" fill="#130A29"/>
<path d="M182.086 319.039C184.34 318.172 193.284 313.331 197.474 311.019C200.003 311.886 206.751 314.704 213.513 319.039C209.005 325.454 195.596 323.879 189.455 322.29C187.649 322.29 183.646 321.639 182.086 319.039Z" fill="#100B2B"/>
<path d="M196.824 315.787C200.292 313.36 203.038 313.909 203.977 314.487C205.061 314.881 196.824 319.038 197.474 319.038C198.124 319.038 198.558 319.038 203.977 315.787C205.494 315.787 205.494 315.787 209.612 317.521C210.479 320.556 204.627 320.989 203.977 320.989C203.327 320.989 187.071 319.905 190.106 319.038C193.14 318.172 191.623 318.171 196.824 315.787Z" fill="#8BBF0C"/>
<path d="M237.356 318.388L246.242 316.221C250.431 315.137 259.764 313.013 263.579 313.187C268.347 313.403 272.465 315.571 272.032 318.388C270.644 320.122 262.062 321.423 257.944 321.856C257.077 322.001 253.524 322.203 246.242 321.856C238.96 321.509 237.283 319.4 237.356 318.388Z" fill="#100B2B"/>
<path d="M250.141 317.522C254.002 313.982 262.514 313.901 267.128 314.369C267.781 314.436 268.417 314.719 268.749 315.284C268.892 315.527 268.997 315.783 268.997 316.004C267.48 316.871 262.711 317.522 261.411 317.522H250.141Z" fill="#8BBF0C"/>
<path d="M283.952 304.084C291.755 303.043 298.763 308.852 301.291 311.886C301.291 313.187 301.291 313.837 299.341 313.62C297.39 313.403 287.637 314.487 286.553 314.487C285.469 314.487 278.1 312.97 275.716 311.886C273.809 311.019 273.332 309.791 273.332 309.285C274.127 308.13 277.363 305.471 283.952 304.084Z" fill="#110E26"/>
<path d="M281.135 309.286C283.519 310.369 289.111 312.016 292.405 309.936C289.154 307.118 285.903 307.335 281.135 309.286Z" fill="#8BBF0C"/>
<path d="M312.344 288.912C301.767 289.432 298.111 294.475 297.605 296.931C299.123 299.532 301.94 305.601 312.344 306.901C321.533 307.248 329.899 302.711 332.934 300.399C334.451 299.677 337.182 297.798 335.968 296.064C335.101 296.238 330.261 294.258 327.949 293.247C326.721 292.308 321.88 290.126 312.344 288.912Z" fill="#110E26"/>
<path d="M318.197 293.464C310.047 291.383 304.109 294.331 302.158 296.065C310.308 295.718 314.223 296.787 315.162 297.365C317.113 297.798 321.795 298.665 324.916 298.665C324.265 298.882 316.463 299.316 311.261 297.798C309.527 297.105 304.47 297.22 302.158 297.365C302.592 299.243 305.583 303.043 314.079 303.217C323.268 302.697 328.456 299.388 329.901 297.798C328.094 297.365 323.225 295.891 318.197 293.464Z" fill="#8BBF0C"/>
<path d="M113.163 256.835H109.695C109.912 257.918 110.692 259.956 112.079 259.436C112.773 258.222 114.68 258.93 115.547 259.436C114.753 258.93 113.64 257.702 115.547 256.835C117.931 255.751 117.931 259.436 119.449 259.436C122.483 256.618 123.35 258.352 123.783 259.436C124.217 260.519 124.65 260.086 125.517 259.436C125.517 257.702 122.483 255.101 119.449 255.968C117.498 254.017 113.813 253.8 113.163 256.835Z" fill="#0C1128"/>
<path d="M151.308 314.921C152.348 315.267 152.753 316.077 152.825 316.438C153.114 315.932 154.082 314.921 155.643 314.921C157.16 313.837 158.027 312.103 156.076 311.67C154.516 311.67 154.126 313.548 154.126 314.487C153.692 314.848 152.652 315.354 151.958 314.487C151.958 313.732 150.658 311.019 148.924 311.67C148.057 313.403 150.008 314.487 151.308 314.921Z" fill="#8BBF0C"/>
<path d="M50.7417 255.751C44.3262 260.259 45.0342 267.455 46.1902 270.489C50.959 275.258 52.475 275.258 57.8934 276.558C62.0548 277.772 76.2439 277.497 82.8182 277.208C95.9959 275.821 101.891 259.436 103.408 254.234C103.77 251.561 106.139 245.651 112.728 243.397C119.143 241.663 124.215 246.576 125.949 249.249C130.428 255.534 139.864 268.625 141.771 270.706C144.372 273.307 151.307 277.208 163.228 277.642C171.551 278.162 177.099 275.836 178.833 274.607C179.917 275.402 182.301 277.252 183.168 278.292V282.627C183.24 282.988 184.078 284.23 186.852 286.311C184.251 287.005 181.867 290.357 181 291.946V297.798L197.256 311.019L213.944 318.822C215.678 319.906 219.84 322.16 222.614 322.506C225.041 322.853 228.249 319.617 229.55 317.955C230.489 318.677 232.974 320.122 235.401 320.122C237.309 319.602 240.097 315.86 241.253 314.054C242.12 314.559 244.374 315.614 246.455 315.788C248.622 315.571 252.957 311.453 253.824 308.635C253.998 308.982 257.509 310.369 259.243 311.019C260.688 310.586 264.011 308.679 265.745 304.517C271.38 308.852 275.064 305.601 277.015 301.049C280.7 303 283.517 301.266 285.251 297.798C290.019 301.483 295.221 295.848 294.788 291.296C293.921 288.869 290.092 287.684 288.285 287.395C288.141 287.25 287.895 286.831 288.069 286.311C292.403 286.485 316.895 284.361 328.599 283.277C343.337 282.627 358.725 277.208 368.262 264.421C378.232 245.565 376.498 223.024 374.33 210.887C372.163 196.365 363.71 179.893 362.626 177.075C366.094 172.09 363.927 168.623 360.026 166.672C359.159 159.953 359.592 158.436 352.873 153.885C359.159 152.151 359.809 147.166 356.775 143.481C368.695 130.043 369.996 121.374 368.695 115.089C365.011 106.202 358.075 107.286 353.74 108.803C357.425 96.4491 355.691 87.3461 355.474 86.4791C355.257 85.6122 354.824 83.2281 353.307 84.3118C352.266 85.8723 342.325 91.6086 337.485 94.2817C337.774 91.3196 338.352 85.2654 338.352 84.7452C338.352 84.095 338.569 82.5779 336.618 82.3611C335.534 83.4448 327.948 85.8289 319.712 87.7796C319.712 86.9126 320.146 82.5779 319.929 78.0264C319.712 73.4749 316.028 66.5393 313.21 63.9384C311.26 62.4213 306.275 57.2196 304.974 54.1852C304.281 53.4917 303.674 53.7518 303.457 53.9685C302.879 54.691 301.116 57.1762 298.689 61.3376C295.221 66.8861 293.054 74.1973 292.403 77.1594C290.597 75.4978 286.595 71.871 285.034 70.6573C283.474 69.4436 281.928 70.1516 281.35 70.6573C280.338 72.319 277.969 76.3792 276.582 79.3268C273.547 72.3912 269.429 68.7067 265.961 65.4556C263.144 62.2045 250.14 57.2196 249.273 59.6037C250.14 62.2045 248.911 69.0679 248.189 72.1745C247.611 74.0529 246.455 80.1071 246.455 89.2967C242.626 87.3461 234.144 85.3955 230.85 93.198C226.862 103.948 231.934 121.952 234.968 129.61C233.234 130.405 230.286 133.251 232.367 138.279C222.397 142.397 219.796 153.668 228.683 160.603L228.269 161.017C214.744 174.54 200.844 188.438 191.404 218.689C185.508 243.484 192.415 259.508 196.605 264.421L193.788 265.071C192.704 264.059 188.499 260.389 180.35 253.801C180.003 243.744 177.027 232.705 175.582 228.442C176.955 228.298 180.61 226.405 184.251 219.989C187.546 213.574 186.925 204.89 186.202 201.35C185.407 198.677 182.171 192.767 175.582 190.513C176.232 175.125 175.148 162.771 165.179 146.949C201.59 133.078 206.575 102.301 206.575 93.198C207.226 92.3311 212.644 89.08 214.595 82.7946C216.112 82.3611 220.663 78.6766 223.914 68.7067C229.983 42.0046 216.907 24.6367 209.61 19.2905C211.055 19.146 214.291 18.8137 215.678 18.6403C212.731 8.58365 202.746 6.0695 198.123 6.0695C198.123 5.63601 197.949 4.63901 197.256 4.11886C184.685 -1.51632 171.03 6.50297 162.794 16.2562C134.185 4.11886 112.078 8.88706 91.271 18.6403C73.4985 -0.432655 55.726 0.00081942 51.3913 0.00081942C47.0565 0.00081942 45.5394 0.217557 45.9729 4.76905C27.1167 6.28621 21.048 14.5222 17.1468 21.8913C15.7596 24.6656 16.5688 26.0816 17.1468 26.4428C18.5917 25.5036 22.5653 23.4518 26.9 22.7583C8.86744 38.5368 7.97159 60.3984 9.77773 69.3568C10.6447 73.9083 13.4189 82.968 17.5803 82.7946C20.3979 90.5971 26.6833 97.316 31.4515 96.0156C32.5352 98.1829 39.9043 106.202 44.239 104.468C48.357 108.586 54.2089 112.054 60.9278 108.803C65.6093 122.154 75.7382 132.427 80.2174 135.895C75.3047 135.101 62.705 133.598 51.6081 133.945C47.2733 130.477 39.3985 131.777 36.003 132.861L26.0331 123.975C23.8658 122.313 18.621 119.987 14.9798 123.975C11.8588 128.136 12.9569 132.933 13.8961 134.812C14.9798 136.184 18.6209 140.013 24.5162 144.348C20.8316 158.436 24.5162 169.706 38.1706 173.824C44.9328 180.413 54.8594 176.57 58.9774 173.824C61.0003 175.63 65.783 179.806 68.7306 182.06C68.2971 184.806 67.5169 192.29 67.8637 200.266C53.7757 228.442 51.1751 241.013 50.7417 255.751Z" fill="#0D1426"/>
<path d="M198.124 213.704C188.414 241.447 197.402 259.075 203.109 264.421C211.259 273.437 219.798 274.68 223.048 274.174C229.478 272.296 244.592 267.715 253.608 264.421C263.492 259.566 270.153 263.843 272.248 266.588C274.126 269.478 278.577 276.211 281.351 280.026C285.686 281.24 307.576 279.954 317.98 279.159C318.774 278.003 322.271 273.61 329.9 265.288C329.727 268.582 326.071 275.474 324.265 278.509C327.733 278.509 356.776 277.858 365.445 258.352C379.316 234.511 367.179 200.7 365.012 194.198C363.278 188.996 359.81 182.349 358.293 179.676H356.342C355.995 179.503 351.574 174.402 349.407 171.874V169.706C348.178 168.623 345.158 166.109 342.904 164.721C342.904 166.022 353.958 184.228 357.209 190.73C359.29 194.545 357.787 197.666 356.776 198.749C354.969 200.411 350.664 202.651 347.889 198.316C344.075 185.832 336.619 174.619 333.368 170.573C332.573 171.585 329.813 173.824 325.132 174.691C326.216 176.642 327.299 178.809 327.733 186.829C326.866 183.144 324.698 180.543 321.664 175.775C310.394 175.948 306.276 173.824 305.626 172.741H302.374C297.389 175.775 285.035 176.859 282.868 176.209C274.892 174.995 270.442 170.646 269.214 168.623C268.347 168.55 265.486 168.276 260.978 167.756C254.259 167.322 250.791 169.49 243.422 174.258C247.757 169.056 253.753 165.733 256.209 164.721C255.27 163.999 253.132 162.294 252.091 161.254C247.106 164.071 238.654 164.721 234.102 162.988C225.866 169.056 208.961 183.144 198.124 213.704Z" fill="#1EB2D0"/>
<path d="M196.391 218.472C189.628 244.134 197.908 259.942 202.893 264.638C196.304 253.541 196.824 240.074 197.907 234.728C202.762 200.05 223.916 175.125 239.954 166.889L231.935 166.455C231.935 166.094 232.022 165.112 232.369 164.071C221.748 174.691 206.144 186.395 196.391 218.472Z" fill="#FFFBF3"/>
<path d="M234.752 141.964C236.312 140.404 237.569 140.88 238.003 141.314L243.204 143.048C241.976 143.626 239.476 145.822 239.303 149.983C239.996 147.729 244.504 145.287 246.672 144.348C247.322 144.204 249.836 144.348 254.691 146.082C253.824 148.163 253.896 150.995 254.041 152.151L258.809 146.949C266.828 148.611 286.508 152.367 301.073 154.101C302.113 155.835 303.529 159.592 304.107 161.254C304.324 160.026 304.974 156.876 305.841 154.101C308.615 154.968 319.134 155.041 324.047 154.968C326.359 157.786 330.853 164.071 330.333 166.672C325.348 174.908 309.959 171.657 301.723 168.189C298.039 169.923 287.635 171.657 282.867 170.79C277.882 169.706 272.68 167.322 268.562 164.288C267.045 164.071 257.509 162.771 251.657 158.436C240.907 161.21 234.751 159.014 233.018 157.569C231.284 156.63 227.903 153.885 228.249 150.417C229.116 146.082 230.85 144.348 234.752 141.964Z" fill="#1EB2D0"/>
<path d="M237.787 141.747C232.585 147.816 232.152 154.535 232.585 157.136C229.551 155.618 228.034 152.801 228.467 148.683C228.814 145.388 233.669 142.253 236.053 141.097C236.414 141.025 237.267 141.054 237.787 141.747Z" fill="#FFFFFD"/>
<path d="M348.973 160.387C346.589 159.52 344.422 156.919 343.988 156.485L345.505 154.535C345.867 155.185 347.456 156.269 348.54 158.003C348.757 157.569 348.323 156.269 350.924 157.569C355.692 160.82 355.909 163.421 355.475 166.022C354.681 164.866 351.357 163.204 348.973 160.387Z" fill="#1E5736"/>
<path d="M328.6 147.599C280.397 147.252 248.262 137.485 238.22 132.644C234.926 132.644 235.836 135.245 236.703 136.546C255.256 145.388 303.675 151.934 327.95 151.934C327.877 151.139 327.906 149.16 328.6 147.599Z" fill="white"/>
<path d="M343.988 151.067C343.815 149.16 343.627 147.816 343.555 147.382C345.216 147.382 349.233 147.166 352.007 146.299C354.175 145.648 354.825 147.382 354.392 149.116C353.741 149.983 351.791 151.067 343.988 151.067Z" fill="white"/>
<path d="M337.919 153.451C338.439 149.81 337.919 147.599 336.401 146.949C333.8 146.299 331.85 148.466 331.2 153.234C330.853 156.008 332.067 157.135 332.717 157.352C333.801 157.713 336.358 157.439 337.919 153.451Z" fill="white"/>
<path d="M337.269 155.618C340.044 153.191 339.292 149.116 338.57 147.382C339.09 146.515 340.376 147.021 340.954 147.382C341.315 147.816 341.951 149.68 341.604 153.668C340.737 156.269 338.209 157.352 337.053 157.569C337.053 157.352 337.096 156.659 337.269 155.618Z" fill="white"/>
<path d="M340.953 157.786C341.647 157.786 343.265 156.919 343.988 156.485C344.132 156.774 345.028 157.742 347.456 159.303C350.056 160.517 353.885 164.288 355.475 166.022L352.874 168.189C352.513 167.683 351.313 166.195 349.406 164.288C347.022 161.904 340.086 157.786 340.953 157.786Z" fill="white"/>
<path d="M356.125 168.839C354.391 169.36 354.391 171.657 354.608 172.741C354.701 174.041 356.775 176.425 358.509 175.992C360.243 175.558 361.11 172.741 360.893 171.44C360.677 170.14 358.293 168.189 356.125 168.839Z" fill="white"/>
<path d="M355.041 193.764C355.041 193.071 353.307 189.719 352.44 188.129C351.573 188.274 349.579 188.866 348.539 190.08C348.712 192.16 350.345 195.715 351.14 197.232H353.091C353.669 196.726 354.868 195.325 355.041 193.764Z" fill="#FCFFFD"/>
<path d="M333.152 162.988C332.806 162.467 333.008 161.47 333.152 161.037C333.875 160.82 335.536 160.517 336.403 161.037C336.924 161.557 345.145 175.703 349.191 182.711C349.697 183.578 350.665 185.355 350.491 185.528C350.318 185.702 348.541 186.901 347.674 187.479C346.084 184.661 342.602 178.463 341.388 176.209C339.871 173.391 333.586 163.638 333.152 162.988Z" fill="white"/>
<path d="M233.885 99.7001C234.752 119.987 239.737 128.526 242.121 130.26H242.988L240.387 108.803L241.471 103.385L250.14 120.507L265.528 119.207L290.453 127.659L314.728 120.94L341.603 131.127L356.775 126.142C355.475 128.96 352.007 136.285 348.539 143.048C358.942 139.233 363.711 125.998 364.794 119.857C364.794 117.039 363.277 112.271 356.341 112.271C359.376 114.222 360.026 114.872 360.243 117.473C360.416 119.207 359.159 119.785 358.509 119.857C355.402 120.29 348.756 121.807 347.022 124.408C341.647 126.489 337.124 122.674 335.535 120.507C333.945 118.484 328.816 114.308 321.013 113.788C313.211 113.268 305.48 116.606 302.591 118.34C300.423 119.568 294.441 121.201 287.852 117.906C281.957 112.704 274.993 110.393 272.247 109.887C266.525 109.367 259.604 111.548 256.859 112.704C255.992 112.921 255.689 113.615 252.741 113.788C249.49 112.488 248.623 106.202 247.756 101.651C246.716 99.9169 241.543 96.5936 239.086 95.1487L239.52 92.7645C238.292 92.5478 235.445 93.6315 233.885 99.7001Z" fill="white"/>
<path d="M238.221 101.651C238.047 103.732 240.749 121.735 242.122 130.477L245.156 131.561C244.145 125.853 243.422 113.355 242.122 107.069C245.243 110.951 247.613 125.737 248.407 132.644C249.708 133.15 252.959 134.248 255.56 134.595C255.386 130.607 256.354 126.142 256.86 124.408C256.86 123.975 257.033 123.281 257.727 123.975C257.077 125.925 258.811 135.028 259.678 135.462C264.359 137.889 289.371 141.242 301.291 142.614C302.953 137.846 307.923 128.05 314.512 127.009C310.394 128.96 306.276 139.58 305.409 142.614C305.929 143.308 312.417 143.337 315.596 143.264C317.402 143.553 321.014 144.045 321.014 143.698C321.014 143.264 324.916 138.713 327.95 137.196C326.563 138.063 323.904 142.181 322.748 144.131C325.349 144.276 331.158 144.392 333.585 143.698C335.969 142.398 337.92 142.831 338.57 143.264C339.09 143.611 339.798 143.409 340.087 143.264C342.255 139.652 348.02 131.777 353.742 129.177C351.314 131.431 346.517 139.797 344.422 143.698C345.506 143.626 347.803 143.438 348.323 143.264C348.843 143.091 351.285 139.724 352.441 138.063C354.97 134.162 359.94 125.882 359.594 123.975C358.943 123.541 351.574 125.925 351.141 126.359C350.707 126.792 348.54 128.743 344.855 129.177C342.038 128.743 338.353 128.093 331.634 122.024C330.767 120.941 325.566 117.906 318.63 117.689C314.122 118.036 307.504 120.435 304.759 121.591C295.222 125.405 288.504 123.469 286.336 122.024C285.361 121.374 281.135 117.256 274.632 115.089C263.796 111.621 259.461 116.389 257.293 117.473C255.126 118.556 249.491 120.724 247.974 115.089C247.974 109.714 244.939 104.902 243.422 103.168C242.266 101.94 239.608 99.917 238.221 101.651Z" fill="#1EB2D0"/>
<path d="M356.342 112.271C350.273 113.571 350.273 117.256 349.84 117.906C357.426 115.739 360.372 118.244 360.243 117.473C360.027 116.172 360.027 115.305 358.943 114.222C357.642 112.921 357.209 112.488 356.342 112.271Z" fill="#1E5736"/>
<path d="M239.521 92.7645L239.088 94.9319C240.822 94.9319 243.206 94.2817 247.324 97.0993C245.07 93.1113 241.4 92.5478 239.521 92.7645Z" fill="#1E5736"/>
<path d="M253.608 112.271C253.261 108.456 249.634 103.601 247.756 101.651C247.756 104.078 249.056 111.187 251.44 112.921C251.657 113.066 253.864 115.088 253.608 112.271Z" fill="#1E5736"/>
<path d="M282.001 51.151C289.63 56.1793 288.503 62.638 286.986 65.2389C278.837 66.1059 272.176 61.9878 269.864 59.8205C269.647 59.0257 268.217 56.6127 264.229 53.3183C262.668 51.411 262.567 50.0673 262.712 49.6338C265.674 48.6224 273.678 47.5098 282.001 51.151Z" fill="#0D1426"/>
<path d="M278.967 53.7519C283.822 54.7922 284.747 59.676 284.602 61.9879C278.967 61.9879 277.883 60.6874 275.499 59.387C274.199 58.9535 266.83 52.2347 268.563 52.018C270.297 51.8012 272.681 52.018 278.967 53.7519Z" fill="#8BBF0C"/>
<path d="M332.502 61.1209C331.288 69.0969 333.73 73.9807 335.103 75.4256C337.704 79.0668 343.122 79.5436 345.507 79.3268C347.818 78.8211 353.266 76.1625 356.56 69.5736C360.678 55.269 358.077 49.2004 352.442 39.8806C350.882 37.4532 349.914 38.1467 349.625 38.797C349.191 40.6753 347.457 45.039 343.989 47.4665C340.666 49.5616 333.716 55.2257 332.502 61.1209Z" fill="#0D1426"/>
<path d="M355.042 59.6038C355.042 71.5677 346.372 75.1367 342.037 75.4257C343.121 72.3913 343.771 71.3076 345.071 69.5737C346.32 67.9089 349.766 61.049 350.231 51.6799C349.827 55.555 347.006 61.1768 345.505 63.7218C343.337 66.5394 341.604 68.7501 339.87 74.1252C339.22 74.1252 335.752 70.4407 335.969 65.4557C336.619 60.6875 337.052 57.003 344.205 52.4515C349.927 48.8103 351.068 45.7326 350.924 44.6489C352.152 45.5881 354.695 49.894 355.042 59.6038Z" fill="#8BBF0C"/>
<path d="M250.359 83.8783C251.226 77.8097 252.599 68.0565 253.177 63.9385C261.5 63.9385 269.071 73.6194 271.816 78.4599C273.767 83.2281 273.55 86.0457 270.516 91.6809C268.608 97.2294 269.287 103.24 269.865 105.552C268.565 105.552 265.14 105.812 261.846 106.853C262.485 84.4964 261.241 78.0365 257.293 69.3913C257.76 70.8244 258.473 75.1635 259.028 79.9771C259.375 83.4449 259.173 100.061 259.028 107.936H258.162C257.511 106.853 255.908 104.252 254.694 102.518C253.177 100.35 249.276 92.5478 250.359 83.8783Z" fill="#8BBF0C"/>
<path d="M276.149 87.1294C273.028 93.3714 273.548 102.301 274.198 105.986C275.86 106.275 279.834 107.286 282.435 109.02C284.602 102.951 284.602 90.8139 284.169 79.3268C287.203 90.5972 286.553 102.518 284.602 111.187C284.949 112.228 286.625 112.488 287.42 112.488C289.009 112.271 292.838 110.364 295.439 104.468C298.04 97.0993 295.222 87.1294 291.538 82.3611C288.503 79.3268 283.518 73.0414 283.518 74.3419C283.518 75.6423 280.917 79.3268 276.149 87.1294Z" fill="#8BBF0C"/>
<path d="M296.523 81.4943C299.817 88.7767 300.93 95.0765 301.074 97.3162C301.508 97.0994 302.679 96.3625 303.892 95.1488C304.109 92.9814 305.193 76.2926 304.976 65.239C307.23 69.9205 307.071 86.1181 306.71 93.6316L316.03 89.0801C316.102 88.2132 316.29 85.4823 316.463 81.4943C317.33 75.0789 312.923 68.8513 310.611 66.5394C309.383 65.817 306.449 63.3751 304.542 59.3871C303.242 60.9042 295.439 70.8742 296.523 81.4943Z" fill="#8BBF0C"/>
<path d="M314.512 93.8484C302.548 98.7033 295.078 110.32 292.838 115.522H297.606C298.907 115.522 301.507 112.271 307.359 107.936C309.527 106.636 322.964 98.3999 331.417 92.3312C328.816 96.1458 319.063 103.168 314.512 106.202C313.283 106.78 309.267 109.107 303.025 113.788C305.192 113.138 315.162 109.02 324.265 110.32C330.984 104.252 332.934 99.0501 334.668 87.563C334.235 88.2132 330.55 89.7304 314.512 93.8484Z" fill="#8BBF0C"/>
<path d="M352.442 89.947C352.095 107.98 345.072 117.978 341.605 120.724L337.92 117.039C338.932 115.594 341.171 112.011 342.038 109.237C343.122 105.769 347.24 100.35 349.407 94.4985C345.246 98.1397 339.004 110.32 336.403 115.956C335.825 115.378 334.019 113.745 331.418 111.838C333.325 101.434 341.316 95.51 345.072 93.8483C345.867 93.7038 348.454 92.7213 352.442 89.947Z" fill="#8BBF0C"/>
<path d="M184.471 274.391C183.084 273.177 156.151 249.755 142.857 238.196C143.131 233.004 146.673 234.006 150.877 233.861L190.54 267.455C189.312 268.467 186.378 271.27 184.471 274.391Z" fill="#D09C80"/>
<path d="M183.82 265.721C183.126 265.548 177.318 259.58 174.5 256.618C174.5 256.474 174.587 256.185 174.933 256.185C175.584 256.618 183.82 264.854 183.82 265.721Z" fill="#FCFFFF"/>
<path d="M186.639 281.326L191.84 283.711C190.106 273.307 198.92 271.718 203.544 272.223C203.327 271.212 202.114 268.929 198.993 267.889C189.283 268.409 186.711 277.064 186.639 281.326Z" fill="#FFFFFE"/>
<path d="M202.242 281.76C200.855 280.199 196.824 278.87 195.09 278.509C194.873 276.558 199.641 273.957 200.941 273.957C202.242 273.957 208.527 276.125 211.562 278.726C213.122 280.113 215.969 280.026 217.197 279.809C229.045 276.052 254.086 268.105 259.461 266.372C262.408 264.464 265.746 266.299 267.047 267.455C241.905 275.691 194.006 290.863 187.07 292.597C184.816 291.556 188.009 289.562 189.888 288.696C191.968 288.175 198.124 285.878 200.941 284.578C201.953 284.289 203.629 283.32 202.242 281.76Z" fill="#FFFFFE"/>
<path d="M189.457 300.616C183.562 297.495 184.978 293.103 186.423 291.296C186.423 291.947 186.639 292.38 190.107 294.981C197.693 297.148 204.628 302.783 205.929 305.168C211.304 312.103 221.173 316.149 225.435 317.305C224.713 317.594 223.051 318.345 222.184 319.039C220.667 317.955 215.682 315.354 208.963 312.97C204.975 311.236 200.799 308.635 199.21 307.552C198.054 306.685 194.485 304.084 189.457 300.616Z" fill="#89B8CF"/>
<path d="M211.78 310.586C210.046 309.936 203.978 303.506 200.51 300.183C203.544 299.749 207.012 301.917 212.214 307.985C215.031 311.886 223.701 314.054 225.218 314.704C226.432 315.224 226.735 315.643 226.735 315.788C226.374 316.293 225.565 317.305 225.218 317.305C224.784 317.305 213.297 312.97 211.78 310.586Z" fill="#FFFEFF"/>
<path d="M219.799 306.901C216.158 302.393 210.046 299.099 207.445 298.015C207.792 296.455 211.347 296.932 213.08 297.365C213.875 297.437 216.548 298.839 220.883 303.867C224.351 308.202 233.598 311.308 237.789 312.32C237.789 312.392 237.528 312.84 236.488 314.054C235.795 313.707 232.298 312.32 230.636 311.67C228.469 311.164 223.267 309.502 219.799 306.901Z" fill="#FAFCFF"/>
<path d="M227.386 301.7C223.744 298.058 220.378 295.848 219.15 295.198C218.803 293.984 221.028 293.969 222.184 294.114C222.834 294.186 224.958 295.154 228.253 298.449C231.287 301.916 234.104 303.434 241.04 305.384C246.589 307.118 249.132 307.985 249.71 308.202C249.204 308.924 248.149 310.282 247.976 309.936C247.759 309.502 240.173 306.685 238.873 306.468C237.572 306.251 230.637 304.517 227.386 301.7Z" fill="#FDFFFF"/>
<path d="M240.389 301.049L228.252 291.513C228.541 291.296 229.509 290.819 231.07 290.646C236.488 293.03 241.906 299.966 242.773 301.049C243.64 302.133 244.291 303 243.207 302.35C242.34 301.83 240.967 301.266 240.389 301.049Z" fill="#FDFFFF"/>
<path d="M248.19 296.932C246.283 294.504 239.304 289.851 236.053 287.829C236.4 286.788 239.521 287.395 241.038 287.829C242.266 288.19 245.546 290.039 248.84 294.547C251.614 297.668 259.244 301.194 262.711 302.567C262.567 303.145 262.105 304.301 261.411 304.301C260.544 304.301 250.791 299.966 248.19 296.932Z" fill="#FDFFFF"/>
<path d="M255.562 293.464C251.747 287.742 247.47 286.022 245.809 285.878C246.025 285.444 246.806 284.491 248.193 284.144C254.261 286.528 257.946 292.38 260.113 294.114C261.847 295.501 269.794 298.159 273.551 299.315C273.262 300.038 272.641 301.439 272.467 301.266C272.294 301.093 265.604 298.304 262.281 296.931C261.269 296.859 258.509 296.064 255.562 293.464Z" fill="#FDFFFF"/>
<path d="M255.562 282.844C253.828 281.11 257.007 281.11 258.813 281.326C261.414 283.133 267.222 287.438 269.65 290.213C271.384 291.296 282.22 294.981 282.654 294.981C283.087 294.981 282.22 295.848 281.57 296.498C278.102 296.065 269.65 293.247 265.748 290.213C262.281 285.358 259.969 284 259.246 283.927C258.741 284.289 257.296 284.578 255.562 282.844Z" fill="#FDFFFF"/>
<path d="M274.849 286.745C270.515 282.583 265.674 280.098 263.796 279.376C263.449 278.162 265.241 277.714 266.18 277.642C268.853 279.448 275.326 283.971 279.834 287.612C281.785 288.912 290.671 291.947 290.671 292.163C290.671 292.337 289.66 293.536 289.154 294.114C286.409 292.958 279.704 289.866 274.849 286.745Z" fill="#FDFFFF"/>
<path d="M189.673 294.764L187.072 292.597C212.431 284.65 263.927 268.496 267.048 267.455C267.569 267.629 268.999 269.117 269.649 269.839L189.673 294.764Z" fill="#89B8CF"/>
<path d="M195.086 278.292C200.075 279.159 202.026 281.326 202.459 281.977C199.511 281.803 195.379 282.482 194.007 282.843C193.791 281.326 194.652 279.376 195.086 278.292Z" fill="#89B8CF"/>
<path d="M188.589 274.174C189.109 276.428 191.118 277.714 192.057 278.075C191.364 279.462 191.624 282.41 191.84 283.711L186.639 281.326C186.639 279.954 187.029 276.602 188.589 274.174Z" fill="#89B8CF"/>
<path d="M269.648 270.056L191.189 294.331C190.495 294.545 189.455 295.07 189.238 294.981C192.489 297.076 199.642 300.486 200.509 299.966C201.376 299.446 202.748 300.182 203.326 300.616C202.893 300.182 201.159 298.839 197.691 296.931C199.858 296.064 263.796 274.824 268.131 273.524C270.211 273.004 270.009 274.174 269.648 274.824L277.234 281.543L269.648 270.056Z" fill="#89B8CF" stroke="#1EB2D0"/>
<path d="M113.164 214.788L52.477 163.421C52.0431 159.303 53.7775 157.569 57.8955 157.135C74.8732 171.007 110.215 200.526 116.631 206.768C114.723 209.369 113.38 213.126 113.164 214.788Z" fill="#D09C80"/>
<path d="M113.814 207.419C112.947 207.072 106.372 201.206 103.194 198.316C103.02 197.969 103.41 197.882 103.627 197.882L114.681 206.552C114.753 206.985 114.681 207.766 113.814 207.419Z" fill="#FEFEFE"/>
<path d="M87.5875 185.095C85.6802 183.187 76.2449 175.486 71.7656 171.874C71.8379 171.729 72.0257 171.44 72.1991 171.44C73.2394 172.307 83.1805 180.326 88.0209 184.228C88.0932 184.517 88.1076 185.095 87.5875 185.095Z" fill="#FEFEFE"/>
<g filter="url(#filter0_i_250_75)">
<path d="M69.8146 170.573C69.2944 170.4 65.1186 166.889 63.0957 165.155C63.0957 164.115 67.8639 167.9 70.248 169.923C70.3203 170.212 70.3347 170.747 69.8146 170.573Z" fill="#D9D9D9"/>
</g>
<path d="M58.9785 159.953C61.2904 161.543 66.1309 164.938 66.9978 165.805C66.3476 164.288 61.5794 160.82 58.9785 159.953Z" fill="#D5BAAB"/>
<path d="M17.3656 132.211L26.902 140.447L31.8872 134.378L22.7842 126.792C21.7004 125.925 19.0995 124.712 17.3656 126.792C15.6317 128.873 16.6431 131.272 17.3656 132.211Z" fill="#D09C80"/>
<path d="M26.6857 134.161C26.5123 133.988 23.1457 131.055 21.484 129.61C21.4118 129.393 21.4407 129.003 22.1342 129.176C22.8278 129.35 26.0355 132.572 27.5527 134.161C27.3359 134.234 26.8591 134.335 26.6857 134.161Z" fill="#FEFDFF"/>
<path d="M55.2932 253.585C53.9061 245.089 64.3962 218.546 69.8146 206.337C74.496 230.264 96.4734 238.269 106.877 239.281C107.166 239.209 107.787 239.324 107.961 240.364C103.799 240.538 100.881 246.65 99.9413 249.684C99.6523 250.479 98.3375 254.062 95.3898 262.038C91.7486 271.228 81.0129 273.092 76.1002 272.875L58.3277 272.442C57.4608 272.369 55.6401 272.008 55.2932 271.141C54.8595 265.506 59.6281 262.255 62.8792 261.171C55.25 260.478 53.0538 267.24 52.9093 270.708C52.3313 270.997 50.8719 270.534 49.6582 266.373C49.6582 261.171 53.993 258.137 58.3277 256.403C59.0213 255.883 58.4722 254.741 58.111 254.236C57.6774 254.163 56.5069 253.932 55.2932 253.585Z" fill="white"/>
<path d="M57.8935 254.453C55.6394 245.263 66.6353 224.182 72.4149 214.79C78.0507 228.661 91.2705 236.247 104.708 239.064C99.5065 240.625 96.1832 248.962 95.1718 252.935C94.8828 253.875 93.5679 257.227 90.6203 263.122C88.3662 269.364 81.734 271.792 78.6997 272.225C78.6997 272.225 59.4105 273.959 55.9427 271.792C55.4585 271.686 55.3155 271.279 55.2926 271.141C55.2925 270.708 55.0758 268.757 55.7257 267.674C56.5929 267.89 74.3653 264.856 77.183 260.088L58.9768 255.753C58.6157 255.608 57.8935 255.146 57.8935 254.453Z" fill="#D5CDD4"/>
<path d="M91.0554 246.433C79.1349 256.186 61.3624 251.418 58.1113 246.433C61.1457 235.596 66.5641 225.626 71.3323 215.44C72.1993 216.653 78.0178 226.927 81.519 231.478C83.6864 234.296 89.3215 241.231 91.0554 246.433Z" fill="#D5CDD4"/>
<path d="M62.8789 261.171L70.0312 258.354L77.1836 260.088C77.2558 260.593 76.36 262.428 72.1986 265.723C67.8639 268.757 64.3961 268.757 55.7266 267.673C56.8103 264.206 59.8446 262.255 62.8789 261.171Z" fill="white"/>
<path d="M121.18 234.946C77.1388 237.027 70.5353 203.086 73.2806 185.747L112.294 218.908C112.294 222.809 113.594 230.178 121.18 234.946Z" fill="white"/>
<path d="M116.197 234.73L72.8496 194.85V185.747C84.2645 195.356 108.134 215.44 112.296 218.908C111.646 221.725 115.113 231.478 120.749 234.73H116.197Z" fill="#D5CDD4"/>
<path d="M127.03 239.281C125.643 238.414 124.285 239.498 123.779 240.148C134.833 250.335 134.833 254.67 143.719 264.856C151.738 272.875 158.024 272.875 170.595 272.875C170.378 272.298 169.944 270.491 169.511 268.107C169.511 266.807 171.823 270.853 172.329 272.009C173.629 272.009 173.846 272.009 174.496 271.358C173.456 268.584 151.955 250.696 141.335 242.099C140.468 242.171 137.997 242.402 135.05 242.749C132.882 242.532 128.764 240.365 127.03 239.281Z" fill="#D5CDD4"/>
<path d="M172.327 246.867C171.46 238.197 168.209 228.227 165.825 220.858C162.791 227.144 155.638 231.695 154.555 232.129C158.456 235.597 165.392 241.015 172.327 246.867Z" fill="#D5CDD4"/>
<path d="M174.929 249.468C175.449 241.145 170.161 224.76 167.343 218.041C167.127 218.546 166.476 219.775 165.826 220.858C166.043 221.725 171.245 237.33 172.328 246.867C173.369 247.734 174.496 248.962 174.929 249.468Z" fill="white"/>
<path d="M119.231 203.953C118.537 203.433 91.4885 180.762 78.0508 169.491C78.0508 163.856 80.6516 144.567 88.0207 140.882C97.037 147.471 115.041 151.141 122.915 152.152C137.87 152.586 145.239 153.67 159.544 148.468C167.347 156.791 170.598 172.454 171.248 179.245C171.392 185.097 170.338 200.095 164.963 213.272C161.061 224.976 148.057 231.262 145.239 230.395C143.506 229.701 142.494 230.684 142.205 231.262C140.905 233.429 137.957 237.764 136.57 237.764C134.836 237.764 130.285 237.114 125.95 233.429C122.482 229.744 120.531 222.809 122.265 214.356C121.615 214.356 117.497 220.858 120.531 229.528C123.566 238.197 114.246 224.109 116.847 214.356C119.621 206.207 127.684 202.436 131.368 201.569C132.38 201.207 135.009 199.748 137.437 196.8C145.456 183.363 149.141 178.811 152.609 176.21C148.967 176.557 145.312 179.823 143.939 181.412C143.867 177.438 143.766 169.318 143.939 168.625C144.156 167.758 140.038 163.423 140.038 171.009C139.604 183.579 136.136 192.899 131.368 196.8C128.984 197.667 125.083 198.534 119.231 203.953Z" fill="white"/>
<path d="M83.4712 157.137C81.7372 149.682 85.6385 143.338 87.8059 141.099C112.08 153.67 136.138 154.97 159.112 148.685C159.185 149.335 159.459 150.982 159.979 152.369C160.629 154.103 165.398 162.773 167.348 179.028C171.327 212.187 153.044 228.661 146.108 230.178C143.724 229.311 142.64 230.25 141.99 231.262L139.606 235.38C139.1 236.319 137.352 238.067 134.404 237.547C118.366 234.079 121.617 218.257 122.267 214.356C117.282 220.208 122.484 230.395 120.966 232.345C116.415 226.493 115.765 217.824 116.848 214.356H122.267C123.062 212.839 124.564 209.371 127.685 207.637C128.769 206.77 135.705 202.002 139.606 199.618C147.842 192.249 152.393 181.629 153.911 176.21C150.096 176.21 146.758 179.895 143.941 181.412L143.724 169.491C143.652 168.625 143.507 167.107 142.423 166.891C141.913 166.789 141.195 167.035 140.906 167.324L141.123 162.122C140.184 162.773 138.045 164.55 137.005 166.457C137.005 165.937 135.849 161.039 135.271 158.655C115.678 161.602 98.8592 155.837 92.3571 150.635C91.9236 150.997 90.8833 152.369 90.1897 154.97C89.4961 154.45 87.2999 151.141 86.2884 149.552C85.7106 150.13 84.3381 152.456 83.4712 157.137Z" fill="#D5CDD4"/>
<path d="M137.005 166.457C135.271 159.955 133.97 156.054 132.887 153.019V152.369C142.857 152.369 154.344 149.768 159.112 148.685C159.329 149.985 159.545 150.635 159.762 151.936C157.812 154.32 146.324 163.206 140.689 167.541C140.863 166.327 140.906 163.64 140.906 162.339C140.473 162.773 138.955 163.423 137.005 166.457Z" fill="#D5CDD4"/>
<path d="M126.167 230.828C122.482 225.843 122.916 220.208 123.35 216.524C125.951 219.341 130.718 223.026 133.319 223.676C135.4 222.116 135.92 223.026 135.92 223.676H139.171C139.677 223.315 140.949 222.506 141.989 222.159C153.042 217.174 164.963 203.953 167.564 187.047C168.951 210.802 157.305 224.254 151.309 228.011C148.058 230.395 146.324 230.395 143.939 229.745C140.038 232.346 140.688 234.585 138.088 236.897C136.137 238.631 132.163 237.33 131.369 236.68C129.852 235.597 127.251 232.779 126.167 230.828Z" fill="#D5CDD4"/>
<path d="M97.1182 145.434C96.0778 145.087 90.7648 142.255 88.0195 140.882C83.0346 145.65 82.168 154.103 83.4645 157.137C83.5367 157.571 83.9012 154.537 84.3347 153.67C84.9849 151.502 85.4184 150.635 86.2853 149.552C86.7911 150.419 88.236 152.803 90.1866 154.97C90.8368 152.152 93.6544 148.251 97.1182 145.434Z" fill="#D5CDD4"/>
<path d="M174.501 224.326C188.589 213.489 181.436 196.584 175.151 194.199C174.717 199.618 171.466 209.371 169.949 213.489C170.469 214.356 173.2 221.075 174.501 224.326Z" fill="white"/>
<path d="M174.284 224.326C185.554 210.802 179.486 200.702 174.284 198.968C174.139 200.34 173.07 205.166 169.949 213.489C172.03 217.651 173.706 222.448 174.284 224.326Z" fill="#D5CDD4"/>
<path d="M173.418 202.869L174.285 198.968C175.152 198.968 178.186 200.268 179.27 203.519C179.27 205.08 177.825 208.36 177.103 209.805C176.886 209.877 176.279 209.978 175.585 209.805C175.932 205.99 174.285 203.592 173.418 202.869Z" fill="#E8CEC5"/>
<path d="M68.5131 160.605C70.7672 151.762 65.0453 142.397 59.4102 138.715C65.9123 137.846 79.4367 140.058 82.3843 140.232C76.4891 146.821 74.2928 159.883 73.9316 165.59C72.4867 164.434 69.3801 161.819 68.5131 160.605Z" fill="#FEFDFF"/>
<path d="M68.7321 144.567C67.1716 143.18 62.4467 140.521 60.2793 139.365C61.363 140.81 64.2239 144.653 66.9982 148.468C69.0788 151.762 68.7321 158.221 68.2986 161.039C69.1655 161.761 71.463 163.64 73.717 165.373C74.0638 157.398 78.0518 148.034 80.0024 144.35C77.4016 144.422 71.5063 144.567 68.7321 144.567Z" fill="#D5CDD4"/>
<path d="M64.83 158.221L57.6777 152.153C55.9437 153.236 49.8752 156.271 48.1413 162.989C47.7946 166.804 48.5748 168.191 49.0082 168.408C49.1527 167.902 49.6585 166.674 50.5254 165.807C51.3924 166.024 51.6091 169.275 51.3924 170.358C51.1756 171.442 47.9246 173.393 43.1563 171.876C37.0877 169.058 37.0877 161.472 36.8709 154.32C35.5705 155.837 34.0534 159.955 36.004 169.708C34.0534 168.841 29.285 164.507 27.7679 158.221C26.4675 151.069 27.1177 145 32.3194 139.365C36.4807 134.857 44.8902 135.897 48.5747 136.981C53.9931 139.148 57.0275 141.966 60.9287 146.084C64.9167 148.858 65.1912 155.331 64.83 158.221Z" fill="#FEFEFC"/>
<path d="M35.3552 167.107C28.0728 161.732 28.1306 153.164 29.0698 149.552C39.69 149.552 61.2339 149.162 62.4476 147.601C64.3982 149.335 65.2652 154.753 64.8317 158.221C63.6758 157.354 60.8004 155.013 57.6794 152.586C50.7438 155.404 47.0592 162.989 48.7931 167.758C48.7931 167.758 51.6107 162.122 51.394 170.142C46.1923 170.575 42.0743 169.058 40.1236 167.758C38.173 166.457 37.306 163.206 36.8726 154.753C36.4391 154.753 34.0547 158.221 35.3552 167.107Z" fill="#D5CDD4"/>
<path d="M48.5747 138.932C35.2237 136.157 30.0076 145 29.0684 149.768C30.5855 151.213 34.0967 154.363 36.004 155.404C37.3044 153.67 36.8709 155.404 37.0876 155.837C37.3044 156.271 45.5404 159.738 47.4911 159.088C51.3056 153.713 55.5826 151.502 57.2442 151.069C57.3887 151.213 58.1112 151.849 59.8451 153.236C61.1455 152.369 62.4459 150.419 62.4459 147.601C60.3653 146.907 57.6055 145.217 57.2442 144.783C56.9553 143.844 54.8168 141.359 48.5747 138.932Z" fill="#D5CDD4"/>
<path d="M110.344 144.567C82.2547 139.018 69.1638 116.969 66.1294 106.638C69.1639 106.638 75.2323 101.001 75.2323 97.9664C74.1486 98.8333 71.9813 100.35 62.0113 102.951C54.0354 103.645 50.3075 101.94 49.4406 101.001C50.5242 102.157 53.1251 104.902 54.859 106.638C46.5363 103.345 40.9878 96.4505 39.2539 93.4149C39.0372 93.9206 39.0372 96.1458 40.7711 101.001C36.653 99.917 29.284 89.9471 27.7668 78.46C27.0732 83.8351 27.4778 89.2246 27.7668 91.2475C19.5308 78.8935 16.3185 64.3721 20.3977 49.4172C18.8805 51.8013 16.4965 58.7369 15.1961 74.342C8.47725 44.8657 24.7326 29.0438 37.9536 18.8572C36.0029 18.207 28.4171 18.207 21.915 20.1576C28.157 12.7018 37.0865 10.8379 42.0715 9.97093C50.741 8.88724 57.1132 10.4911 60.9277 10.8379C54.8591 6.32974 48.5737 5.05821 46.1896 4.98597C46.1896 4.62475 46.2329 3.85896 46.4063 3.68557C77.6165 3.03536 94.5221 29.0439 96.256 32.0782C96.6894 31.6447 97.1229 27.5267 94.5221 22.9752C103.365 17.4267 116.268 14.5959 121.614 13.8741C151.524 12.1383 174.715 20.3744 193.138 54.8375C211.517 92.1163 197.183 117.764 187.719 125.927C169.73 145.217 142.421 152.803 110.344 144.567Z" fill="#FEFDFF"/>
<path d="M58.7603 30.1274C76.0993 34.2888 77.5442 49.7783 76.0993 57.0029C76.0993 50.0673 70.6086 43.1317 67.8633 40.5309C58.977 33.1618 54.6423 32.5116 39.2539 34.6789C42.0715 32.945 44.8891 29.2605 58.7603 30.1274Z" fill="#121126"/>
<path d="M96.0431 82.7343C95.3922 67.9707 102.292 66.275 106.052 66C111.391 66 114.06 68.6346 115.395 79.1732C116.462 87.6041 109.611 90.59 106.052 91.0291C104.372 91.2662 100.164 91.4072 97.6781 88.4216C96.3883 86.8723 96.1319 84.7482 96.0431 82.7343Z" fill="#03162D"/>
<path d="M166.444 119.224C149.655 144.819 120.496 130.139 116.328 117.634C116.81 115.916 118.69 113.326 122.349 116.706C137.389 137.944 154.132 126.599 160.97 120.067C164.689 115.112 166.169 117.44 166.444 119.224Z" fill="#04152B"/>
<path d="M168.384 80.2306C167.569 76.1838 168.163 72.5203 169.129 69.7298C170.264 66.4543 173.13 63.5399 176.551 64.1002C177.934 64.3267 178.928 64.8752 179.15 65.0958C179.526 65.469 181.479 66.4681 182.364 73.0781C182.761 76.0405 182.658 79.1082 181.617 81.9099C179.814 86.7612 176.998 87.9168 175.562 87.798C173.917 88.0947 170.178 86.9967 168.384 80.2306Z" fill="#04152B"/>
<ellipse cx="102.757" cy="74.7754" rx="2.81759" ry="2.60085" fill="white"/>
<ellipse cx="174.497" cy="78.2432" rx="2.16738" ry="2.60085" fill="white"/>
<path d="M125.521 96.7038C125.281 77.8579 131.36 67.6738 134.797 64.7617C137.614 62.8321 144.848 60.1308 151.252 64.7617C159.257 70.5502 161.926 82.5727 161.926 98.6026C161.425 103.117 159.728 106.631 157.747 109.227C154.331 113.704 148.349 114.655 142.717 114.655C140.817 114.655 139.386 114.65 139.245 114.632C138.339 114.632 133.541 113.197 129.856 109.907C126.261 106.698 125.582 101.522 125.521 96.7038Z" fill="#04152B"/>
<path d="M155.172 86.369C152.717 72.9367 143.337 68.4004 138.953 67.8112C150.789 61.1837 159.556 81.9505 157.802 95.6479C156.546 105.464 152.25 110.082 149.474 111.113C148.451 111.26 146.58 111.289 147.282 110.229C157.364 106.694 156.049 95.6479 155.172 86.369Z" fill="white"/>
<path d="M131 93.4149C130.704 97.2732 131.621 105.969 137.652 109.887C133.217 108.997 129.67 104.99 131 93.4149Z" fill="#FFFFFD"/>
<path d="M45.6477 28.9733C81.21 19.7806 81.1284 40.1906 76.6423 51.5447C72.836 57.9742 64.4892 72.2284 61.5529 77.8097C59.269 67.3037 65.4952 58.3846 68.8937 55.2383C67.5343 54.0071 64.4892 51.2985 63.1842 50.3136C61.5529 49.0825 56.659 50.3136 51.3572 56.4695C52.9885 47.9333 59.3778 42.5162 62.3685 40.8746C60.0575 40.3274 53.8858 39.3972 47.6868 40.0539C41.4879 40.7105 33.413 45.7993 30.1504 48.2617C31.102 46.7569 34.3918 43.0087 39.9382 40.0539C37.6544 39.7255 35.724 39.3699 35.0443 39.2331C35.1802 38.6859 37.4912 35.8678 45.6477 28.9733Z" fill="#D5CDD4"/>
<path d="M68.5919 68.033C67.9324 70.3201 65.2943 75.7927 64.0577 78.2432L64.8821 72.1171C64.6073 72.5256 63.6455 74.1592 61.9967 77.4265C61.9967 71.8721 66.3935 60.4094 68.5919 55.3724C66.3935 56.7338 60.925 60.6817 56.6381 65.5826C57.0503 58.6397 61.9967 51.6966 66.1187 48.4294C62.1616 47.4493 55.4015 51.5606 52.5161 53.7388C53.2031 51.016 56.061 44.6721 61.9967 41.0781C54.0825 39.4444 47.1575 43.3924 44.6843 45.5706C45.7835 42.8479 50.0429 36.4222 58.2869 32.5015C48.0644 30.5411 36.7151 36.8578 32.3184 40.2612C34.5168 35.6326 42.7882 26.6203 58.2869 27.6005C77.6602 31.6846 78.4846 42.7116 76.8358 51.6966C76.0114 53.3303 69.4163 65.1741 68.5919 68.033Z" fill="#07142B"/>
<path d="M27.7662 78.46C30.367 87.1295 36.6543 92.4757 39.2552 94.4985C39.2552 95.221 39.732 98.2264 40.7723 101.001C35.3539 99.4835 27.5491 85.829 27.7662 78.46Z" fill="#D5CDD4"/>
<path d="M221.096 60.254C220.403 64.0686 217.484 68.779 216.111 70.6574V76.7261C217.628 74.9922 220.229 69.5737 221.096 60.254Z" fill="#B1C0D2"/>
<path d="M39.2539 93.4149C42.3749 97.2295 47.4899 99.917 49.6573 101.001C50.5243 102.214 53.5586 105.408 54.859 106.636C52.3304 105.913 42.7217 101.001 39.2539 93.4149Z" fill="#D5CDD4"/>
<path d="M20.1825 50.0674C19.8358 65.8459 25.0248 78.5322 27.5535 82.7948C27.5535 83.6617 27.076 86.7394 27.7698 91.2475C18.0154 80.8441 16.9316 59.6038 20.1825 50.0674Z" fill="#D5CDD4"/>
<path d="M186.201 127.659C110.343 170.79 77.1825 103.601 73.4979 101.651C72.8477 102.229 70.0301 105.986 65.9121 106.636C75.4486 131.561 92.1374 143.698 127.899 148.249C146.322 151.284 175.581 140.23 186.201 127.659Z" fill="#D5CDD4"/>
<path d="M216.112 67.8396C213.684 75.989 208.887 85.2509 206.792 88.8632C205.491 61.5542 191.404 40.9642 187.502 37.7131C186.852 37.2797 186.635 35.9792 186.852 35.1123C190.537 28.8269 194.221 26.6595 203.107 26.0093C192.487 19.9407 187.502 26.8763 184.251 33.3784C181.65 31.211 176.882 24.4921 167.129 18.857C174.065 7.41325 188.514 5.99718 194.871 6.7196C193.571 7.00859 190.146 8.41018 186.852 11.7046C197.255 9.32048 204.841 10.1875 211.343 16.0394C207.529 14.8256 203.252 17.412 201.59 18.857C205.419 20.1574 214.291 26.7029 219.146 42.4813C224.001 58.9534 219.146 72.1744 216.112 76.7259C216.256 75.8589 216.458 72.868 216.112 67.8396Z" fill="#FEFDFF"/>
<path d="M203.375 26.2165C190.277 23.5857 187.068 31.7432 186.851 36.3418C186.826 36.8623 190.536 40.9643 192.269 43.3484C195.087 42.048 200.072 48.1166 205.707 52.0179C203.973 43.3484 200.506 39.2304 195.087 36.8463C201.806 36.8463 207.658 44.8656 210.475 47.2497C207.875 35.3291 199.205 32.0243 199.205 30.9944C199.205 28.3935 199.989 27.4321 203.375 26.2165Z" fill="#D5CDD4"/>
<path d="M216.11 67.8397C214.203 72.0011 208.38 77.8096 205.924 80.4105C206.141 81.2775 206.43 86.6236 206.791 88.8633C208.38 86.4792 212.989 78.9367 216.11 67.8397Z" fill="#D5CDD4"/>
<defs>
<filter id="filter0_i_250_75" x="63.0957" y="164.977" width="8.18945" height="5.62976" filterUnits="userSpaceOnUse" color-interpolation-filters="sRGB">
<feFlood flood-opacity="0" result="BackgroundImageFix"/>
<feBlend mode="normal" in="SourceGraphic" in2="BackgroundImageFix" result="shape"/>
<feColorMatrix in="SourceAlpha" type="matrix" values="0 0 0 0 0 0 0 0 0 0 0 0 0 0 0 0 0 0 127 0" result="hardAlpha"/>
<feOffset dx="1"/>
<feGaussianBlur stdDeviation="1.7"/>
<feComposite in2="hardAlpha" operator="arithmetic" k2="-1" k3="1"/>
<feColorMatrix type="matrix" values="0 0 0 0 0.815686 0 0 0 0 0.611765 0 0 0 0 0.501961 0 0 0 1 0"/>
<feBlend mode="normal" in2="shape" result="effect1_innerShadow_250_75"/>
</filter>
</defs>
</svg>
