<svg width="338" height="347" viewBox="0 0 338 347" fill="none" xmlns="http://www.w3.org/2000/svg">
<path fill-rule="evenodd" clip-rule="evenodd" d="M36.1675 298.465H32.4146C29.5999 294.399 22.9385 286.081 18.8103 285.33C15.5265 284.392 15.0574 288.145 15.0574 289.083C15.4326 292.085 18.6539 299.091 20.2176 302.218H17.4029C16.4647 301.749 14.3068 300.342 13.1809 298.465C10.1786 296.213 8.17702 296.276 7.55154 296.589C7.23879 296.901 6.80095 297.715 7.55154 298.465C8.02526 299.097 8.76471 299.888 9.51943 300.695L9.51963 300.695C11.007 302.287 12.5536 303.941 12.2424 304.564C11.1165 304.939 9.27132 305.971 8.48947 306.44C7.55124 305.502 5.29949 303.532 3.79833 303.156C2.29717 302.781 1.92188 303.938 1.92188 304.564C2.07825 305.189 2.95393 306.909 5.20567 308.786C1.92188 312.069 2.8601 313.946 3.79833 315.822C4.73656 317.699 9.89681 320.513 18.3409 322.859C26.7849 325.205 82.6095 338.34 171.272 340.216C172.398 339.841 172.367 339.434 172.21 339.278H212.085C213.805 339.591 219.403 340.216 228.035 340.216L228.401 340.216L228.825 340.217C240.896 340.228 285.343 340.269 328.894 322.39C342.313 314.786 336.54 311.02 333.534 309.06C333.387 308.964 333.247 308.873 333.116 308.786C334.993 306.159 336.4 304.876 336.869 304.564C336.713 303 334.617 300.623 327.487 303.625C328.988 300.248 330.927 298.778 331.709 298.465C331.865 297.84 331.521 296.682 328.894 297.058C325.141 300.06 322.952 302.687 322.327 303.625L321.388 302.687C324.359 298.622 328.8 287.3 322.796 274.54C314.821 260.936 305.439 257.183 285.267 264.689C283.765 262.812 281.826 261.405 281.045 260.936L281.514 243.579C280.732 240.921 277.573 235.229 271.193 233.727C267.065 229.224 258.527 226.222 254.774 225.283C246.799 214.494 230.943 192.727 231.319 191.976C238.764 180.589 234.76 173.699 233.814 172.072C233.773 172.001 233.738 171.94 233.709 171.889C233.691 171.857 233.676 171.828 233.664 171.804C233.195 170.866 225.22 162.891 213.023 157.731C199.888 153.04 192.851 159.607 190.506 161.953C181.874 156.324 175.338 155.542 173.148 155.854L172.679 152.571C185.033 148.974 210.396 133.619 213.023 100.968C219.778 100.593 223.656 94.557 224.751 91.5859C228.191 92.055 235.071 89.428 235.071 75.1669C239.293 74.6978 243.515 69.0685 240.232 52.6495C246.303 47.4458 243.956 39.0355 243.196 36.311C243.133 36.0881 243.082 35.9033 243.046 35.7614C242.577 33.8849 233.195 16.9968 224.282 11.3675C209.107 1.25108 200.371 0.982125 190.928 0.691376C189.861 0.658545 188.786 0.625435 187.691 0.577837C171.741 1.98518 162.359 12.7748 161.89 16.0586C150.005 12.6184 120.983 8.74042 99.9667 20.7497C94.8064 9.02189 63.3758 -16.7794 21.6247 16.0586C-1.36192 41.8599 1.92188 61.5627 10.835 62.5009C10.835 73.4469 13.3683 94.4945 23.5011 91.1169C25.8467 98.1536 32.8834 102.376 35.6981 100.968C41.7965 111.758 48.3641 111.758 51.6479 108.943C56.902 113.071 63.5322 113.165 66.1905 112.696C68.536 119.42 76.4171 134.651 89.177 141.781C83.8693 151.807 77.2641 171.656 72.7402 185.251C70.067 193.284 68.1205 199.134 67.5978 199.482C60.092 199.013 34.7598 211.679 59.6229 233.727C61.9684 245.455 60.092 250.146 50.2406 256.245C39.9201 263.282 35.229 275.009 48.8333 294.712C46.5815 295.088 43.8294 294.869 42.7348 294.712C41.7966 295.65 39.1698 297.714 36.1675 298.465ZM170.334 217.309C178.778 229.975 195.666 255.401 195.666 255.776C188.911 257.277 185.345 259.529 184.407 260.467C181.592 259.372 174.931 257.371 170.803 258.121C170.334 249.208 166.112 237.011 164.704 235.135C167.988 226.222 170.334 217.778 170.334 217.309ZM182.527 193.853C182.152 194.603 180.181 196.042 179.243 196.667L201.292 230.444C202.855 229.193 206.827 226.691 210.205 226.691C212.081 221.812 224.434 221.218 230.377 221.53C224.278 213.086 211.706 195.635 210.205 193.384C204.575 191.507 201.917 187.285 201.292 185.409C200.041 185.565 196.788 185.69 193.786 184.94C190.971 190.569 186.28 193.853 182.527 193.853ZM113.103 269.849C115.605 269.693 120.89 269.192 122.016 268.442C122.391 272.195 122.173 274.071 122.016 274.54C120.609 276.729 117.982 282.609 118.732 288.614C111.227 287.488 103.408 288.145 100.437 288.614C98.0914 287.363 93.7756 285.799 95.2767 289.552C91.8991 288.801 88.8666 289.239 87.7725 289.552L85.896 286.737C91.994 285.643 105.973 280.733 113.103 269.849Z" fill="#07152E"/>
<path d="M32.8907 298.465C33.266 298.09 34.9236 297.996 35.7054 297.996C36.6443 298.152 38.9913 298.559 40.8678 298.934C40.4925 305.69 41.6496 313.008 42.2751 315.822C42.4315 316.135 43.0257 316.667 44.1515 316.292C46.4971 313.477 45.0898 305.033 44.1515 299.873C49.0303 300.248 57.7558 303.782 61.5088 305.502C60.4142 304.72 57.4744 302.406 54.472 299.403C61.0396 303.625 72.2984 303.156 75.5822 303.156C77.0833 302.03 83.4007 303.625 86.3718 304.564L82.6189 300.811L90.1247 305.033C88.7174 303.938 85.8089 301.374 85.4336 299.873C87.31 300.998 95.5977 303.782 99.507 305.033C97.3178 303.625 92.3764 299.966 90.1247 296.589C99.1317 302.969 106.7 306.753 109.358 307.848C107.169 305.502 102.134 299.873 99.507 296.12C103.635 299.497 111.86 304.095 115.457 305.971C112.799 303.782 107.482 299.028 107.482 297.527C110.86 301.28 119.522 305.658 123.432 307.378C121.086 305.346 115.644 300.342 112.642 296.589C114.894 298.465 127.028 303.938 132.814 306.44C130.312 305.033 124.933 301.28 123.432 297.527C127.56 300.905 136.723 303.938 140.789 305.033C138.131 303.469 132.533 299.497 131.407 296.12C133.715 298.428 139.658 301.191 145.659 304.408C143.466 303.151 140.899 299.962 139.851 298.465C142.353 300.029 148.482 303.438 152.986 304.564C149.233 303.063 147.982 301.124 147.826 300.342C151.266 302.687 160.679 307.848 170.812 309.724C190.366 311.586 190.052 313.911 192.339 314.404C191.648 314.168 187.231 310.179 187.231 309.724C187.231 309.255 194.268 313.946 195.206 313.946C194.737 313.946 189.108 309.255 188.169 307.848C187.419 306.722 189.108 307.378 190.046 307.848C193.486 310.662 202.243 316.761 209.749 318.637C221.477 327.081 226.637 326.612 231.797 326.612C235.925 326.612 245.714 322.859 250.092 320.983C249.623 321.921 247.372 324.454 242.118 327.081C251.5 323.328 253.376 323.328 253.845 323.328C254.315 323.328 251.5 324.266 246.809 327.55C248.31 327.926 258.38 321.765 263.228 318.637C259.788 321.295 253.095 326.612 253.845 326.612C254.784 326.612 265.573 320.044 266.042 319.575C266.511 319.106 270.264 317.699 270.264 318.168C269.795 319.575 259.944 325.205 258.067 328.019C259.944 327.644 270.108 321.295 274.956 318.168C276.519 317.23 280.022 315.447 281.523 315.822C280.585 316.292 268.857 326.612 269.326 328.019C270.264 327.55 281.054 321.452 285.745 317.699C288.091 315.353 296.066 312.07 297.004 311.6C297.942 311.131 299.349 310.662 299.349 311.6C298.88 312.07 289.967 319.575 286.214 326.612C293.72 325.674 300.757 315.353 301.695 314.415C302.633 313.477 302.164 313.946 303.102 313.477C312.86 313.477 319.365 306.284 321.398 302.687C321.711 302.844 322.524 303.156 323.274 303.156C322.899 305.783 315.299 313.008 311.546 316.292C311.546 316.448 311.64 316.761 312.016 316.761C313.423 316.292 319.521 311.6 322.336 308.786C322.336 309.912 318.896 313.633 317.176 315.353L317.645 315.822C321.085 312.695 328.716 306.44 331.718 306.44C330.968 307.566 324.525 315.041 321.398 318.637C322.805 318.012 326.652 316.573 330.78 315.822C314.361 326.612 273.079 332.711 270.264 333.18C264.635 334.587 214.44 338.34 213.033 338.34C211.907 338.34 211.625 339.278 211.625 339.747L171.75 339.278C172.063 339.278 172.501 339.184 171.75 338.809C170.812 338.809 115.457 333.649 109.827 333.18C104.198 332.711 95.285 332.711 50.7191 325.205C6.15333 317.699 8.96759 313.477 8.02936 313.008C7.27878 312.632 8.02936 312.539 8.49847 312.539L13.6587 314.884C14.4406 315.353 16.0043 316.01 16.0043 314.884C15.629 313.383 10.844 308.629 8.49847 306.44C9.28033 305.971 11.0317 304.845 11.7823 304.095C11.7823 304.564 23.9792 316.761 24.9175 316.292C24.5422 314.415 19.1317 307.066 16.4734 303.625C17.4116 303.313 19.4757 302.5 20.2263 301.749C22.4781 307.754 28.9831 314.259 31.9542 316.761C32.2664 316.604 32.7972 316.104 32.4233 315.353C31.9542 314.884 23.5084 300.811 20.6937 292.836C20.3185 291.335 20.5374 290.959 20.6937 290.959C22.2575 292.523 25.9478 296.776 28.1996 301.28C30.076 305.033 35.2363 313.164 37.5818 316.761C38.051 317.073 39.083 317.511 39.4583 316.761C38.5201 309.724 32.4216 298.934 32.8907 298.465Z" fill="#6AD79B"/>
<ellipse cx="23.5275" cy="341.036" rx="2.72446" ry="1.85311" transform="rotate(20.6753 23.5275 341.036)" fill="#071A33"/>
<path d="M314.834 331.303C290.44 341.436 243.998 344.595 223.826 344.908C228.048 348.66 265.108 346.315 267.454 345.846C269.799 345.377 277.305 343.969 285.749 342.562C294.193 341.155 309.674 335.525 312.958 333.649C316.242 331.772 316.711 331.303 314.834 331.303Z" fill="#07172F"/>
<path d="M35.2372 339.747C33.736 339.372 30.546 338.965 29.1387 338.809C38.9901 347.253 67.606 347.253 68.5442 346.315C61.5075 345.846 37.1136 340.216 35.2372 339.747Z" fill="#04172E"/>
<path d="M67.6063 335.994C59.7252 334.868 33.361 329.896 21.1641 327.55C50.2491 345.846 146.417 345.846 147.825 345.377C149.232 344.908 149.232 344.908 148.763 344.438C98.5678 341.624 77.4577 337.402 67.6063 335.994Z" fill="#03162D"/>
<path d="M204.588 302.687C204.588 303.438 205.214 305.815 205.527 306.909C202.868 305.815 196.801 303.344 193.799 302.218C194.549 301.467 195.05 299.403 195.206 298.465C197.083 299.247 201.586 301.186 204.588 302.687Z" fill="#1EB2D0"/>
<path d="M70.8826 296.589C74.6355 291.71 69.3189 289.552 66.1915 289.083V288.145C72.9468 287.394 76.512 292.523 77.4501 295.181C77.9192 295.807 79.4204 296.87 81.6722 296.12C84.4868 294.243 83.0795 289.083 78.8575 287.207C75.1046 285.799 69.0061 286.268 67.1296 285.799C65.2532 285.33 62.4385 282.515 61.5003 282.046C60.562 281.577 60.0929 280.639 61.0311 280.639C63.3767 281.577 76.5119 281.577 83.0795 281.108C88.7089 281.108 100.906 276.417 108.412 267.035C118.732 252.492 114.041 237.95 109.819 230.444C120.609 236.542 121.078 253.43 116.856 263.282C160.483 260.936 165.644 211.679 165.644 210.741C165.644 209.803 159.545 200.89 156.261 195.729C128.114 209.615 106.692 198.388 99.4985 191.038C98.2475 189.475 96.6838 186.629 100.437 187.754C123.892 200.89 141.25 197.137 160.014 187.754C165.268 186.629 170.647 187.285 172.68 187.754L167.051 189.162C167.833 190.1 170.335 191.976 174.088 191.976C177.84 193.478 178.466 189.787 178.31 187.754C177.059 186.503 174.932 182.594 176.433 176.965C179.248 184.002 183.939 189.162 186.285 187.754C190.788 184.002 184.408 174.307 180.655 169.928C182.532 170.554 187.223 172.837 190.976 176.965C192.383 175.088 193.321 172.743 188.161 166.644C174.557 156.324 160.014 163.83 158.138 164.768C156.261 165.706 153.447 167.113 144.064 169.928C131.867 172.274 123.892 167.583 114.979 157.731C109.35 153.509 100.437 149.756 89.6471 153.978C86.6448 156.981 77.4501 186.504 73.2281 200.89C70.8826 205.581 66.1915 219.467 66.1915 237.481C67.6925 250.24 59.9366 256.871 55.871 258.591C53.0563 260.936 42.2668 266.566 47.4269 281.577C50.7107 296.589 66.1915 299.404 70.8826 296.589Z" fill="white"/>
<path d="M150.63 184.002C160.012 181.75 168.924 185.878 171.27 187.754C165.64 187.285 160.949 187.892 148.283 192.915C126.516 201.546 108.565 193.697 102.31 188.693C100.746 188.067 97.7125 187.285 98.0878 189.162C116.477 208.677 144.53 201.672 156.258 195.729L166.109 210.741C166.109 212.617 165.64 216.839 160.011 231.382C146.407 262.344 125.766 262.344 116.852 263.282C117.791 261.875 118.729 258.122 119.198 255.307C161.887 254.369 159.073 225.753 158.604 219.654C155.32 218.716 151.567 222.469 150.63 222.469C149.693 222.469 146.407 222 143.123 218.716C137.493 213.556 133.271 213.087 124.827 213.087C116.383 213.087 104.187 207.926 94.3361 192.915C90.5832 183.533 95.7434 182.125 107.94 184.002C126.705 188.693 138.902 186.816 150.63 184.002Z" fill="#D5CDD4"/>
<path d="M145.938 207.926C144.062 208.677 141.091 206.988 139.84 206.05C139.84 207.614 140.684 211.023 144.062 212.148C146.314 213.274 147.502 211.679 147.815 210.741C148.284 211.367 149.785 212.242 152.037 210.741C155.414 209.991 157.197 206.675 157.666 205.112L156.259 206.519L156.728 205.112C156.728 204.33 156.353 202.954 154.851 203.704C153.726 208.959 149.691 208.708 147.815 207.926C147.815 207.614 147.439 207.176 145.938 207.926Z" fill="#04152D"/>
<path d="M149.221 219.654C148.47 219.654 145.468 219.029 144.061 218.716C144.999 221.062 150.159 222.938 152.035 221.531C152.786 220.405 154.537 220.123 155.319 220.123C156.414 218.872 158.509 215.901 158.134 214.025C157.759 214.775 156.101 215.901 155.319 216.37C154.85 216.214 153.63 216.183 152.505 217.309C151.566 219.185 150.159 219.654 149.221 219.654Z" fill="#04152D"/>
<path d="M125.765 174.619C123.888 173.869 120.605 173.681 119.197 175.558C119.197 177.059 122.325 177.121 123.888 176.965C124.514 176.965 125.765 176.496 125.765 174.619Z" fill="#B3C0D2"/>
<path d="M112.158 178.841C114.785 178.091 114.816 179.779 114.504 180.718C113.003 181.468 111.377 181.03 110.751 180.718C110.125 180.405 109.531 179.592 112.158 178.841Z" fill="#B3C0D2"/>
<path d="M121.544 181.187H119.667C119.198 181.187 117.791 182.125 117.791 183.063C117.791 184.001 121.075 184.001 122.013 183.532C122.764 183.157 122.013 181.812 121.544 181.187Z" fill="#B3C0D2"/>
<path d="M79.7965 195.26C80.1093 196.824 80.3594 199.952 78.8583 199.952C77.4509 199.952 78.3892 195.26 79.7965 195.26Z" fill="#B4C1D3"/>
<path d="M229.908 176.027C224.748 167.582 213.021 162.891 203.169 161.015C198.07 160.651 198.156 163.498 198.88 165.096C213.463 163.106 214.07 174.369 212.551 180.249C212.238 181.187 211.894 183.063 213.02 183.063C213.771 182.688 215.522 178.841 216.304 176.965C216.304 177.747 216.21 180.061 215.835 183.063C220.995 183.063 222.402 178.372 224.279 177.434C225.78 176.683 225.53 181.187 225.217 183.532C225.061 184.783 225.217 187.567 227.093 188.693C229.439 186.816 231.315 184.471 229.908 176.027Z" fill="white"/>
<path d="M84.0171 203.704C83.2665 202.203 84.9554 199.951 85.8936 199.013C85.8936 198.869 86.2934 198.991 86.3547 199.011C86.3599 198.949 86.3626 198.944 86.3626 199.013C86.3626 199.013 86.3598 199.012 86.3547 199.011C86.3195 199.428 86.1657 202.479 85.8934 203.704C85.5807 204.173 84.7677 204.83 84.0171 203.704Z" fill="#B3C0D2"/>
<path d="M76.5145 213.087C75.0134 208.583 77.4528 204.955 78.8601 203.704C80.2662 203.704 78.3922 209.334 78.3922 210.741C78.3922 212.149 77.4528 213.556 76.5145 213.087Z" fill="#B5C0D3"/>
<path d="M176.902 188.693C176.152 187.942 173.462 187.754 172.211 187.754C172.211 187.442 171.554 186.91 167.051 189.162C168.721 190.832 170.391 191.759 175.37 192.273C176.578 192.398 177.787 191.755 178.123 190.589C178.675 188.673 178.338 186.984 176.902 184.471C176.746 184.783 176.527 186.066 176.902 188.693Z" fill="#D5CDD4"/>
<path d="M184.874 177.903C186.751 185.033 181.903 183.063 179.245 181.187C178.776 181.187 182.998 188.693 185.813 188.223C189.565 186.722 187.689 180.405 186.282 177.434C186.125 177.277 185.625 177.152 184.874 177.903Z" fill="#D5CDD4"/>
<path d="M208.329 173.212C205.702 173.962 199.416 173.837 196.601 173.681C196.601 176.683 195.35 178.685 194.725 179.31C196.601 179.467 201.011 179.686 203.638 179.31C206.922 178.841 208.798 176.496 208.329 173.212Z" fill="#D5CDD4"/>
<path d="M212.553 183.063C213.304 183.063 215.368 179.31 216.306 177.434C216.306 178.372 216.211 180.811 215.836 183.063C218.472 183.532 221.934 180.248 222.873 178.372C223.623 176.871 224.124 177.121 224.28 177.434C223.967 179.154 222.591 183.345 219.589 186.347C214.429 190.1 209.737 188.223 208.33 185.878C208.705 185.878 210.989 182.438 212.084 180.718C211.928 181.499 211.803 183.063 212.553 183.063Z" fill="#D5CDD4"/>
<path d="M229.912 183.533C228.786 184.283 226.315 183.845 225.22 183.533C224.908 185.096 223.532 188.599 220.529 190.1C220.529 191.038 221.937 191.508 224.751 191.038C227.097 190.569 229.912 185.878 229.912 183.533Z" fill="#D5CDD4"/>
<path d="M78.3869 271.726C97.5267 272.101 106.377 264.376 108.41 260.467C109.348 260.467 105.127 267.973 99.4972 273.133C100.623 273.509 103.094 272.039 104.188 271.257C103.876 271.726 102.781 273.039 100.905 274.541C95.2751 281.108 77.4488 282.516 60.5607 281.108C62.9063 283.923 72.6928 285.956 77.4488 286.738C76.9797 287.363 75.5724 290.021 75.5724 291.898C73.2269 289.552 69.0046 287.676 65.7208 288.145C57.8397 285.143 56.8077 280.639 57.2768 278.763C57.5895 276.573 62.2494 272.101 78.3869 271.726Z" fill="#D5CDD4"/>
<path d="M59.154 293.305C52.0235 290.678 48.0516 282.828 46.957 279.232C48.3644 290.96 58.2158 298.465 68.5363 297.527C72.7583 296.589 72.9147 295.182 72.7583 293.774C71.6637 293.931 67.4104 294.056 59.154 293.305Z" fill="#B3C0D0"/>
<path d="M82.6063 290.96C82.231 293.587 78.3843 293.618 76.5078 293.305C77.446 297.058 80.2607 296.589 81.199 296.589C82.1372 296.589 84.0136 294.243 82.6063 290.96Z" fill="#B3C0D0"/>
<path d="M196.6 173.681C196.6 172.93 195.975 170.554 195.662 169.459H205.513C206.139 169.459 207.578 170.21 208.328 173.212C207.39 173.681 199.884 174.15 196.6 173.681Z" fill="#FFFFFD"/>
<path d="M47.4251 7.61475C81.2013 -2.14282 95.9002 20.4372 99.0276 32.9469C99.4967 32.4778 100.435 30.6014 100.435 26.8484C132.335 7.14566 169.864 21.2191 183.937 34.8234C210.208 62.032 209.269 93.9317 205.516 111.758C197.635 143.282 160.325 152.415 142.655 153.04C97.1512 151.633 75.1029 127.239 70.4117 106.598C52.5854 109.882 51.6472 100.499 50.2398 89.2406C49.3016 89.2406 47.4251 96.2773 47.4251 105.66C38.418 101.907 38.3556 89.0842 39.4502 83.1421C37.8865 84.3931 34.6653 88.9591 34.29 97.2155C29.1297 94.8699 26.7841 85.9568 28.1915 72.3525C25.1892 74.9795 22.5621 83.1421 21.6239 86.895C13.1798 69.0687 14.1181 50.5088 28.1915 41.391C25.3768 41.391 16.4636 46.5512 9.89597 55.4644C8.95775 38.1072 17.8709 18.4044 47.4251 7.61475Z" fill="white"/>
<path d="M164.721 259.259C164.721 258.508 163.47 251.44 162.845 248C158.623 258.79 143.611 269.579 138.451 271.925C129.538 274.739 125.317 278.492 124.848 278.962C124.379 279.431 122.972 285.06 125.317 289.751C131.885 294.442 143.143 295.85 149.711 294.911C149.711 293.035 146.896 289.751 145.489 288.344C145.958 288.5 147.083 288.907 147.833 289.282C146.895 269.11 154.401 263.012 164.721 259.259Z" fill="#D5CDD4"/>
<path d="M80.7324 266.097C81.6706 265.627 83.8286 264.971 84.9544 266.097C84.4853 267.504 80.7324 267.973 80.7324 266.097Z" fill="#B4BFD0"/>
<path d="M95.2748 261.405C94.5242 262.531 92.1473 263.751 91.0527 264.22C93.3045 266.472 96.0566 263.907 97.1512 262.344C97.1512 261.875 96.7759 261.03 95.2748 261.405Z" fill="#B3C0D0"/>
<path d="M83.072 212.148C82.6967 211.398 83.5412 209.021 84.0103 207.926C84.1672 207.614 84.575 207.176 84.9503 207.926C85.4194 208.865 84.4811 211.679 84.4811 212.148C84.4811 212.618 83.5412 213.087 83.072 212.148Z" fill="#B2C1D5"/>
<path d="M167.516 17.9352C173.52 19.4364 182.215 26.3793 185.811 29.6631C193.317 18.029 204.888 16.997 209.736 17.9352C214.271 18.8735 223.528 22.5326 224.278 29.6631C206.921 19.3425 198.477 20.2809 189.095 32.0087C209.267 54.9953 213.02 78.9201 213.02 96.7464C221.651 93.7441 221.307 81.422 220.056 75.6363C221.307 76.7309 224.372 80.5151 226.624 86.895C233.004 76.3869 228.344 65.3158 225.217 61.0938C227.093 61.7192 231.597 64.4714 234.599 70.476C237.414 62.032 236.006 49.835 225.217 37.6381C226.624 37.6381 234.13 40.4527 238.821 46.0821C241.166 38.5763 229.439 16.0588 209.736 9.02206C190.033 1.98535 175.491 6.20737 167.516 17.9352Z" fill="white"/>
<path d="M226.626 82.2038C230.003 75.0733 227.095 65.4721 225.218 61.5628C234.601 72.3524 228.971 87.8332 226.626 86.895C225.218 83.6112 221.466 76.1053 220.527 77.0436C221.278 90.554 217.713 96.2772 213.021 96.2772C213.178 94.2444 213.397 89.7096 213.021 87.8332C215.273 87.0826 219.589 77.8254 221.466 73.2907C222.717 74.3852 225.5 77.7003 226.626 82.2038Z" fill="#D5CDD4"/>
<path d="M222.409 28.2557C204.019 16.2464 192.698 25.754 189.102 32.0089C191.291 34.3544 196.138 39.8899 198.015 43.2675C199.891 42.5169 210.368 42.9547 215.372 43.2675C214.903 42.3293 211.713 39.796 202.706 37.169C207.866 33.4161 214.903 34.3543 225.223 41.8601C219.125 30.6014 210.212 30.1323 211.619 29.1941C213.026 28.2558 216.31 27.7866 222.409 28.2557Z" fill="#D5CDD4"/>
<path d="M183.935 25.9103C184.685 25.9103 191.753 21.5319 195.193 19.3427C192.848 21.5319 187.594 26.5671 185.342 29.1941C181.589 24.6906 171.894 19.4991 167.516 17.4663C169.861 15.5898 175.584 11.7431 179.713 11.3678C179.243 11.8369 175.96 14.1825 172.676 17.9354C173.802 19.4366 178.774 17.6226 181.12 16.528L176.898 21.2192L178.305 22.6265C181.308 20.3748 183.622 20.1246 184.404 20.281L181.589 24.503C182.058 24.9721 183.184 25.9103 183.935 25.9103Z" fill="#D5CDD4"/>
<path d="M44.6076 24.9719C85.5143 14.4637 85.4205 37.7943 80.2602 50.7732C75.8818 58.1226 66.2806 74.4165 62.903 80.7965C60.276 68.7872 67.4378 58.5918 71.3471 54.9952C69.7833 53.5879 66.2806 50.4917 64.7795 49.3658C62.903 47.9585 57.2736 49.3658 51.1752 56.4026C53.0516 46.645 60.4011 40.4527 63.8412 38.5762C61.1829 37.9507 54.0837 36.8874 46.9531 37.638C39.8226 38.3886 30.5342 44.2056 26.7812 47.0203C27.8758 45.3002 31.66 41.0156 38.04 37.638C35.4129 37.2627 33.1925 36.8561 32.4106 36.6998C32.567 36.0743 35.2253 32.853 44.6076 24.9719Z" fill="#D5CDD4"/>
<path d="M70.8816 69.5376C70.131 72.1647 67.1287 78.4508 65.7214 81.2655L66.6596 74.2289C66.3469 74.698 65.2523 76.5744 63.3758 80.3274C63.3758 73.9474 68.3797 60.781 70.8816 54.9952C68.3797 56.5589 62.1561 61.0937 57.2773 66.7231C57.7464 58.7481 63.3758 50.7731 68.0669 47.0203C63.5634 45.8944 55.87 50.6168 52.5862 53.1188C53.368 49.9913 56.6206 42.7044 63.3758 38.5762C54.3688 36.6998 46.4877 41.2345 43.673 43.7365C44.924 40.6091 49.7715 33.2283 59.1538 28.7248C47.5198 26.4731 34.6035 33.7287 29.5996 37.6379C32.1015 32.3213 41.5151 21.9695 59.1538 23.0954C81.2021 27.7865 82.1404 40.4526 80.2639 50.7731C79.3257 52.6496 71.8199 66.2539 70.8816 69.5376Z" fill="#07142B"/>
<path d="M47.8885 105.19C37.7556 100.687 38.0371 89.2405 39.4444 84.0803C41.7892 88.7714 47.8885 93.4625 48.3583 93.4625C48.8281 93.4625 47.4193 99.0919 47.8885 105.19Z" fill="#D5CDD4"/>
<path d="M69.4784 106.129C52.215 111.007 49.4629 97.2155 50.2447 89.7097C52.4968 94.5884 63.3797 97.6846 68.5397 98.6228C68.5397 97.6846 68.7274 94.9637 69.4784 91.5861C69.1035 95.339 71.511 103.158 72.7617 106.598C72.7617 105.19 72.8555 102.376 73.2308 102.376C73.6999 102.376 77.9219 110.82 79.3293 115.042C80.4552 118.419 83.2386 122.704 84.4895 124.424C84.3332 123.642 83.5513 120.859 81.6749 115.98C104.192 139.436 115.92 142.72 143.598 145.534C171.276 148.349 194.262 128.646 204.583 115.042C191.447 152.571 145.474 152.571 141.721 153.978C143.598 154.729 157.202 154.291 163.77 153.978C163.926 154.604 164.145 155.949 163.77 156.324C163.301 156.793 154.857 160.546 154.387 160.077C153.918 159.608 153.449 156.324 152.042 157.262C152.511 161.484 149.696 161.484 149.227 161.484C148.852 161.484 145.943 160.546 144.536 160.077C139.376 159.295 127.929 157.919 123.426 158.669C122.675 158.294 115.295 154.76 111.698 153.04C111.385 153.353 111.604 154.729 114.982 157.731C104.474 150.225 93.4027 152.102 89.1807 153.978C89.8062 152.727 91.7139 149.193 94.3409 145.065C103.723 149.756 114.044 151.164 125.302 151.633C85.8969 141.781 76.046 123.486 69.4784 106.129Z" fill="#D5CDD4"/>
<ellipse cx="95.8966" cy="271.908" rx="2.34557" ry="1.87646" transform="rotate(-47.403 95.8966 271.908)" fill="white"/>
<path d="M21.6245 87.364L19.748 83.142C20.999 80.171 24.7207 73.5721 29.5994 70.9451C24.7207 75.8239 22.25 83.9239 21.6245 87.364Z" fill="#D5CDD4"/>
<path d="M28.1932 77.5127C28.5684 79.3892 33.3534 86.1131 35.699 89.2405C35.2299 90.3351 34.2916 93.3687 34.2916 96.7464C29.6005 93.9317 26.3167 85.0185 28.1932 77.5127Z" fill="#D5CDD4"/>
<path d="M105.371 90.9368C104.601 74.9452 111.93 73.117 115.916 72.8217C121.546 72.8217 124.361 75.6364 125.768 86.8951C126.894 95.9021 119.669 99.0921 115.916 99.5612C114.11 99.8192 109.539 99.9707 106.939 96.5935C105.724 95.0149 105.467 92.9267 105.371 90.9368Z" fill="#03162D"/>
<path d="M173.616 123.017C156.259 142.719 133.742 126.3 131.865 115.042C132.491 113.634 134.398 111.664 137.025 115.042C146.877 135.214 162.358 127.708 168.925 123.017C172.678 119.264 173.616 121.453 173.616 123.017Z" fill="#04152B"/>
<path d="M184.402 94.4009C183.524 90.0123 184.207 86.0513 185.27 83.0806C186.439 79.814 189.269 76.904 192.707 77.3665C194.276 77.5775 195.417 78.2061 195.662 78.451C196.06 78.8494 198.15 79.9246 199.059 87.1362C199.43 90.0796 199.322 93.1131 198.336 95.9108C196.456 101.242 193.436 102.503 191.909 102.376C190.188 102.689 186.278 101.531 184.402 94.4009Z" fill="#04152B"/>
<circle cx="117.322" cy="78.4511" r="2.81468" fill="white"/>
<ellipse cx="192.857" cy="82.204" rx="2.34557" ry="2.81468" fill="white"/>
<path d="M141.32 102.164C140.979 82.0652 147.45 71.2182 151.099 68.1305C154.07 66.0977 161.701 63.2518 168.457 68.1305C176.901 74.229 179.715 86.8951 179.715 103.783C179.162 108.759 177.229 112.582 175.016 115.35C171.503 119.743 165.556 120.692 159.931 120.695C157.692 120.696 155.952 120.691 155.791 120.671C154.812 120.671 149.524 119.084 145.604 115.435C142.072 112.148 141.401 106.988 141.32 102.164Z" fill="#04152B"/>
<path d="M172.678 90.648C170.05 76.3869 160.011 71.5707 155.32 70.9452C167.986 63.9087 177.369 85.9569 175.492 100.499C174.147 110.921 169.55 115.824 166.579 116.918C165.484 117.075 163.483 117.106 164.233 115.98C175.023 112.227 173.616 100.499 172.678 90.648Z" fill="white"/>
<path d="M146.874 98.1537C146.561 102.219 147.531 111.383 153.911 115.511C149.219 114.573 145.466 110.351 146.874 98.1537Z" fill="#FFFFFD"/>
<path d="M54.9323 220.123C52.3053 207.363 61.0308 204.799 65.7219 205.112C61.5932 214.494 60.5619 224.345 60.5624 228.098C59.6241 227.785 57.1846 225.753 54.9323 220.123Z" fill="white"/>
<path d="M54.9316 218.716C57.1834 222.469 60.8737 217.152 62.4375 214.025C61.812 216.683 60.561 223.219 60.561 228.098C59.6228 228.098 56.339 224.814 54.9316 218.716Z" fill="#D5CDD4"/>
<path d="M182.055 138.028C184.9 136.232 190.64 132.37 191.782 130.728C191.823 130.66 191.865 130.591 191.906 130.523C191.874 130.586 191.833 130.655 191.782 130.728C188.995 135.296 185.753 138.028 182.055 138.028Z" fill="#163452"/>
<path d="M118.262 146.003C117.511 146.003 115.135 144.752 114.04 144.127C113.571 143.864 114.509 142.719 114.978 142.719C115.353 142.719 117.637 143.97 118.731 144.596C118.887 145.065 119.013 146.003 118.262 146.003Z" fill="#374560"/>
<path d="M111.223 144.127C109.722 144.127 107.47 141.625 106.532 140.374C106.44 140.254 107.119 140.324 107.47 140.374C107.939 140.374 111.692 142.719 111.223 144.127Z" fill="#374560"/>
<path d="M101.371 137.09C101.371 138.029 101.934 139.999 104.186 140.374C104.655 138.967 101.84 136.621 101.371 137.09Z" fill="#374560"/>
<path d="M97.6216 136.621C96.4957 136.246 91.8359 131.148 89.6467 128.646C89.2714 128.271 89.803 128.177 90.1158 128.177C90.8664 127.802 96.3706 133.024 99.0289 135.683C99.0289 136.152 98.7475 136.996 97.6216 136.621Z" fill="#4C5870"/>
<path d="M82.6092 124.893C82.2339 124.518 82.14 123.486 82.14 123.017C82.0971 122.366 83.0783 122.547 83.0783 123.017C83.0783 123.486 85.893 126.769 86.3621 127.239C86.8312 127.708 86.8312 128.177 86.3621 128.646C85.893 128.646 83.0783 125.362 82.6092 124.893Z" fill="#4C5870"/>
<path d="M87.771 119.264C86.2698 118.889 85.8945 116.918 85.8945 115.98C86.2698 114.104 87.6146 115.824 88.2401 116.918C88.5528 117.7 88.8969 119.264 87.771 119.264Z" fill="#B9BFCF"/>
<path d="M160.494 194.322L162.84 192.915L197.554 246.394V249.677C196.428 248.552 172.378 212.305 160.494 194.322Z" fill="#F9FFFF"/>
<path d="M221.002 196.668H218.188L235.545 222H238.829L221.002 196.668Z" fill="#FFFFFD"/>
<path d="M242.114 239.826C240.988 238.7 225.382 232.789 217.72 229.975C216.313 229.505 214.061 228.192 216.313 226.691C219.127 224.814 235.546 225.753 241.176 226.691C246.805 227.629 263.693 232.32 267.446 237.48C265.57 240.295 246.805 239.826 242.114 239.826Z" fill="white"/>
<path d="M265.102 241.703C271.107 240.952 271.983 239.201 271.67 238.419C273.077 238.731 275.892 240.107 275.892 243.11C269.887 245.737 248.996 246.394 239.301 246.394C238.676 246.394 237.237 246.206 236.486 245.455C231.795 239.826 205.525 233.728 203.648 233.728C204.118 232.789 206.932 229.975 211.154 230.444C211.905 231.194 232.108 238.888 242.116 242.641C246.963 242.484 258.347 242.078 265.102 241.703Z" fill="white"/>
<path d="M276.831 245.924C268.574 249.302 245.869 249.208 235.549 248.739C235.549 249.208 235.643 250.24 236.018 250.616C238.645 250.616 238.676 257.183 238.364 260.467H241.178V253.899C242.679 250.897 243.993 252.648 244.462 253.899V259.998H247.746V253.43C249.247 250.803 250.56 252.336 251.03 253.43V259.529H255.252C255.408 258.434 255.721 255.682 255.721 253.43C256.847 250.053 258.066 252.023 258.535 253.43L259.005 259.529L263.696 259.06C263.539 257.965 263.227 255.307 263.227 253.43C263.227 251.085 264.165 250.146 265.572 250.616C266.698 251.366 266.667 256.245 266.51 258.59L271.201 258.121V251.085C272.327 247.707 273.547 249.677 274.016 251.085V257.652C274.391 256.902 276.049 256.714 276.831 256.714V245.924Z" fill="white"/>
<path d="M224.287 242.172C217.157 240.671 208.806 236.23 205.523 234.197L203.648 233.728C203.178 235.604 202.239 240.483 202.239 244.986C204.864 247.613 219.909 251.71 227.104 253.43C227.416 252.961 228.511 252.305 230.387 253.43C231.795 255.307 229.449 258.122 227.573 257.652C226.072 257.277 210.058 250.928 202.239 247.801C201.77 249.052 200.925 252.211 201.301 254.838C203.177 257.183 216.312 265.627 225.694 267.035C230.855 267.504 233.2 267.035 234.608 263.282C234.139 260.467 235.546 252.961 236.015 251.554C236.484 250.147 235.546 249.208 235.546 248.739C235.546 248.27 230.855 244.048 224.287 242.172Z" fill="#1EB2D0"/>
<path d="M229.923 246.394C226.92 246.018 221.166 243.735 218.664 242.641C217.726 242.239 216.318 244.517 217.257 245.455C218.195 246.394 228.515 250.616 229.923 250.616C231.33 250.616 232.268 247.801 229.923 246.394Z" fill="#05162E"/>
<path d="M228.043 259.998C224.665 261.874 219.13 258.903 216.784 257.183C214.908 259.435 216.94 261.249 218.191 261.874C221.162 263.282 227.667 265.721 229.919 264.22C230.857 263.282 230.388 259.529 228.043 259.998Z" fill="#05162E"/>
<path d="M301.224 303.157C304.226 285.893 295.595 274.697 290.904 271.257C289.496 268.442 301.224 272.664 305.446 280.639C309.668 288.614 308.261 297.996 301.224 303.157Z" fill="#1EB2D0"/>
<path d="M241.181 260.467H238.366C238.366 260.936 238.835 264.689 236.959 267.973C255.254 269.849 267.451 267.035 271.673 266.096C275.895 265.158 277.303 260.467 276.834 256.714C276.458 256.339 274.801 257.183 274.019 257.652C274.019 259.373 273.644 262.906 272.143 263.282C270.641 263.657 270.892 259.998 271.204 258.122C270.579 258.278 268.765 258.591 266.513 258.591C266.513 259.06 266.044 264.689 264.637 265.158C263.136 264.783 263.386 260.936 263.698 259.06C263.386 259.06 262.01 259.154 259.007 259.529C259.007 264.22 257.6 266.096 256.193 266.096C255.067 265.346 255.411 261.405 255.724 259.529H251.032C251.032 265.627 249.625 266.096 248.687 266.096C247.186 265.346 247.436 261.718 247.749 259.998H244.465C244.308 260.467 243.996 261.874 243.996 263.751C243.527 265.627 242.588 266.096 241.65 265.627C240.9 265.252 241.025 262.031 241.181 260.467Z" fill="#1EB2D0"/>
<path d="M303.576 273.133C299.824 268.63 292.63 268.755 289.503 269.38C289.19 269.224 288.471 268.723 288.096 267.973C289.597 266.472 296.227 267.035 299.354 267.504C300.762 266.878 304.421 265.721 307.798 266.096C311.176 266.472 314.522 270.318 315.773 272.195C313.897 272.508 309.393 273.321 306.391 274.071C309.206 277.355 312.021 282.984 310.613 292.367C310.144 285.33 308.737 279.701 303.576 273.133Z" fill="white"/>
<path d="M309.2 267.973C306.948 267.222 302.632 268.286 300.756 268.911L301.694 269.849C302.163 270.318 306.854 268.911 309.2 267.973Z" fill="#000D21"/>
<path d="M304.043 271.257C304.043 270.881 309.672 270.162 312.487 269.849C312.8 270.006 313.425 270.412 313.425 270.788C313.425 271.257 305.919 272.664 305.45 272.664C304.981 272.664 304.043 271.726 304.043 271.257Z" fill="#000D21"/>
<path d="M316.706 273.602L317.644 275.479L310.607 274.54L316.706 273.602Z" fill="#E3ECFB"/>
<path d="M318.581 277.355L319.05 279.232C317.018 279.388 312.764 279.607 312.014 279.232C312.014 278.481 316.392 277.668 318.581 277.355Z" fill="#BCCEE1"/>
<path d="M320.458 282.984C320.833 282.984 320.614 282.046 320.458 281.577C314.078 282.328 313.734 282.828 314.36 282.984H320.458Z" fill="#BCCEE1"/>
<path d="M320.93 285.33L320.461 287.206L315.77 286.737L320.93 285.33Z" fill="#BCCEE1"/>
<path d="M279.172 266.097L276.827 267.973C278.703 268.911 278.703 269.38 272.605 272.664C267.913 274.54 254.309 275.479 246.334 275.479C243.707 275.479 236.796 274.228 233.668 273.602C218.656 273.133 205.052 269.38 194.263 262.813C194.638 262.437 197.546 262.031 198.954 261.874V259.998C195.67 259.529 190.979 261.874 188.164 263.282C188.633 263.751 193.324 268.442 195.201 276.417C196.327 277.543 205.678 281.265 210.212 282.985C217.249 276.417 227.57 273.368 235.545 275.01C251.494 278.293 254.309 287.676 255.716 303.626C258.531 304.564 289.024 298.934 297.468 295.651C297.468 279.888 285.271 269.38 279.172 266.097Z" fill="#FEFFFF"/>
<path d="M195.674 295.181C196.8 287.3 195.831 279.388 195.205 276.417C197.082 277.511 202.711 280.357 210.217 282.984C206.464 287.488 205.213 295.181 205.056 298.465C203.18 297.84 198.677 296.307 195.674 295.181Z" fill="#1EB2D0"/>
<path d="M297.006 303.625V299.873C286.873 304.751 265.575 307.847 256.193 308.786C255.724 309.255 254.692 310.662 254.316 312.539C261.447 312.914 285.747 306.753 297.006 303.625Z" fill="#FEFFFF"/>
<path d="M237.89 300.811C237.89 297.058 236.014 290.49 232.73 286.737C227.101 279.982 219.126 281.734 215.842 283.454C215.467 283.454 215.686 282.828 215.842 282.515C217.718 280.17 223.817 279.232 229.915 282.046C231.417 280.92 237.421 280.013 240.236 279.701L243.051 282.046C241.174 281.89 236.483 281.952 232.73 283.454C237.89 289.552 239.767 295.181 239.767 305.033C238.829 315.353 232.73 321.452 228.508 322.39C237.89 315.353 237.89 305.971 237.89 300.811Z" fill="#FEFFFF"/>
<path d="M244.934 283.453L246.81 285.799C243.839 285.955 237.803 286.081 237.428 285.33C237.803 284.955 242.588 283.923 244.934 283.453Z" fill="white"/>
<path d="M248.682 289.552C249.057 289.177 248.213 288.145 247.744 287.676C239.863 288.426 240.082 289.239 241.176 289.552C243.522 289.708 248.307 289.927 248.682 289.552Z" fill="white"/>
<path d="M243.53 294.243H250.097L249.628 291.898C247.908 292.054 244.28 292.461 243.53 292.836C242.779 293.211 243.217 293.93 243.53 294.243Z" fill="white"/>
<path d="M250.568 296.589L251.037 298.465C244 298.934 244.469 298.465 244.469 297.996C244.469 297.621 248.535 296.902 250.568 296.589Z" fill="white"/>
<path d="M251.033 302.687V300.811C243.527 302.687 243.527 303.156 244.465 303.156L251.033 302.687Z" fill="white"/>
<path d="M180.198 282.984C179.072 269.849 172.536 265.314 169.408 264.689C169.408 264.314 172.223 264.845 173.63 265.158C173.787 265.314 174.381 265.721 175.507 266.096C175.882 266.096 181.292 265.471 183.951 265.158C184.576 265.471 185.827 266.378 185.827 267.504H176.445C176.758 267.816 177.477 268.629 177.852 269.38C178.603 269.005 184.107 268.285 186.765 267.973C187.078 268.285 187.797 269.192 188.173 270.318C187.235 270.318 183.951 270.318 178.79 270.787C181.136 273.602 181.605 282.046 181.605 289.083C181.605 294.712 178.321 303.625 170.346 304.094C177.852 301.749 179.729 292.367 180.198 282.984Z" fill="#FEFFFF"/>
<path d="M188.635 272.664L190.043 274.54H183.006C183.006 273.79 186.759 272.977 188.635 272.664Z" fill="#FEFFFF"/>
<path d="M190.984 278.293L191.922 280.17C185.917 280.545 185.354 279.388 185.823 278.762L190.984 278.293Z" fill="#FEFFFF"/>
<path d="M191.922 284.392C190.358 284.392 187.137 284.298 186.762 283.923C188.169 282.985 192.391 284.395 191.922 284.392Z" fill="#FEFFFF"/>
<ellipse cx="165.181" cy="284.392" rx="12.197" ry="17.3572" fill="#FEFFFF"/>
<ellipse cx="164.716" cy="283.923" rx="8.91316" ry="12.197" fill="#02102C"/>
<ellipse cx="222.835" cy="302.406" rx="12.6661" ry="16.8881" transform="rotate(-3.08299 222.835 302.406)" fill="#FEFFFF"/>
<ellipse cx="222.884" cy="302.218" rx="8.91316" ry="11.7278" transform="rotate(-5.36375 222.884 302.218)" fill="#02102C"/>
<path d="M273.08 203.704C273.08 204.455 277.458 206.206 279.648 206.988L291.376 194.791L292.783 182.594L286.684 179.779L276.833 184.471C275.582 190.569 273.08 202.954 273.08 203.704Z" fill="#6AD79B" stroke="black"/>
<path d="M286.683 230.444C284.431 229.318 283.242 226.222 282.93 224.814V222.938L297.941 209.334L310.138 210.741V219.185L296.065 229.975C293.876 230.6 288.934 231.57 286.683 230.444Z" fill="#6AD79B"/>
<path d="M306.861 207.457C292.225 205.205 282.623 217.152 279.652 223.407C279.652 224.502 280.309 226.316 282.936 224.814C285.563 219.185 292.162 214.963 295.133 213.556C298.886 212.305 306.861 210.553 308.737 213.556C308.362 224.064 293.569 229.193 286.22 230.444C285.751 231.069 285.938 232.32 290.442 232.32C304.328 231.945 310.927 221.843 312.49 216.839C313.429 214.494 313.616 209.334 306.861 207.457Z" fill="#061A2E"/>
<path d="M17.8811 268.911C17.8811 270.037 17.2557 271.257 16.9429 271.726H8.96798L2.40039 267.504L8.49887 263.751C11.6263 265.002 17.8811 267.785 17.8811 268.911Z" fill="#6AD79B"/>
<path d="M2.39861 271.726C7.08975 276.417 16.0029 274.071 16.472 273.602C17.0981 273.133 17.8812 272.007 16.0047 271.257C9.43711 270.787 3.33863 268.442 4.27685 267.035C7.56065 262.343 16.9429 268.442 18.8194 268.911C20.3205 269.286 20.3831 269.067 20.2267 268.911C20.3831 268.286 19.7576 266.378 16.0047 263.751C8.49888 260.467 3.33684 262.813 2.39861 263.282C1.46039 263.751 -1.3543 267.035 2.39861 271.726Z" fill="#05122E"/>
<path d="M28.6708 256.245C28.2016 258.121 25.8561 259.06 25.387 259.529L10.8444 252.961L2.40039 242.172L3.33862 235.135L17.412 237.48C21.3213 243.11 29.0461 254.744 28.6708 256.245Z" fill="#6AD79B"/>
<path d="M0.0553643 240.764C3.80827 257.277 18.5072 260.154 25.3875 259.529C12.2526 254.65 5.84097 245.925 4.277 242.172C3.49514 240.764 2.68201 237.762 5.68434 237.011C17.6937 236.636 26.6381 250.616 29.6091 257.652C30.0783 257.652 31.0165 257.183 31.0165 255.307C29.14 242.172 16.0052 234.666 13.1905 233.728C10.3759 232.789 -0.882863 229.975 0.0553643 240.764Z" fill="#061C2F"/>
<path d="M37.581 250.616C40.5834 254.369 42.5849 250.616 43.2104 248.27L45.0869 237.48L38.5193 232.789L33.8281 235.604C33.8281 239.044 34.5787 246.863 37.581 250.616Z" fill="#6AD79B"/>
<path d="M33.3557 248.739C35.2322 250.991 36.9522 251.241 37.5777 251.085C36.9528 249.834 35.5154 246.769 34.7648 244.517C33.8266 241.702 34.2957 233.728 38.0486 234.197C41.8015 234.666 43.678 242.641 43.2089 247.801C46.4927 248.739 46.4927 239.357 46.4927 238.419C46.4927 237.48 44.1453 230.913 37.5777 230.444C29.1337 230.444 31.0101 245.924 33.3557 248.739Z" fill="#04152B"/>
<path d="M268.386 187.755C268.386 188.13 265.258 190.1 263.694 191.038L259.942 188.224L255.719 178.372L254.781 166.175L259.003 161.015L268.386 168.521V187.755Z" fill="#6AD79B"/>
<path d="M252.438 177.903C254.315 186.91 260.726 190.725 263.697 191.507C256.941 184.001 255.879 173.055 256.193 168.521C256.193 166.801 257.037 163.36 260.415 163.36C266.983 166.644 268.39 180.718 267.921 188.223C270.266 186.816 271.205 176.965 271.205 174.15C271.205 171.335 265.574 158.2 259.475 159.138C253.377 160.077 250.093 166.644 252.438 177.903Z" fill="#02142E"/>
<path d="M290.904 178.841C287.151 176.495 282.931 177.434 277.301 182.125C271.828 186.139 271.529 197.574 272.091 203.235C272.981 204.173 274.016 205.111 274.485 201.828C274.955 189.162 279.646 183.532 283.868 182.125C288.09 180.717 290.435 181.656 290.435 186.347C290.811 194.979 282.148 204.017 277.769 207.457C277.926 207.77 278.707 208.208 280.584 207.457C288.09 205.111 291.374 198.075 293.25 193.384C295.126 188.692 294.657 181.187 290.904 178.841Z" fill="#061A2E"/>
<path d="M304.039 243.579C303.664 243.204 304.508 241.859 304.977 241.233L310.608 237.95L317.176 239.826V243.11L308.263 246.394C307.011 245.612 304.414 243.954 304.039 243.579Z" fill="#6AD79B"/>
<path d="M314.829 236.542C308.825 235.416 305.134 237.95 304.04 239.357C303.289 241.233 304.665 241.39 305.447 241.233C307.793 240.451 313.234 239.451 316.237 241.702C314.735 244.705 307.167 244.204 303.571 243.579C302.632 243.579 300.756 243.86 300.756 244.986C301.225 246.394 308.262 249.208 313.891 248.27C319.52 247.332 320.459 243.11 320.459 242.641C320.459 242.172 321.866 238.419 314.829 236.542Z" fill="#061A2E"/>
</svg>
