<svg width="383" height="369" viewBox="0 0 383 369" fill="none" xmlns="http://www.w3.org/2000/svg">
<path d="M295.18 29.8528L326.18 33.3528L310.68 61.3528L308.68 53.3528L296.18 38.3528L295.18 29.8528Z" fill="#FEFDFF" stroke="black"/>
<path d="M288.18 106.353L262.18 110.353L242.18 138.353V185.853L288.18 106.353Z" fill="#1D9DC3"/>
<g filter="url(#filter0_i_174_2096)">
<path d="M320.799 42.0545C318.279 37.506 316.282 36.7794 312.042 38.8685L301.354 56.7694L311.033 60.2908L320.799 42.0545Z" fill="#84BAD1"/>
</g>
<path d="M8.18219 312.353C5.34886 310.853 1.98219 307.453 11.1822 305.853C9.84802 303.186 8.97969 297.653 16.1797 296.853C17.3797 290.853 23.3464 294.353 26.1797 296.853C26.513 293.019 28.5797 286.653 34.1797 291.853C39.6797 283.853 43.6797 285.853 45.6797 290.853C51.1797 282.353 54.6811 283.853 56.1804 285.853C57.6797 287.853 82.1797 283.853 93.1797 278.853C94.3464 277.186 97.1797 274.153 99.1797 275.353C101.68 276.853 101.18 279.853 103.18 278.853C105.18 277.853 107.18 272.353 109.68 274.853C112.18 277.353 112.68 278.353 114.68 277.853C116.68 277.353 118.18 271.853 121.68 274.853C124.48 277.253 126.846 276.186 127.68 275.353C128.68 273.353 131.68 269.953 135.68 272.353C140.68 275.353 139.68 275.853 142.18 276.353C144.18 276.753 145.68 274.519 146.18 273.353C147.346 271.686 150.48 269.653 153.68 274.853C154.68 276.853 158.18 273.853 158.18 272.853L336.18 285.853C337.847 286.686 340.18 287.353 342.18 287.353C344.68 287.353 345.68 280.853 351.68 283.353C352.48 286.553 348.18 289.853 350.18 290.353C353.18 291.103 363.18 284.853 356.18 294.353C359.68 296.353 360.739 294.838 362.68 294.353C364.679 293.853 367.68 291.353 370.68 292.353C373.68 293.353 369.18 298.353 368.18 301.353C367.18 304.353 373.18 299.353 378.18 299.353C380.68 299.353 376.68 303.853 373.18 306.853C375.18 307.519 379.48 309.153 380.68 310.353C381.88 311.553 377.18 313.519 374.68 314.353C376.68 314.686 380.68 315.653 380.68 316.853C380.68 318.053 378.014 319.353 376.68 319.853C378.347 320.353 381.48 321.553 380.68 322.353C379.68 323.353 372.68 323.853 370.68 325.353C371.48 326.953 373.014 329.686 373.68 330.853C372.18 332.186 367.78 334.453 362.18 332.853C363.78 337.653 356.514 337.186 352.68 336.353C354.68 340.019 355.28 346.053 341.68 340.853C343.68 347.353 341.18 349.353 330.68 345.853C330.68 349.853 325.68 347.853 323.18 346.353C323.514 349.019 322.08 353.653 313.68 350.853C311.68 355.853 301.68 353.853 298.68 352.353C299.08 356.353 293.18 355.019 290.18 353.853C286.514 355.686 277.88 358.353 272.68 354.353C269.18 362.853 267.68 360.853 260.68 355.353C256.68 364.353 253.18 360.853 250.18 358.853C245.78 365.653 239.347 363.019 236.68 360.853C232.68 363.353 223.68 366.853 219.68 360.853C214.88 366.453 208.68 362.853 206.18 360.353C203.014 363.853 194.98 369.053 188.18 361.853C180.58 371.453 169.014 365.186 164.18 360.853C160.847 364.519 152.78 369.653 147.18 360.853C140.38 365.253 136.014 361.353 134.68 358.853C130.68 361.186 121.38 364.053 116.18 356.853C105.78 367.253 100.514 361.186 99.1804 356.853C95.347 358.853 87.4804 361.053 86.6804 353.853C79.8804 358.653 75.5137 355.853 74.1804 353.853C70.0137 357.019 60.5804 360.553 56.1804 349.353C42.9804 355.353 41.347 348.519 42.1804 344.353C36.5137 347.686 25.7804 351.553 28.1804 340.353C9.68037 344.353 10.1804 338.853 13.1804 334.853C-1.2283 335.813 6.51144 326.624 8.02878 326.341C1.15153 325.801 -0.760723 322.338 7.18055 320.353C-0.0194511 317.953 4.84831 314.019 8.18219 312.353Z" fill="#68D798" stroke="black" stroke-width="3"/>
<path d="M78.6797 301.853L184.18 277.853C231.18 281.853 327.18 290.053 335.18 290.853C342.38 291.653 342.513 293.186 341.68 293.853C339.513 294.686 335.58 297.453 337.18 301.853C303.58 301.853 216.846 325.186 177.68 336.853C168.18 337.019 148.78 337.253 147.18 336.853C145.58 336.453 91.1797 322.686 64.1797 315.853L78.6797 301.853Z" fill="#1EB2D0"/>
<path d="M294.179 304.853C292.979 305.253 292.012 307.353 291.679 308.353C290.679 310.853 292.473 310.853 293.179 310.853C293.68 310.853 296.179 307.353 296.179 306.853C296.179 306.353 295.679 304.353 294.179 304.853Z" fill="black" stroke="black"/>
<path d="M289.179 305.353C288.679 304.353 286.179 303.853 286.679 306.853C287.079 307.653 287.512 309.853 287.679 310.853C288.445 314.247 289.679 306.353 289.179 305.353Z" fill="#000009" stroke="black"/>
<path d="M300.823 322.77C300.18 323.643 300.18 324.353 300.18 324.853C301.094 327.906 303.68 326.643 303.68 323.724C303.108 321.816 302.18 321.143 300.823 322.77Z" fill="black"/>
<path d="M215.68 333.853C214.88 335.853 216.347 342.686 217.18 345.853C217.354 346.529 219.18 346.353 219.68 344.853C220.18 341.853 225.68 337.853 226.18 337.353C226.68 336.853 226.68 334.353 223.68 334.353C222.48 334.353 220.18 337.686 219.18 339.353L218.68 334.853C217.68 333.353 216.68 331.853 215.68 333.853Z" fill="#020012"/>
<path d="M355.678 285.353C353.678 285.353 350.845 288.353 349.678 289.853C348.178 292.853 352.178 291.353 352.678 291.353C353.078 291.353 355.845 288.686 357.178 287.353C357.512 286.853 357.678 285.753 355.678 285.353Z" fill="#01010F"/>
<path d="M338.68 297.353C337.88 297.753 337.68 300.186 337.68 301.353C339.68 304.353 340.68 298.853 340.68 298.353C340.68 297.853 340.68 296.853 338.68 297.353Z" fill="#01010E" stroke="black"/>
<path d="M343.178 298.353C343.812 297.718 345.678 297.353 346.178 299.353C346.178 301.753 344.178 302.353 343.178 302.353C341.178 301.353 342.68 298.853 343.178 298.353Z" fill="#00000E" stroke="black"/>
<path d="M360.18 314.853C358.18 315.253 356.013 319.686 355.18 321.853C355.18 326.353 358.68 323.353 358.68 322.353C358.68 321.553 361.346 318.019 362.68 316.353C362.68 315.686 362.18 314.453 360.18 314.853Z" fill="#020012" stroke="black"/>
<path d="M354.68 309.853C351.08 312.653 350.847 319.353 351.18 322.353C352.68 325.353 353.68 321.353 353.68 319.853C353.68 318.653 355.346 315.019 356.18 313.353C356.68 312.186 357.08 309.853 354.68 309.853Z" fill="#020012" stroke="black"/>
<path d="M226.18 338.853C225.38 338.853 223.513 341.519 222.68 342.853C222.18 347.353 227.18 343.353 228.18 341.353C229.18 339.353 227.18 338.853 226.18 338.853Z" fill="#020012" stroke="black"/>
<path d="M279.68 327.353C279.28 327.753 278.18 329.186 277.68 329.853C277.18 332.353 281.18 329.853 281.18 328.853C281.18 327.853 280.18 326.853 279.68 327.353Z" fill="#000319" stroke="black"/>
<path d="M315.181 310.853C314.848 315.519 313.881 324.353 312.681 322.353C311.481 319.953 313.848 313.686 315.181 310.853Z" fill="#E5FFFC"/>
<path d="M316.68 303.853C313.48 305.453 310.68 316.186 309.68 321.353C310.013 322.519 311.08 324.353 312.68 322.353C312.68 320.353 313.68 313.853 315.68 310.353C316.88 310.353 316.18 317.686 315.68 321.353C316.18 322.686 317.38 324.753 318.18 322.353C317.78 319.953 321.013 315.353 322.68 313.353C322.68 313.686 322.28 315.453 320.68 319.853C319.48 323.053 321.18 324.519 322.18 324.853C323.013 323.519 325.48 320.253 328.68 317.853C330.68 316.853 329.68 314.853 328.18 314.353C326.98 313.953 325.68 315.186 325.18 315.853C326.513 313.353 328.48 308.153 325.68 307.353C323.28 307.753 320.346 311.519 319.18 313.353L320.18 306.853C320.513 305.353 320.28 302.653 316.68 303.853Z" fill="black"/>
<path d="M284.679 330.853C284.279 331.653 282.846 332.186 282.179 332.353C279.679 332.853 282.179 329.353 283.179 328.853C284.179 328.353 285.179 329.853 284.679 330.853Z" fill="#000319" stroke="black"/>
<path d="M313.179 340.353C312.379 340.353 311.179 342.019 310.679 342.853C310.179 343.853 311.679 345.353 312.179 345.353C312.679 345.353 314.179 343.853 314.679 342.353C315.179 340.853 314.179 340.353 313.179 340.353Z" fill="#000319" stroke="black"/>
<path d="M305.679 334.353C305.179 333.853 302.179 334.353 303.179 336.853C303.958 337.631 306.18 344.853 306.61 344.66C312.18 348.353 306.179 334.853 305.679 334.353Z" fill="#000319"/>
<path d="M306.679 344.853C306.657 344.79 306.634 344.726 306.61 344.66M306.61 344.66C306.18 344.853 303.958 337.631 303.179 336.853C302.179 334.353 305.179 333.853 305.679 334.353C306.179 334.853 312.18 348.353 306.61 344.66Z" stroke="black"/>
<path d="M140.18 280.853C138.18 281.653 137.346 285.519 137.18 287.353C137.68 291.353 142.18 284.853 142.68 283.853C143.18 282.853 142.68 280.353 140.18 280.853Z" fill="#01010E" stroke="black"/>
<path d="M131.18 283.853C131.18 284.653 132.513 287.186 133.18 288.353C135.18 290.353 135.68 284.853 134.18 282.353C133.18 281.853 131.68 282.353 131.18 283.853Z" fill="#01010E" stroke="black"/>
<path d="M125.179 286.353C126.18 287.353 127.18 289.353 128.179 289.853C132.179 289.853 129.513 285.853 127.679 283.853C126.179 283.353 124.179 284.353 125.179 286.353Z" fill="#01010E"/>
<path d="M209.178 339.853C209.578 341.453 211.68 344.853 213.678 346.353C216.18 346.853 215.178 342.853 213.178 338.853C211.178 334.853 208.678 337.853 209.178 339.853Z" fill="#020012"/>
<path d="M196.681 333.353C196.181 334.353 198.181 336.853 198.681 337.353C201.683 338.353 200.18 333.353 199.18 332.853C198.18 332.353 197.181 332.353 196.681 333.353Z" fill="#000017"/>
<path d="M193.18 344.353V346.853C193.58 349.253 195.346 349.853 196.18 349.853C196.68 348.686 197.48 345.853 196.68 343.853C193.88 340.653 193.18 342.853 193.18 344.353Z" fill="#000017"/>
<path d="M188.679 344.853C184.279 342.053 184.512 344.686 185.179 346.353L186.68 348.353L189.179 350.853C191.177 352.353 192.179 347.853 188.679 344.853Z" fill="#000017"/>
<path d="M138.18 341.853C138.18 342.253 140.846 344.686 142.18 345.853C145.18 347.853 144.903 344.8 144.68 344.353C144.18 343.353 141.68 340.853 140.68 340.353C139.68 339.853 138.18 340.353 138.18 341.853Z" fill="#00000C" stroke="black"/>
<path d="M130.426 346.487L130.964 349.661C131.502 352.835 134.525 349.602 133.23 345.468C131.554 344.01 130.663 345.54 130.426 346.487Z" fill="#00000C" stroke="black"/>
<path d="M126.681 347.853C126.281 348.653 127.848 350.519 128.681 351.353C129.683 352.353 129.18 348.853 128.68 347.353C128.18 345.853 127.181 346.853 126.681 347.853Z" fill="#00000A" stroke="black"/>
<path d="M80.1797 327.853C78.1797 325.353 76.1793 328.353 76.6793 330.853C77.4138 334.526 77.6793 336.353 77.6793 338.353C77.6793 340.853 80.68 340.353 81.18 339.853C81.68 339.353 82.1797 332.353 80.1797 327.853Z" fill="#030110"/>
<path d="M71.6797 332.223L75.6797 337.723C76.4797 341.323 75.013 341.556 74.1797 341.223C72.8464 340.223 67.6797 336.723 67.6797 334.223C67.6797 329.423 70.1797 330.723 71.6797 332.223Z" fill="#030110"/>
<path d="M20.7773 310.528L23.2773 312.528C24.7773 313.528 25.7773 309.528 22.7773 308.028C18.3773 307.228 19.6107 309.361 20.7773 310.528Z" fill="#000216"/>
<path d="M36.6791 317.853L32.9978 312.791C32.7891 312.504 32.6532 312.163 32.6431 311.808C32.5236 307.588 36.7565 310.546 38.6791 315.353C39.0791 318.153 37.6797 318.853 36.6791 317.853Z" fill="#000216"/>
<path d="M58.6814 325.853C57.6797 322.353 55.6814 324.186 55.1814 325.853C54.9571 326.591 54.6663 329.823 55.1833 331.853C55.8156 334.335 57.5849 335.508 58.6814 331.853C58.8481 331.186 59.1797 329.353 58.6814 325.853Z" fill="#020114"/>
<path d="M26.1797 324.781C27.7797 327.181 27.1797 329.781 26.1797 329.781C23.6797 329.281 18.6797 325.981 18.6797 322.781C19.6797 318.781 24.1797 321.781 26.1797 324.781Z" fill="#000216"/>
<path d="M51.1806 335.853C50.1806 335.853 48.1806 331.019 46.6806 328.853C46.0139 327.853 45.3806 325.853 48.1806 325.853C51.3806 326.253 53.1806 331.686 53.6806 334.353C53.6806 334.853 52.6806 336.853 51.1806 335.853Z" fill="#020114"/>
<path d="M31.6814 328.853C32.5982 327.936 33.1797 317.853 28.6799 321.353C28.1797 326.353 30.1814 330.353 31.6814 328.853Z" fill="#020210"/>
<path d="M84.6797 333.353C83.0797 333.353 82.6797 337.353 82.6797 339.353C83.4797 342.553 85.3464 338.686 86.1797 336.353C86.513 335.519 86.6797 333.753 84.6797 333.353Z" fill="#010010"/>
<path d="M242.679 342.353C242.279 339.953 253.179 328.353 258.679 322.853C259.179 322.353 260.28 321.753 260.68 323.353C258.68 324.553 252.513 334.186 249.68 338.853C249.346 340.019 247.98 343.153 245.18 346.353C242.18 345.853 243.179 345.353 242.679 342.353Z" fill="#FFFFFD"/>
<path d="M254.18 345.853C254.18 345.453 260.846 339.686 264.18 336.853C263.68 338.353 256.18 346.353 255.68 346.853C255.18 347.353 254.18 346.353 254.18 345.853Z" fill="#FFFFFD"/>
<path d="M261.18 318.353C246.38 325.153 241.68 338.853 241.18 344.853C241.68 345.853 243.08 347.153 244.68 344.353C246.18 341.853 248.68 330.853 262.18 321.853C260.18 324.853 252.18 342.853 252.18 343.353C252.18 343.853 250.68 349.353 253.68 347.853C258.08 340.253 264.513 336.019 267.18 334.853C267.013 335.186 265.78 337.153 262.18 342.353C260.68 346.353 262.68 347.353 263.68 346.853C264.68 346.353 265.68 344.353 269.68 343.853C272.68 343.853 272.68 341.853 272.18 340.853C271.78 340.053 269.013 340.186 267.68 340.353C270.18 338.186 274.48 333.253 271.68 330.853C266.88 330.453 261.013 334.686 258.68 336.853C261.18 332.186 266.28 322.653 266.68 321.853C267.18 320.853 266.68 316.853 261.18 318.353Z" fill="#000319" stroke="black"/>
<path d="M97.6816 333.853C101.182 338.353 102.348 342.019 103.182 344.853C103.681 345.686 104.88 346.753 105.68 344.353C106.68 340.353 101.682 332.353 101.182 331.853C100.682 331.353 97.1816 329.853 97.6816 333.853Z" fill="#020210"/>
<path d="M108.178 343.353C108.978 335.353 103.845 330.019 101.178 328.353C99.1781 326.353 102.678 324.853 105.678 327.353C108.078 329.353 109.678 332.853 110.178 334.353C110.678 332.519 112.278 328.053 114.678 324.853C116.278 321.653 117.678 323.519 118.178 324.853C118.845 327.853 119.878 336.053 118.678 344.853C116.678 348.053 115.845 346.186 115.678 344.853C115.845 341.019 115.878 333.153 114.678 332.353C113.678 331.853 111.178 342.353 110.678 343.853C110.178 345.353 108.178 345.853 108.178 343.353Z" fill="#01010E"/>
<path d="M90.783 345.763C90.2541 346.735 91.8848 348.596 92.7662 349.406C95.4105 351.227 94.7495 346.977 94.0884 345.763C93.4273 344.549 91.444 344.549 90.783 345.763Z" fill="#01010E"/>
<path d="M88.1792 296.353C88.1792 295.553 86.8459 294.019 86.1792 293.353C85.6792 293.353 85.6792 290.353 88.1792 290.353C90.1792 291.553 91.0126 294.853 91.1792 296.353C91.1792 296.853 88.6792 297.853 88.1792 296.353Z" fill="#01010E" stroke="black"/>
<path d="M91.6797 289.853C91.6797 291.053 92.6797 294.019 93.1797 295.353C95.6797 298.853 96.1797 291.853 95.1797 289.853C94.6797 288.853 92.6797 287.353 91.6797 289.853Z" fill="#01010E" stroke="black"/>
<path d="M294.68 340.853C295.8 342.533 299.68 345.019 301.18 346.853C302.18 347.353 303.68 346.353 303.68 344.853C303.68 343.653 300.013 340.353 298.18 338.853C295.18 337.353 293.68 339.353 294.68 340.853Z" fill="#000319" stroke="black"/>
<path d="M344.181 317.853C344.581 318.653 346.348 321.519 347.181 322.853C350.181 325.353 349.681 319.353 347.681 315.353C344.681 312.853 343.681 316.853 344.181 317.853Z" fill="#020012" stroke="black"/>
<path d="M267.688 303.802C267.957 301.549 268.443 299.239 268.443 297" stroke="#01010F" stroke-width="3" stroke-linecap="round"/>
<path d="M263.91 305.062C263.084 305.062 263.001 303.711 262.916 303.032C262.688 301.207 262.258 299.885 261.391 298.26" stroke="#01010F" stroke-width="3" stroke-linecap="round"/>
<path d="M258.87 308.588C257.436 308.588 257.6 308.685 258.618 309.596C259.42 310.313 259.626 310.089 259.626 309.092C259.626 308.136 259.735 307.581 258.618 307.581C257.502 307.581 258.442 309.068 258.618 309.596" stroke="#01010F" stroke-width="3" stroke-linecap="round"/>
<path d="M244.008 299.016C244.008 296.709 246.103 295.076 247.031 293.221" stroke="#01010F" stroke-width="3" stroke-linecap="round"/>
<path d="M240.481 298.512C240.481 296.727 240.382 294.209 241.111 292.606C241.505 291.738 241.993 290.129 241.993 289.191" stroke="#01010F" stroke-width="3" stroke-linecap="round"/>
<path d="M236.451 299.771C236.451 297.414 234.556 295.174 234.197 292.844C234.099 292.206 233.57 291.908 233.442 291.332C233.334 290.85 233.651 290.184 233.176 289.947" stroke="#01010F" stroke-width="3" stroke-linecap="round"/>
<path d="M219.57 304.81C219.57 303.87 220.326 303.231 220.326 302.291" stroke="#01010F" stroke-width="3" stroke-linecap="round"/>
<path d="M215.793 304.558C215.793 303.691 216.178 302.529 216.549 301.787" stroke="#01010F" stroke-width="3" stroke-linecap="round"/>
<path d="M213.523 297.252C214.523 297.141 215.885 295.047 216.295 294.229" stroke="#01010F" stroke-width="3" stroke-linecap="round"/>
<path d="M209.996 297.252C209.996 295.415 209.978 293.762 210.752 292.214" stroke="#01010F" stroke-width="3" stroke-linecap="round"/>
<path d="M210.501 315.894C209.861 315.734 210.249 311.918 210.249 311.108" stroke="#01010F" stroke-width="3" stroke-linecap="round"/>
<path d="M206.722 316.902C204.757 316.902 203.709 313.153 203.195 311.611" stroke="#01010F" stroke-width="3" stroke-linecap="round"/>
<path d="M147.523 306.573C148.583 306.308 148.832 302.797 149.539 301.913C150.115 301.192 150.052 299.852 151.05 299.519" stroke="#01010F" stroke-width="3" stroke-linecap="round"/>
<path d="M144.5 307.077C142.951 307.077 143.24 304.18 143.24 302.92C143.24 301.619 143.24 300.317 143.24 299.016" stroke="#01010F" stroke-width="3" stroke-linecap="round"/>
<path d="M140.218 309.092C140.218 307.004 139.034 305.902 138.077 304.18C137.574 303.274 136.493 303.46 136.188 302.542" stroke="#01010F" stroke-width="3" stroke-linecap="round"/>
<path d="M123.59 302.039V304.306" stroke="#01010F" stroke-width="3" stroke-linecap="round"/>
<path d="M120.314 305.062C120.26 304.573 119.41 303.224 119.055 303.046" stroke="#01010F" stroke-width="3" stroke-linecap="round"/>
<path d="M107.215 303.046V304.306" stroke="#01010F" stroke-width="3" stroke-linecap="round"/>
<path d="M104.193 304.558C104.193 304.052 104.396 303.021 103.941 302.794" stroke="#01010F" stroke-width="3" stroke-linecap="round"/>
<path d="M156.589 295.489C155.478 295.35 154.906 293.387 154.07 292.97" stroke="#01010F" stroke-width="3" stroke-linecap="round"/>
<path d="M161.126 295.489C161.126 294.815 160.396 294.623 160.37 293.921C160.349 293.362 160.443 292.763 160.314 292.214C160.095 291.283 160.118 290.402 160.118 289.443" stroke="#01010F" stroke-width="3" stroke-linecap="round"/>
<path d="M164.652 294.733C164.652 292.958 165.156 291.439 165.156 289.695" stroke="#01010F" stroke-width="3" stroke-linecap="round"/>
<path d="M172.715 283.397V285.412" stroke="#01010F" stroke-width="3" stroke-linecap="round"/>
<path d="M175.484 285.664C176.148 285.581 177.5 283.572 177.5 282.893" stroke="#01010F" stroke-width="3" stroke-linecap="round"/>
<path d="M296.68 322.353V324.853C297.18 326.853 299.68 326.353 299.18 322.353C297.98 319.953 297.013 321.353 296.68 322.353Z" fill="black" stroke="black"/>
<path d="M229.18 322.853L232.18 312.853L239.68 316.353C239.846 317.353 240.08 319.653 239.68 320.853C239.18 322.353 233.18 321.853 232.18 322.853C231.38 323.653 229.846 323.186 229.18 322.853Z" fill="#FFFFFD"/>
<path d="M235.68 309.353C230.08 308.953 227.346 318.853 226.68 323.853C226.846 325.019 227.78 326.253 230.18 321.853C230.98 316.653 232.846 314.686 233.68 314.353C233.346 316.186 232.48 320.353 231.68 322.353C230.88 324.353 232.68 324.853 233.68 324.853C234.346 322.353 236.58 317.353 240.18 317.353C238.68 317.853 236.68 326.853 238.68 326.853C240.68 326.853 242.18 319.353 243.18 318.353C244.18 317.353 246.68 312.853 244.18 312.353C242.18 311.953 238.346 314.519 236.68 315.853C237.18 314.186 237.68 310.553 235.68 309.353Z" fill="#000319" stroke="black"/>
<path d="M65.6797 256.353L74.6797 258.353L161.68 273.853C162.513 273.853 163.48 272.453 160.68 266.853C157.88 261.253 163.513 255.186 166.68 252.853L81.1797 234.853L68.6797 233.853C49.8797 237.453 56.6801 254.353 65.6797 256.353Z" fill="#00000C" stroke="black"/>
<path d="M65.1805 237.853H69.1805C67.6809 238.853 64.6797 244.353 66.1805 251.853C58.6805 249.353 62.6824 239.353 65.1805 237.853Z" fill="#FDFFFF"/>
<path d="M62.1818 242.853C60.6797 248.853 64.5137 252.019 66.1803 251.853C65.6803 249.853 66.3456 243.853 66.6797 241.853C64.6797 242.353 63.1797 242.853 62.1818 242.853Z" fill="#D3A086"/>
<path d="M71.1794 252.853C65.9794 243.653 71.6794 239.353 75.1794 238.353L83.1797 239.853L113.18 241.353L122.18 242.853L166.18 247.353C165.18 249.186 162.68 253.353 160.68 255.353C158.68 257.353 158.18 265.519 158.18 269.353C133.013 264.519 80.3794 254.453 71.1794 252.853Z" fill="#FFFFFD" stroke="black"/>
<path d="M157.679 262.353C153.279 262.753 97.3467 250.686 69.68 244.853C69.1797 247.353 70.1786 251.519 71.1786 252.853C100.012 258.353 157.879 269.453 158.679 269.853C159.679 270.353 156.179 266.853 157.679 262.353Z" fill="#8CB8D0"/>
<path d="M214.178 279.853L284.178 289.353L333.68 293.353C342.68 274.853 327.68 272.853 325.18 272.853L258.18 262.853C234.846 259.519 184.18 252.753 168.18 252.353C162.98 251.153 159.345 257.186 158.178 260.353C156.678 264.019 155.978 272.053 165.178 274.853C173.68 277.353 175.18 276.353 177.178 274.853L184.678 276.353L214.178 279.853Z" fill="#00000E"/>
<path d="M162.179 261.853C160.979 269.453 165.013 271.02 167.179 270.853C202.779 270.853 280.68 283.186 315.18 289.353C318.513 289.686 328.18 290.853 330.68 289.853C334.68 284.353 333.18 280.353 328.68 277.353C312.68 275.186 280.58 270.853 280.18 270.853C279.78 270.853 224.346 262.853 196.68 258.853C190.346 257.853 176.68 255.753 172.68 255.353C167.68 254.853 165.679 254.853 162.179 261.853Z" fill="#FFFFFD"/>
<path d="M162.18 262.353C160.98 268.353 163.681 270.853 167.18 270.853H171.68L188.18 271.853L217.18 275.353L283.68 284.353L306.68 287.853L310.18 288.353L315.18 289.353C320.18 290.353 328.18 290.353 330.68 290.353C334.18 283.853 333.18 281.853 331.18 279.353L280.18 272.353L224.68 264.353L195.68 260.353C191.847 259.853 182.58 258.653 176.18 257.853C171.38 256.653 168.18 260.353 167.18 262.353H162.18Z" fill="#DAA186"/>
<path d="M346.18 45.3527L322.68 88.8527L278.68 169.853L262.68 198.353L211.18 281.353C202.013 296.019 182.28 327.653 176.68 336.853C173.18 336.853 166.68 340.853 162.18 346.853C160.98 346.053 161.68 343.186 162.18 341.853C163.68 340.186 166.38 336.553 165.18 335.353C162.68 335.853 159.18 340.353 156.68 345.353C155.88 345.753 154.68 345.186 154.18 344.853L147.18 336.853L156.68 321.353L183.68 278.853L195.18 260.853L219.18 222.853L242.68 183.853L284.68 109.353L310.68 60.8528L328.68 28.8527C343.48 18.0527 352.68 35.8528 346.18 45.3527Z" fill="#00000C"/>
<path d="M338.68 33.8528L335.68 39.3528L301.18 104.353L257.18 182.853L235.18 220.353L163.18 334.353C163.346 334.519 163.88 334.553 164.68 333.353C167.68 332.853 169.18 334.853 167.68 336.853C169.28 337.653 171.346 335.853 172.18 334.853L179.18 324.353L252.68 206.353L275.18 166.353L302.68 116.353C313.68 96.1861 336.98 53.2528 342.18 42.8528C345.78 32.8528 341.346 32.6861 338.68 33.8528Z" fill="#D09C80"/>
<path d="M331.18 32.3528C332.78 29.5528 336.513 29.8528 338.18 30.3528C336.98 31.1528 334.68 34.6861 333.68 36.3528L290.68 115.853L263.68 165.353L257.68 176.353L242.18 202.353L222.18 234.853L200.68 268.853L174.68 309.853L154.18 344.353L150.18 340.353L160.18 323.853L219.18 231.353L242.18 192.853L285.18 116.853L308.68 73.8528C315.513 61.1861 329.58 35.1528 331.18 32.3528Z" fill="#FEFDFF"/>
<path d="M210.995 269.3C209.774 271.216 208.089 272.326 207.232 271.78C206.374 271.233 206.669 269.237 207.891 267.322C209.112 265.406 210.797 264.296 211.654 264.842C212.511 265.389 212.216 267.385 210.995 269.3Z" fill="#000013"/>
<path d="M210.995 269.3C209.774 271.216 208.089 272.326 207.232 271.78C206.374 271.233 206.669 269.237 207.891 267.322C209.112 265.406 210.797 264.296 211.654 264.842C212.511 265.389 212.216 267.385 210.995 269.3Z" fill="#000013"/>
<path d="M342.205 39.8501C341.944 41.1358 340.994 42.0282 340.083 41.8434C339.173 41.6585 338.646 40.4664 338.907 39.1807C339.167 37.895 340.117 37.0026 341.028 37.1874C341.939 37.3723 342.466 38.5644 342.205 39.8501Z" fill="#000013"/>
<path d="M342.205 39.8501C341.944 41.1358 340.994 42.0282 340.083 41.8434C339.173 41.6585 338.646 40.4664 338.907 39.1807C339.167 37.895 340.117 37.0026 341.028 37.1874C341.939 37.3723 342.466 38.5644 342.205 39.8501Z" fill="#000013"/>
<path d="M288.68 24.3528L328.68 28.8528L326.18 33.3528L294.68 29.8528L288.68 24.3528Z" fill="#00000C"/>
<path d="M257.68 171.853C256.88 173.453 257.347 178.519 257.68 180.853C265.013 210.019 280.18 270.553 282.18 279.353C284.98 287.753 284.168 290.508 289.68 293.353C294.724 295.956 300.015 296.209 304.18 292.353C309.051 287.842 305.513 278.853 304.18 275.353C296.846 244.686 278.68 168.353 277.18 168.353C265.18 160.353 258.68 169.853 257.68 171.853Z" fill="#020011"/>
<path d="M261.68 173.853C262.48 167.853 268.013 167.686 270.68 168.353C267.08 171.953 266.513 175.186 266.68 176.353C275.18 211.519 292.38 283.053 293.18 287.853C290.38 287.453 288.68 285.019 288.18 283.853C279.346 248.853 261.68 177.853 261.68 173.853Z" fill="#FFFDFE"/>
<path d="M266.68 176.353C265.88 175.153 262.846 175.019 261.68 174.853C262.18 177.853 263.18 182.353 263.68 183.853C264.88 184.653 267.18 190.186 268.18 192.853L275.18 222.853C278.18 234.853 284.48 260.353 285.68 266.353C286.88 272.353 286.18 274.186 285.68 273.853L288.18 284.353L290.18 286.853L293.18 288.353L291.68 279.853L286.68 258.853L281.18 236.353L276.18 214.353C273.68 202.186 267.48 177.553 266.68 176.353Z" fill="#DBA284"/>
<path d="M269.68 173.853L270.18 178.353L278.18 209.853L284.68 237.353L290.18 258.353C291.18 262.853 293.68 274.153 295.68 283.353C300.08 289.753 301.846 285.353 302.18 282.353L300.18 275.353L294.18 253.353L287.68 227.853C284.013 212.186 276.68 179.353 275.18 173.353C273.18 168.853 269.68 171.353 269.68 173.853Z" fill="#DBA287"/>
<ellipse cx="273.11" cy="176.526" rx="1.93021" ry="2.5" transform="rotate(-12.6281 273.11 176.526)" fill="#0A0002"/>
<ellipse cx="298.11" cy="278.714" rx="1.93021" ry="2.5" transform="rotate(-12.6281 298.11 278.714)" fill="#0A0002"/>
<path d="M75.1807 300.853L157.181 321.853L160.18 322.853L149.18 340.853C149.18 342.519 148.88 345.753 147.68 345.353C146.18 344.853 144.68 341.853 143.18 338.353C140.38 333.953 143.68 334.853 145.68 335.853L146.68 337.353L149.18 333.853L68.1797 312.353L64.1797 315.853C62.8464 316.353 59.3797 317.353 56.1797 317.353C53.1797 318.853 53.6797 317.353 54.6797 314.353C55.4797 311.953 54.3464 311.353 53.6797 311.353C52.6797 312.019 50.6797 314.153 50.6797 317.353C47.8797 319.753 47.1797 316.353 47.1797 314.353C46.6797 312.353 45.4797 308.753 44.6797 310.353C43.6797 312.353 42.1807 316.353 42.1807 315.853C42.1807 315.353 41.1797 312.853 39.1807 308.353C35.9807 303.953 39.8473 304.853 42.1807 305.853L74.1807 258.353L100.181 262.853L75.1807 300.853Z" fill="#00000C"/>
<path d="M79.6797 266.353L76.1797 263.353C67.013 276.853 47.7797 305.153 44.1797 310.353C45.3797 311.153 47.013 314.353 47.6797 315.853L79.6797 266.353Z" fill="#D9D9D9"/>
<path d="M57.6797 305.353L60.6797 301.353L109.18 313.853L153.68 325.853L151.68 329.353L57.6797 305.353Z" fill="#D9D9D9"/>
<path d="M88.1797 272.853L81.6797 268.353L62.1797 297.853L70.6797 299.853L88.1797 272.853Z" fill="#D3A086"/>
<path d="M155.182 254.353C155.582 254.753 159.349 255.186 161.182 255.353L166.68 254.353L200.68 256.353L243.18 184.353C245.18 176.853 248.18 157.353 244.18 139.353C253.78 133.753 261.18 118.353 263.68 111.353C266.013 112.019 271.68 112.253 275.68 107.853C278.88 110.653 284.013 109.019 286.18 107.853C294.013 94.0194 309.88 65.2528 310.68 60.8528C312.68 51.3528 302.68 39.8528 297.68 36.8528C298.18 33.3528 298.18 31.3528 288.68 24.3528C280.68 19.1528 266.346 19.8528 260.18 20.8528C254.013 19.6861 236.08 17.0528 213.68 15.8528C210.18 9.85278 200.68 7.85278 194.18 14.8528C183.68 1.85278 167.18 -1.14722 154.68 0.352784C144.68 1.55278 143.18 7.85278 143.68 10.8528C141.346 10.8528 134.98 12.4528 128.18 18.8528C119.68 26.8528 121.68 36.8528 128.18 36.3528C116.18 52.3528 121.18 67.3528 130.68 67.8528C131.18 68.8528 130.68 79.3528 140.18 83.3528C133.78 104.553 140.846 121.853 145.18 127.853C143.013 131.019 137.88 139.453 134.68 147.853C118.68 148.653 111.346 145.519 109.68 143.853C119.28 136.653 119.18 129.353 118.18 121.853C116.846 118.686 114.38 111.453 115.18 107.853C132.78 113.453 135.513 104.186 134.68 98.8528C135.013 95.8528 133.08 88.3528 122.68 82.3528C112.28 77.1528 103.68 82.5194 100.68 85.8528C100.346 86.8528 100.18 89.9528 102.18 94.3528C89.3797 92.7528 76.848 94.0195 72.1822 94.8528L66.1797 76.3528C61.6801 74.8528 49.581 70.9528 37.181 67.3528C31.981 70.1528 32.3477 75.1861 33.181 77.3528L57.681 84.8528L61.181 96.3528C59.5143 96.1861 56.281 97.1528 56.681 102.353C59.881 107.153 59.3472 112.019 58.6803 113.853C54.8469 119.686 51.6803 134.453 69.6803 146.853C61.2803 157.653 67.8482 169.019 72.1822 173.353C70.5149 173.353 66.7803 174.453 65.1803 178.853C75.1803 192.053 97.0136 186.686 106.68 182.353C108.347 183.686 113.18 186.353 119.18 186.353C118.78 187.153 117.014 191.353 116.18 193.353C113.514 193.686 107.08 195.253 102.68 198.853C96.6803 192.353 90.6803 189.853 83.6822 194.353C79.1841 194.853 71.1822 195.853 70.1822 206.853C62.1822 214.053 68.1822 220.186 72.1822 222.353C72.5155 224.353 75.2822 230.653 83.6822 239.853C93.2822 249.853 107.349 245.353 113.182 241.853C114.349 242.353 117.682 243.253 121.682 242.853C131.182 264.353 154.682 253.853 155.182 254.353Z" fill="#00000C"/>
<path d="M162.18 161.853C163.38 158.253 166.346 157.686 167.68 157.853C168.591 157.853 169.68 158.353 168.68 160.353C167.48 160.753 165.18 162.853 164.18 163.853C163.513 164.019 162.18 163.853 162.18 161.853Z" fill="#01000B"/>
<path d="M203.181 248.353C197.681 250.519 181.081 254.153 158.681 251.353C158.681 250.853 158.881 249.353 159.68 247.353C159.68 245.753 158.013 246.019 157.18 246.353C149.68 252.853 137.18 252.853 130.181 247.353C124.181 237.353 123.681 221.353 128.181 214.353C129.181 215.353 131.181 216.353 134.181 215.353C136.181 218.353 139.681 219.853 145.181 221.353C150.681 221.353 151.013 216.625 148.181 212.853C146.68 210.853 143.18 210.353 140.681 210.853C140.681 210.686 140.18 210.353 140.681 209.353C142.181 208.353 145.68 203.853 153.18 209.353C159.68 215.853 158.681 228.353 158.681 228.853C158.681 229.353 159.181 231.353 160.681 229.853C163.481 225.453 162.181 217.686 161.181 214.353C174.181 208.353 198.181 210.853 203.181 220.853C205.681 222.353 205.681 222.353 206.681 219.853C200.681 209.053 189.848 206.353 185.181 206.353C185.514 204.353 188.081 200.553 195.681 201.353C203.181 201.353 220.981 199.553 232.181 192.353C233.781 198.353 230.848 204.186 229.181 206.353L203.181 248.353Z" fill="#8AB9D0"/>
<ellipse cx="136.504" cy="232.239" rx="9.61071" ry="11.6395" transform="rotate(-12.0252 136.504 232.239)" fill="white"/>
<path d="M132.68 219.853C131.08 220.253 130.346 222.019 130.18 222.853C138.18 219.253 143.846 226.353 145.68 230.353V227.353C141.68 218.853 134.68 219.353 132.68 219.853Z" fill="#00000E"/>
<ellipse cx="131.814" cy="208.96" rx="1" ry="2" transform="rotate(-46.1233 131.814 208.96)" fill="white"/>
<ellipse cx="142.369" cy="214.037" rx="0.765668" ry="1.53134" transform="rotate(-72.8199 142.369 214.037)" fill="white"/>
<path d="M135.68 207.853C135.28 206.253 132.18 205.186 130.68 204.853C133.18 202.853 136.68 200.853 144.18 203.353C141.68 203.353 138.18 204.853 135.68 207.853Z" fill="white"/>
<path d="M190.18 207.353C188.98 206.953 186.346 206.519 185.18 206.353C186.18 203.353 186.18 201.353 195.68 200.853C217.18 200.853 225.18 195.353 231.68 191.853C232.68 193.353 232.68 193.853 232.68 196.353C222.68 203.353 211.68 203.353 197.68 203.853C194.18 204.353 192.68 204.853 190.18 207.353Z" fill="#1D9DC3"/>
<path d="M114.68 213.353V199.353C111.88 198.553 107.513 201.353 105.68 202.853C106.346 203.853 107.68 206.753 107.68 210.353C107.18 211.353 105.68 213.353 103.68 210.353C101.28 200.753 94.013 196.686 90.6797 195.853C89.6797 195.686 87.3797 196.353 86.1797 200.353C88.6797 199.853 98.6797 207.353 101.18 216.853C101.58 219.653 104.346 220.186 105.68 219.853C107.68 219.353 111.68 215.853 114.68 213.353Z" fill="white"/>
<path d="M119.68 227.353C116.88 221.753 115.18 215.686 114.68 213.353L106.18 219.353C105.013 219.686 102.48 219.753 101.68 217.353C99.6799 211.853 96.6799 206.353 92.1799 203.353C94.1799 206.853 93.6799 209.353 90.6799 210.353C86.6799 210.753 84.3466 207.853 83.6799 206.353L82.6799 207.353C85.6698 212.585 80.0585 213.729 76.6799 213.853L76.1797 214.853C78.1797 218.853 78.1799 220.353 76.6799 221.353C78.2799 225.753 83.3466 232.519 85.6799 235.353C88.5133 236.019 96.4799 237.753 105.68 239.353C107.68 239.353 109.68 237.853 114.18 233.853C115.78 235.053 115.18 237.019 114.68 237.853L120.68 238.353C120.013 236.519 118.88 231.753 119.68 227.353Z" fill="#8AB9D0"/>
<path d="M153.68 226.853C153.68 213.253 146.68 209.853 140.68 210.853L140.496 210.485C140.307 210.108 140.381 209.651 140.68 209.353C145.68 204.353 151.68 207.353 154.18 210.353C156.392 213.008 159.18 219.353 158.68 228.853C158.68 230.353 160.18 230.353 160.68 229.853C162.68 225.853 162.68 223.353 161.18 214.353C181.58 205.953 199.68 214.853 202.18 219.353C196.846 222.519 181.58 229.153 163.18 230.353C159.18 233.953 156.513 233.186 155.68 232.353C155.18 232.186 154.08 230.853 153.68 226.853Z" fill="white"/>
<path d="M94.6797 216.853L82.1797 219.853C82.6797 208.853 93.6797 214.353 94.6797 215.353C95.4797 216.153 95.013 216.686 94.6797 216.853Z" fill="#00021A"/>
<ellipse cx="90.848" cy="223.806" rx="7.5676" ry="10.5188" transform="rotate(-34.16 90.848 223.806)" fill="white"/>
<path d="M73.9148 216.995C73.712 217.447 72.8873 217.516 72.0727 217.15C71.2581 216.784 70.7621 216.122 70.9649 215.67C71.1677 215.219 71.9924 215.149 72.807 215.515C73.6216 215.881 74.1176 216.544 73.9148 216.995Z" fill="white"/>
<path d="M73.9148 216.995C73.712 217.447 72.8873 217.516 72.0727 217.15C71.2581 216.784 70.7621 216.122 70.9649 215.67C71.1677 215.219 71.9924 215.149 72.807 215.515C73.6216 215.881 74.1176 216.544 73.9148 216.995Z" fill="white"/>
<path d="M73.9148 216.995C73.712 217.447 72.8873 217.516 72.0727 217.15C71.2581 216.784 70.7621 216.122 70.9649 215.67C71.1677 215.219 71.9924 215.149 72.807 215.515C73.6216 215.881 74.1176 216.544 73.9148 216.995Z" fill="white"/>
<path d="M73.9148 216.995C73.712 217.447 72.8873 217.516 72.0727 217.15C71.2581 216.784 70.7621 216.122 70.9649 215.67C71.1677 215.219 71.9924 215.149 72.807 215.515C73.6216 215.881 74.1176 216.544 73.9148 216.995Z" fill="white"/>
<path d="M73.9148 216.995C73.712 217.447 72.8873 217.516 72.0727 217.15C71.2581 216.784 70.7621 216.122 70.9649 215.67C71.1677 215.219 71.9924 215.149 72.807 215.515C73.6216 215.881 74.1176 216.544 73.9148 216.995Z" fill="white"/>
<path d="M73.9148 216.995C73.712 217.447 72.8873 217.516 72.0727 217.15C71.2581 216.784 70.7621 216.122 70.9649 215.67C71.1677 215.219 71.9924 215.149 72.807 215.515C73.6216 215.881 74.1176 216.544 73.9148 216.995Z" fill="white"/>
<path d="M78.5536 208.644C78.3249 209.019 77.3648 208.849 76.4094 208.266C75.4539 207.683 74.8648 206.906 75.0936 206.531C75.3224 206.157 76.2824 206.326 77.2378 206.909C78.1933 207.493 78.7824 208.269 78.5536 208.644Z" fill="white"/>
<path d="M78.5536 208.644C78.3249 209.019 77.3648 208.849 76.4094 208.266C75.4539 207.683 74.8648 206.906 75.0936 206.531C75.3224 206.157 76.2824 206.326 77.2378 206.909C78.1933 207.493 78.7824 208.269 78.5536 208.644Z" fill="white"/>
<path d="M78.5536 208.644C78.3249 209.019 77.3648 208.849 76.4094 208.266C75.4539 207.683 74.8648 206.906 75.0936 206.531C75.3224 206.157 76.2824 206.326 77.2378 206.909C78.1933 207.493 78.7824 208.269 78.5536 208.644Z" fill="white"/>
<path d="M78.5536 208.644C78.3249 209.019 77.3648 208.849 76.4094 208.266C75.4539 207.683 74.8648 206.906 75.0936 206.531C75.3224 206.157 76.2824 206.326 77.2378 206.909C78.1933 207.493 78.7824 208.269 78.5536 208.644Z" fill="white"/>
<path d="M78.5536 208.644C78.3249 209.019 77.3648 208.849 76.4094 208.266C75.4539 207.683 74.8648 206.906 75.0936 206.531C75.3224 206.157 76.2824 206.326 77.2378 206.909C78.1933 207.493 78.7824 208.269 78.5536 208.644Z" fill="white"/>
<path d="M78.5536 208.644C78.3249 209.019 77.3648 208.849 76.4094 208.266C75.4539 207.683 74.8648 206.906 75.0936 206.531C75.3224 206.157 76.2824 206.326 77.2378 206.909C78.1933 207.493 78.7824 208.269 78.5536 208.644Z" fill="white"/>
<path d="M88.549 204.68C88.2425 204.994 87.4758 204.743 86.8365 204.12C86.1973 203.496 85.9275 202.736 86.2341 202.422C86.5406 202.108 87.3073 202.358 87.9465 202.982C88.5858 203.605 88.8555 204.365 88.549 204.68Z" fill="white"/>
<path d="M88.549 204.68C88.2425 204.994 87.4758 204.743 86.8365 204.12C86.1973 203.496 85.9275 202.736 86.2341 202.422C86.5406 202.108 87.3073 202.358 87.9465 202.982C88.5858 203.605 88.8555 204.365 88.549 204.68Z" fill="white"/>
<path d="M88.549 204.68C88.2425 204.994 87.4758 204.743 86.8365 204.12C86.1973 203.496 85.9275 202.736 86.2341 202.422C86.5406 202.108 87.3073 202.358 87.9465 202.982C88.5858 203.605 88.8555 204.365 88.549 204.68Z" fill="white"/>
<path d="M88.549 204.68C88.2425 204.994 87.4758 204.743 86.8365 204.12C86.1973 203.496 85.9275 202.736 86.2341 202.422C86.5406 202.108 87.3073 202.358 87.9465 202.982C88.5858 203.605 88.8555 204.365 88.549 204.68Z" fill="white"/>
<path d="M88.549 204.68C88.2425 204.994 87.4758 204.743 86.8365 204.12C86.1973 203.496 85.9275 202.736 86.2341 202.422C86.5406 202.108 87.3073 202.358 87.9465 202.982C88.5858 203.605 88.8555 204.365 88.549 204.68Z" fill="white"/>
<path d="M88.549 204.68C88.2425 204.994 87.4758 204.743 86.8365 204.12C86.1973 203.496 85.9275 202.736 86.2341 202.422C86.5406 202.108 87.3073 202.358 87.9465 202.982C88.5858 203.605 88.8555 204.365 88.549 204.68Z" fill="white"/>
<path d="M81.6797 198.853C80.1797 198.853 76.1797 199.853 74.1797 204.353C78.1797 203.153 81.513 205.853 82.6797 207.353C83.013 207.186 84.0797 206.753 83.6797 206.353C83.1797 205.853 80.6797 202.353 81.6797 198.853Z" fill="#FDFFFD"/>
<path d="M72.6797 210.853C73.4797 212.053 75.6797 213.353 76.6797 213.853C76.6797 213.853 76.6797 214.353 76.1797 214.853C75.6797 214.853 73.6797 213.353 70.6797 214.353C70.6797 213.853 70.6797 211.853 72.6797 210.853Z" fill="#FFFFFD"/>
<path d="M158.682 209.853C160.682 209.053 166.848 207.519 169.682 206.853C169.181 206.353 167.98 204.953 167.18 203.353C157.68 200.853 156.68 189.853 162.18 184.353C160.68 178.853 169.18 172.353 182.68 167.353C184.68 166.853 199.68 162.853 205.68 160.353C199.68 150.353 189.68 145.353 176.68 145.853C163.68 146.353 156.681 149.853 139.181 164.353C116.381 184.753 118.015 209.519 121.681 219.353C121.681 217.853 122.382 213.953 125.182 210.353C124.682 208.853 124.682 205.853 125.682 204.353C133.682 195.853 142.182 196.353 150.182 202.853C151.682 203.353 154.182 203.853 158.682 209.853Z" fill="white"/>
<path d="M121.68 219.353C120.88 217.753 119.68 212.853 119.68 208.853C120.48 209.653 123.346 209.853 125.18 210.353C124.18 211.853 122.68 214.353 121.68 219.353Z" fill="#8AB9D0"/>
<path d="M162.18 161.853C163.38 158.253 166.346 157.686 167.68 157.853C168.461 157.853 169.372 158.22 168.987 159.583C168.843 160.094 168.392 160.443 167.938 160.718C166.694 161.473 165 163.033 164.18 163.853C163.513 164.019 162.18 163.853 162.18 161.853Z" fill="#01000B"/>
<path d="M146.18 177.353C146.18 175.353 149.18 172.519 150.68 171.353C152.18 170.049 154.68 172.353 153.18 173.853C151.98 174.253 149.68 177.686 148.68 179.353C147.846 179.686 146.18 179.753 146.18 177.353Z" fill="#000009"/>
<path d="M139.982 189.432C140.421 188.313 141.131 187.038 141.689 186.125C141.992 185.629 142.512 185.29 143.093 185.306C144.01 185.331 144.947 185.599 145.177 186.452C145.331 187.023 144.944 187.567 144.57 188.026C143.743 189.04 143.305 190.054 142.946 191.069C142.77 191.569 142.412 192.029 141.882 192.054C141.332 192.08 140.676 191.893 140.148 191.2C139.765 190.699 139.752 190.019 139.982 189.432Z" fill="#01010E"/>
<path d="M219.18 156.853C225.18 152.853 229.68 152.186 231.18 152.353C232.68 152.519 233.68 153.653 231.68 158.853C229.68 166.853 221.68 176.353 204.68 181.853C192.68 184.353 183.513 187.019 178.68 189.353C178.18 189.353 178.18 189.353 177.18 188.853C171.98 188.453 167.68 194.353 166.68 197.853C165.68 197.686 163.58 196.553 163.18 193.353C163.18 186.953 169.18 184.353 172.18 183.853C173.18 183.686 173.68 183.353 174.18 182.353C174.18 181.353 173.68 179.353 167.18 181.353C171.18 176.853 177.18 173.353 196.18 168.353C203.18 166.853 212.18 163.353 219.18 156.853Z" fill="#FEFDFF"/>
<g filter="url(#filter1_i_174_2096)">
<path d="M176.185 188.853C176.075 188.865 175.951 188.877 175.815 188.89C173.576 189.305 168.569 193.134 166.682 197.853C163.18 196.853 163.017 193.186 163.183 191.853C163.517 191.686 164.683 191.553 166.683 192.353C170.39 189.387 174.098 189.055 175.815 188.89C175.949 188.865 176.072 188.853 176.185 188.853Z" fill="#88B6CD"/>
</g>
<path d="M177.677 190.853C178.477 190.853 178.344 189.853 178.177 189.353C185.345 187.353 202.58 182.353 214.18 178.353C226.18 172.853 231.18 161.353 231.68 159.353C232.18 157.353 233.68 153.353 231.68 152.353C230.18 151.853 225.18 152.853 219.68 156.353C219.68 154.753 217.68 154.019 216.68 153.853C215.346 155.186 211.28 158.353 205.68 160.353C198.88 147.953 183.513 145.519 176.68 145.853C176.846 145.686 176.88 145.153 175.68 144.353C171.18 143.353 169.181 143.353 154.181 131.353C140.581 119.353 141.845 97.0195 144.177 87.3528C142.681 95.8528 151.177 116.353 159.677 119.353C160.077 120.553 161.511 121.519 162.177 121.853C167.177 125.686 182.777 132.653 205.177 129.853C229.677 126.353 239.677 112.853 248.177 93.3528C248.677 91.8528 250.177 89.3528 253.177 91.3528C271.177 99.8528 282.677 86.8528 283.677 85.3528C284.677 83.8528 288.677 78.8528 289.677 67.8528C289.277 63.8528 287.844 59.8528 287.177 58.3528C275.677 38.8527 260.677 41.8528 253.177 47.3528C244.377 55.593 253.844 72.7862 259.677 80.3528C259.18 81.3528 257.38 81.8528 256.18 81.8528C250.58 81.0528 245.68 73.3528 243.18 64.8528C242.013 58.1861 243.577 43.1528 257.177 38.3528C270.777 33.5528 286.68 42.5194 292.68 47.8528C295.182 49.3528 298.477 54.6528 305.677 55.8528C307.277 60.6528 304.677 62.1861 303.177 62.3528C301.511 61.0195 298.077 58.3528 297.677 58.3528C297.177 58.3528 292.677 57.8528 293.677 61.3528C300.477 64.1528 302.844 71.5194 303.177 74.8528C301.344 78.3528 297.377 85.9528 296.177 88.3528C295.677 88.3528 293.177 86.8528 290.177 84.3528C289.177 84.3528 285.177 84.3528 287.177 88.3528C293.177 93.8528 288.677 102.853 282.177 103.353C275.677 103.353 273.177 99.8527 271.177 97.8527C267.577 97.0527 267.344 99.5194 267.677 100.853C268.677 101.853 270.777 104.053 271.177 104.853C267.677 107.353 258.677 106.353 253.177 99.8527C252.677 99.3527 249.677 99.3527 249.677 101.853C250.177 103.353 252.677 107.353 258.177 109.853C254.177 125.853 247.177 132.353 228.677 142.353C226.677 142.853 218.677 145.853 221.177 146.853C228.777 148.453 236.011 145.186 238.677 143.353C240.844 146.353 244.077 156.553 239.677 173.353C232.077 192.153 209.511 196.186 199.177 195.853C184.177 195.353 180.97 204.294 178.177 204.853C175.677 205.353 171.677 202.353 171.177 198.853C171.177 197.353 172.177 194.353 177.677 190.853Z" fill="#89B8CF"/>
<path d="M271.68 39.3528C284.08 42.5528 288.18 54.0194 288.68 59.3528H287.68C287.18 58.1861 285.28 54.7528 281.68 50.3528C270.08 39.9528 258.846 44.3528 254.68 47.8528C247.68 53.3528 249.18 68.3528 260.18 77.8528C260.68 78.3528 260.18 80.8528 257.68 80.8528C254.18 78.3528 244.18 70.8528 245.68 54.8528C248.68 35.3528 268.68 38.3528 271.68 39.3528Z" fill="#00000C"/>
<path d="M231.681 127.353C231.681 125.753 230.681 125.019 230.181 124.853C230.181 124.853 229.681 124.853 227.181 127.353C225.181 129.353 226.681 130.519 227.681 130.853C228.514 130.519 230.481 129.353 231.681 127.353Z" fill="#00020C"/>
<path d="M238.166 126.353C238.166 124.753 237.166 124.019 236.666 123.853C236.666 123.853 236.166 123.853 233.666 126.353C231.666 128.353 233.166 129.519 234.166 129.853C234.999 129.519 236.966 128.353 238.166 126.353Z" fill="#00020C"/>
<path d="M217.177 127.353C154.18 143.853 140.178 97.8528 144.68 82.8528C146.18 76.8528 154.378 61.8528 171.178 49.8528C192.178 34.8528 219.178 38.8528 231.678 43.8528C230.078 48.2528 230.678 54.3528 231.178 56.8528C231.678 57.5195 233.078 58.4528 234.678 56.8528C236.178 36.3528 244.678 32.3528 260.178 25.8528C275.678 21.8528 289.678 29.3528 291.678 31.8528C293.279 33.8528 291.678 34.3528 290.678 34.3528C289.512 33.5194 286.378 31.9528 283.178 32.3528C279.979 32.7528 281.178 34.8528 282.178 35.8528C282.512 35.8528 284.378 36.2528 289.178 37.8528C299.979 42.2528 304.678 51.6861 305.678 55.8528C305.345 57.5194 302.678 58.7528 294.678 50.3528C284.678 39.8528 267.678 35.8528 259.178 37.8528C250.678 39.8528 242.68 45.8528 243.178 64.3528C246.18 75.3528 251.18 78.8528 256.178 81.8528C258.012 81.6861 261.178 80.4528 259.178 76.8528C252.178 71.3528 249.68 61.8528 250.178 54.3528C251.678 49.8528 255.68 44.3528 264.178 43.3528C277.778 42.9528 286.513 54.5194 288.68 60.3528C294.68 82.8528 277.18 98.3528 257.68 93.3528C255.18 92.3528 253.18 90.8528 249.68 90.8528C247.18 104.853 234.18 121.853 217.177 127.353Z" fill="white"/>
<ellipse cx="169.18" cy="238.853" rx="2.5" ry="2" fill="#00000C"/>
<path d="M212.181 185.853C210.181 186.653 207.348 187.519 206.181 187.853C206.014 188.519 205.881 189.953 206.681 190.353C207.481 190.753 210.014 190.519 211.181 190.353C212.681 190.019 215.781 188.953 216.181 187.353C216.681 185.353 214.681 184.853 212.181 185.853Z" fill="#00000C"/>
<ellipse cx="156.92" cy="114.707" rx="1.5" ry="2.5" transform="rotate(-19.2375 156.92 114.707)" fill="#01010C"/>
<ellipse cx="161.621" cy="119.327" rx="1.30033" ry="2.16722" transform="rotate(-19.2375 161.621 119.327)" fill="#01010C"/>
<path d="M159.68 124.07C158.642 123.788 158.19 122.249 158.03 120.973C157.955 120.379 157.416 119.887 156.867 120.126C154.416 121.192 156.356 124.639 157.382 125.476C158.531 126.413 159.68 125.476 159.68 124.07Z" fill="#01010C"/>
<ellipse cx="166.251" cy="83.9638" rx="6.2169" ry="10.7924" transform="rotate(16.4466 166.251 83.9638)" fill="#010010"/>
<ellipse cx="220.578" cy="91.3639" rx="6.2169" ry="11.2096" transform="rotate(16.4466 220.578 91.3639)" fill="#020010"/>
<path d="M176.678 86.8528C183.078 75.2528 190.345 72.3528 193.178 72.3528C195.345 72.3528 200.28 73.3528 202.68 77.3528C207.48 84.1528 204.68 99.1861 202.68 105.853C201.846 108.853 198.38 115.053 191.18 115.853C183.98 116.653 177.845 113.186 175.678 111.353C173.345 108.019 170.278 98.4528 176.678 86.8528Z" fill="#00000F"/>
<path d="M222.757 181.278C220.995 182.517 218.437 184.013 217.378 184.606C217.37 185.293 217.57 186.718 218.44 186.923C219.311 187.128 221.723 186.318 222.819 185.887C224.202 185.218 226.974 183.466 226.995 181.817C227.021 179.755 224.959 179.729 222.757 181.278Z" fill="#00000C"/>
<path d="M177.68 100.353C178.88 90.3528 184.846 82.1861 187.68 79.3528C189.013 78.5194 191.68 77.3528 191.68 79.3528C189.68 80.8528 184.68 86.8528 180.68 99.3528C180.68 101.753 180.013 102.686 179.68 102.853C179.013 103.019 177.68 102.753 177.68 100.353Z" fill="white"/>
<path d="M184.68 124.353C178.68 123.553 174.847 119.353 173.68 117.353C172.88 114.153 175.68 114.353 177.18 114.853C177.68 116.019 180.18 118.753 186.18 120.353C190.98 121.153 194.513 119.353 195.68 118.353C196.68 117.686 198.78 117.153 199.18 120.353C196.68 124.353 192.68 124.853 184.68 124.353Z" fill="#00000C"/>
<path d="M224.18 21.3528L251.18 24.3528C247.18 26.0194 238.28 31.6528 234.68 40.8528C232.28 38.0528 221.68 35.6861 216.68 34.8528L224.18 21.3528Z" fill="white"/>
<path d="M221.18 20.3528H212.68C210.68 23.3528 206.08 30.3528 203.68 34.3528C204.48 34.3528 210.013 35.0195 212.68 35.3528L221.18 20.3528Z" fill="white"/>
<path d="M204.18 19.3528C205.78 16.9528 208.513 17.3528 209.68 17.8528C208.18 19.1861 204.58 23.4528 202.18 29.8528C202.18 29.4528 201.18 26.6861 200.68 25.3528C201.18 24.3528 202.58 21.7528 204.18 19.3528Z" fill="#D09C80"/>
<g filter="url(#filter2_i_174_2096)">
<path d="M216.18 29.3528C212.18 28.3528 210.013 28.3528 206.68 29.3528L202.68 35.3528H213.18L216.18 29.3528Z" fill="#84BAD1"/>
</g>
<path d="M199.18 15.8528C200.59 14.0896 203.788 13.8808 205.211 14.5412C205.53 14.6891 205.639 15.069 205.467 15.3756C204.537 17.0415 201.365 18.5005 199.484 21.358C199.286 21.6577 198.938 21.8378 198.675 21.5943C197.955 20.9295 197.18 19.1566 197.18 18.3528C197.346 17.8528 197.98 16.6528 199.18 15.8528Z" fill="#F9F9F9"/>
<path d="M135.18 56.3527L146.68 67.8527C153.08 55.0527 170.013 44.5194 177.68 40.8528C177.68 31.3528 176.18 27.6028 168.68 23.8528C163.08 21.0528 155.346 24.3528 152.18 26.3528L148.68 30.3528C147.846 29.8528 146.68 28.3528 148.68 26.3528C151.18 23.8528 155.68 18.8528 168.18 18.8528C178.18 18.8528 182.013 31.8528 182.68 38.3528C183.68 38.1861 188.08 37.2528 197.68 34.8528C196.68 28.8528 195.18 22.8528 185.68 12.8528C175.28 4.05277 160.013 4.1861 153.68 5.35277C151.846 5.68611 148.28 7.05278 148.68 9.85278C152.28 9.45278 155.18 10.3528 156.18 10.8528C157.18 12.0194 158.18 14.3528 154.18 14.3528C140.18 13.1528 130.68 22.1861 127.68 26.8528C127.013 27.8528 126.58 30.0528 130.18 30.8528C132.68 30.8528 136.68 28.3527 137.68 27.8527C138.68 27.3527 142.18 28.3527 140.68 31.3527C133.08 34.1527 127.846 45.5194 126.18 50.8527L127.18 55.3527L135.18 56.3527Z" fill="white"/>
<path d="M182.18 25.3528C176.18 20.1528 169.18 17.8528 166.68 18.8528C181.48 22.8528 181.68 33.8528 182.68 38.3528C185.18 37.8528 191.68 36.3528 197.68 35.3528C198.08 33.3528 196.013 27.8528 195.18 25.3528C194.013 25.3528 191.18 24.8528 189.18 22.8528C185.18 17.2528 182.18 18.1861 181.18 19.3528C180.68 19.6861 180.18 21.3528 182.18 25.3528Z" fill="#8AB6C2"/>
<path d="M186.178 19.8528C184.678 15.8528 179.178 12.3528 178.678 12.3528C177.345 12.8528 175.278 14.1528 177.678 15.3528C180.078 16.5528 184.011 21.8528 185.678 24.3528C186.345 24.1861 187.378 23.0528 186.178 19.8528Z" fill="#010012"/>
<path d="M159.203 19.8528C158.923 19.9146 158.628 19.9937 158.322 20.0883C155.39 21.2681 152.316 26.2644 148.703 30.3528C148.203 30.3528 147.703 29.6528 147.703 28.8528C146.294 26.5074 153.669 21.5218 158.322 20.0883C158.617 19.9695 158.911 19.8894 159.203 19.8528Z" fill="#8AB6C2"/>
<path d="M140.178 54.8528C140.578 58.8528 144.678 65.1861 146.678 67.8528C145.345 69.3528 142.38 73.6528 141.18 78.8528C135.681 75.8528 134.68 69.3528 136.678 61.3528C136.678 56.9528 134.346 57.8528 133.18 58.8528C133.013 58.8528 132.278 59.5528 130.678 62.3528C125.478 61.1528 125.512 54.1861 126.178 50.8528C126.178 51.6861 126.678 53.6528 128.678 54.8528C130.678 56.0528 134.845 54.3528 136.678 53.3528C137.845 53.0195 140.178 52.8528 140.178 54.8528Z" fill="#8EB7D0"/>
<path d="M71.1792 163.353C69.5792 157.753 71.8459 151.353 73.1792 148.853L80.6797 150.353V153.853C82.013 154.353 84.7797 155.853 85.1797 157.853C83.9797 158.253 80.013 157.353 78.1797 156.853C77.3464 156.519 75.5797 156.353 75.1797 158.353C75.5797 160.753 81.013 161.686 83.6797 161.853C83.8464 162.519 84.2797 164.353 84.6797 166.353C83.4797 166.353 80.513 165.686 79.1797 165.353C77.6797 165.019 74.9797 164.953 76.1797 167.353C77.7797 169.353 81.8464 169.853 83.6797 169.853C85.6797 169.853 89.3797 170.253 88.1797 171.853C82.6797 174.853 74.1792 170.353 71.1792 163.353Z" fill="white"/>
<path d="M139.18 146.853L147.68 131.353L150.68 134.853C149.68 137.353 146.991 142.542 145.18 144.353C143.18 146.353 140.18 146.853 139.18 146.853Z" fill="white"/>
<path d="M127.179 170.853C127.576 170.456 129.648 167.726 130.657 166.382C124.225 166.579 107.638 161.811 106.18 160.353C106.18 155.953 101.513 150.853 99.1797 148.853L93.1797 149.853V152.853H94.6797C95.6797 153.186 98.2797 154.553 100.68 157.353C104.28 163.753 99.8464 168.353 97.1797 169.853C96.513 170.019 95.1797 170.553 95.1797 171.353C97.9797 171.753 101.346 168.853 102.68 167.353C103.513 166.686 105.28 165.753 105.68 167.353C105.68 167.853 104.68 170.353 101.68 172.853C106.08 173.253 107.846 176.686 108.18 178.353C110.513 179.353 116.38 181.353 121.18 181.353C121.18 180.953 123.846 176.186 125.18 173.853C122.846 173.853 117.879 173.453 116.679 171.853C116.279 170.653 118.845 170.353 120.179 170.353C122.397 170.353 123.979 171.253 127.179 170.853Z" fill="#8ABBCD"/>
<path d="M98.6797 148.853L105.18 146.853C109.18 149.353 120.78 153.953 135.18 152.353C147.18 150.353 154.846 144.186 157.18 141.353L158.18 141.853C156.68 143.853 153.68 148.103 149.18 151.853C146.18 154.353 136.18 160.853 130.68 166.353C124.18 167.353 114.18 165.353 106.18 160.353C104.98 154.753 100.68 150.353 98.6797 148.853Z" fill="white"/>
<circle cx="92.6797" cy="161.853" r="5" fill="#8ABBCD"/>
<path d="M85.1797 152.353V148.353H89.1797V153.353C88.7797 152.953 86.3464 152.519 85.1797 152.353Z" fill="#2999BD"/>
<path d="M70.1797 178.853C70.9797 177.253 74.513 176.186 76.1797 175.853C83.4854 178.775 88.9231 177.161 90.9329 176.078C91.1452 175.647 91.3957 175.353 91.6797 175.353C91.9491 175.353 91.6741 175.679 90.9329 176.078C90.5472 176.863 90.2872 178.1 90.1797 178.853H92.6797C93.513 178.853 95.3797 178.153 96.1797 175.353C98.5797 174.953 101.846 177.186 103.18 178.353C102.846 178.853 101.58 180.153 99.1797 181.353C92.6797 182.853 75.1797 182.853 70.1797 178.853Z" fill="white"/>
<path d="M76.1739 177.853C76.8027 177.217 78.6751 177.353 79.1751 176.853C85.1751 177.853 87.6751 177.353 89.6751 176.353C90.6751 175.853 91.7751 174.953 92.1751 175.353C92.5751 175.753 91.3417 177.519 90.6751 178.353H94.1751C94.5084 178.019 95.2751 176.953 95.6751 175.353C98.1751 174.853 100.508 176.353 102.675 177.853C102.341 178.019 99.5739 178.753 91.1739 180.353C80.6739 182.353 75.6797 178.353 76.1739 177.853Z" fill="#2597BC"/>
<path d="M113.68 171.853C112.48 171.853 108.846 170.519 107.18 169.853C106.68 169.686 105.68 169.853 105.68 171.853C106.48 174.253 111.346 174.853 113.68 174.853C114.18 174.186 114.88 172.653 113.68 171.853Z" fill="#00000F"/>
<path d="M61.6797 117.353C64.0797 113.753 63.3464 108.519 62.6797 106.353C66.2797 105.953 67.513 110.186 67.6797 112.353C66.6797 112.186 64.6797 112.153 64.6797 113.353C65.0797 114.153 66.1797 115.019 66.6797 115.353C66.3464 115.686 65.4797 116.653 64.6797 117.853C63.8797 119.053 63.3464 124.019 63.1797 126.353C63.013 127.853 63.5797 131.853 67.1797 135.853C71.1797 142.253 83.513 143.853 89.1797 143.853C94.1797 144.019 105.38 142.053 110.18 132.853C112.18 127.853 111.68 122.853 109.18 114.353C109.18 112.353 108.846 111.853 108.68 111.853C108.346 111.853 107.08 112.053 104.68 112.853C100.18 113.853 99.6797 111.853 98.6797 111.353C97.8797 110.953 96.013 111.186 95.1797 111.353C94.013 111.686 90.7797 112.853 87.1797 114.853C85.1797 114.453 80.3464 114.019 78.1797 113.853C78.013 113.353 77.5797 111.853 77.1797 109.853C80.1797 110.353 95.6797 110.353 111.18 107.853C110.38 110.653 111.513 116.019 112.18 118.353C113.077 120.595 113.893 122.193 113.763 127.405C113.731 128.694 113.442 129.967 112.948 131.158C110.188 137.812 106.955 143.098 93.1797 145.853C82.6797 146.853 77.6797 146.353 68.1797 140.853C62.1797 136.853 58.6797 127.853 61.6797 117.353Z" fill="white"/>
<path d="M68.1789 116.353L66.6789 115.353C63.1789 116.853 62.268 128.796 64.1789 131.853C66.6792 135.853 71.1785 144.853 91.1789 143.353C114.179 140.853 111.179 127.853 111.679 124.853C111.679 120.853 109.846 116.686 109.179 113.853C106.512 114.686 100.379 116.453 97.1789 116.853C94.3789 116.853 94.5118 115.186 94.6785 114.353C93.0118 115.353 88.3789 117.353 85.1789 117.353C82.7789 116.953 80.1789 116.186 79.1789 115.853C79.5122 116.686 80.3789 119.053 81.1789 121.853C77.1789 122.853 74.6789 120.853 71.6789 119.853C69.2789 119.053 68.3456 117.186 68.1789 116.353Z" fill="#5AD5AB"/>
<path d="M68.6804 108.353L71.1803 108.853C71.8464 111.519 73.3785 117.453 74.1785 119.853C76.1785 121.932 79.3451 122.052 80.6785 121.853C81.3451 121.686 83.2785 121.653 85.6785 122.853C84.1785 123.853 81.1785 124.353 77.6785 123.853C75.2785 123.453 69.6797 120.686 67.1804 119.353C66.847 118.686 65.6804 115.853 67.6821 115.853C68.1797 116.353 68.5869 117.258 69.1815 117.853C69.6815 118.353 70.1803 118.953 72.1803 119.353C71.7803 116.953 69.6804 111.019 68.6804 108.353Z" fill="white"/>
<path d="M109.681 115.353L104.179 116.853C104.483 117.611 105.062 122.374 105.164 128.125C105.184 129.274 105.137 130.445 104.714 131.514C101.688 139.169 88.0443 139.977 81.1792 139.353C80.6792 139.519 81.1795 140.853 81.1793 143.353C90.6797 144.853 97.6792 143.853 105.179 139.353C112.18 135.853 111.181 121.686 109.681 115.353Z" fill="#006C6C"/>
<circle cx="68.6797" cy="123.853" r="2" fill="#FDFFFD"/>
<circle cx="68.6797" cy="123.853" r="2" fill="#FDFFFD"/>
<circle cx="68.6797" cy="123.853" r="2" fill="#FDFFFD"/>
<circle cx="104.18" cy="119.353" r="1.5" fill="#FDFFFD"/>
<circle cx="104.18" cy="119.353" r="1.5" fill="#FDFFFD"/>
<circle cx="104.18" cy="119.353" r="1.5" fill="#FDFFFD"/>
<path d="M81.6797 135.353C80.4797 134.153 78.513 127.353 77.6797 123.853H80.6797C81.1797 125.519 82.4797 129.553 83.6797 132.353C84.1797 132.853 85.6797 133.353 84.6797 129.853C84.1797 127.353 83.1797 124.853 82.6797 123.853L85.6797 122.853C86.1797 124.186 87.4797 128.553 88.6797 133.353C88.1797 136.853 84.6797 136.853 81.6797 135.353Z" fill="#090116"/>
<path d="M76.1797 136.353C73.7797 135.553 72.8464 133.019 72.6797 131.853C73.6797 129.853 75.6797 131.853 76.6797 133.353C77.6797 134.853 77.6797 135.853 76.1797 136.353Z" fill="#01010E"/>
<path d="M100.242 114.431H94.742C94.5753 114.264 94.642 113.731 96.242 112.931C98.642 112.531 99.9086 113.764 100.242 114.431Z" fill="#FBFDFF"/>
<circle cx="69.6797" cy="128.853" r="2" fill="#FDFFFD"/>
<circle cx="69.6797" cy="128.853" r="2" fill="#FDFFFD"/>
<circle cx="69.6797" cy="128.853" r="2" fill="#FDFFFD"/>
<path d="M73.6797 109.353C72.6797 109.353 71.513 108.686 70.6797 108.853C71.6797 112.186 73.7797 119.453 74.1797 119.853C74.6797 120.353 74.6797 121.353 77.1797 121.853C76.1797 120.853 74.1797 110.853 73.6797 109.353Z" fill="#13ACE2"/>
<path d="M64.1784 81.3528L70.6784 101.353H70.2956C69.5606 101.353 68.8358 101.182 68.1784 100.853L63.178 86.3528C62.678 85.3528 62.1774 85.8528 61.6778 85.3528C61.1797 83.8528 63.0118 82.0194 64.1784 81.3528Z" fill="#13ACE2"/>
<path d="M62.6879 89.3528C61.1852 86.8538 61.6794 85.354 62.1872 85.3528C64.1876 85.3567 68.6897 100.356 68.1865 100.853C67.6797 101.353 66.5131 100.686 66.1798 100.353C65.1803 97.5195 63.4879 91.3528 62.6879 89.3528Z" fill="white"/>
<path d="M60.1797 82.8528C60.1797 82.4528 62.1797 81.0194 63.1797 80.3528C63.5797 80.7528 63.3464 81.8528 63.1797 82.3528C62.1797 82.6861 60.1797 83.2528 60.1797 82.8528Z" fill="white"/>
<path d="M40.6797 72.3528C45.8797 73.5528 56.513 77.5194 61.1797 79.3528C60.6797 79.5194 59.4797 80.1528 58.6797 81.3528C56.6797 80.1528 45.1797 76.8528 39.6797 75.3528C39.6797 75.0194 39.8797 73.9528 40.6797 72.3528Z" fill="white"/>
<path d="M59.6797 80.3528C59.6797 80.3528 40.6797 73.8528 40.1797 73.8528C40.1797 73.8528 39.6797 74.3528 39.6797 75.3528C40.1797 76.3528 58.6797 81.3528 58.6797 81.3528L59.6797 80.3528Z" fill="#2AB6E8"/>
<path d="M60.6914 101.353C61.1909 100.853 61.6914 99.8528 62.1914 99.3528C75.6914 109.853 105.191 104.353 113.191 101.353C114.308 100.934 115.346 100.353 115.68 100.353C115.846 100.519 115.68 101.353 115.691 102.353C93.6797 112.853 66.6797 105.353 63.6797 103.853C62.0739 103.05 61.1796 102.353 60.6914 101.353Z" fill="#FBFFFF"/>
<path d="M75.1797 101.853C74.3797 101.453 73.8464 99.3528 73.6797 98.3528L95.1797 97.8528C97.013 97.8528 101.78 98.4528 106.18 100.853C102.18 103.353 76.1797 102.353 75.1797 101.853Z" fill="#FBFFFF"/>
<path d="M111.68 89.8528V97.8528C111.18 98.8528 108.954 98.6275 107.68 97.3528C106.68 96.3528 105.68 92.1861 105.18 89.8528H111.68Z" fill="#FBFFFF"/>
<path d="M105.18 89.8528H107.68C109.68 91.4528 111.18 95.6861 111.68 97.8528C111.68 98.3528 110.18 98.8528 109.18 98.3528C106.78 97.9528 105.513 92.5194 105.18 89.8528Z" fill="#4CD49D"/>
<path d="M113.68 90.3528V96.3528C114.513 95.6861 116.38 93.8528 117.18 91.8528C116.78 90.6528 114.68 90.3528 113.68 90.3528Z" fill="#FDFFFF"/>
<path d="M116.18 97.8528C116.18 97.4528 118.18 94.3528 119.18 92.8528C121.98 93.2528 124.68 98.6861 125.68 101.353H119.18C119.013 101.353 118.68 101.153 118.68 100.353C118.68 99.3528 120.68 99.3528 121.68 98.3528C122.48 97.5528 121.68 96.0194 121.18 95.3528C120.013 96.1861 117.58 97.9528 117.18 98.3528C116.68 98.8528 116.18 98.3528 116.18 97.8528Z" fill="white"/>
<path d="M126.18 103.853L118.18 103.353V105.353H126.18V103.853Z" fill="#4CD49D"/>
<path d="M130.18 100.853C130.18 101.519 130.38 102.253 129.18 101.853C126.38 88.6528 112.346 86.6861 105.68 87.3528C120.88 78.9528 128.18 93.0194 130.18 100.853Z" fill="white"/>
<path d="M123.68 88.3528C122.18 89.3528 122.143 89.0269 121.18 88.3528C117.18 85.5528 108.68 86.8528 108.68 87.3528C121.88 87.3528 127.68 96.8528 129.18 101.853C129.346 102.353 129.78 103.053 130.18 101.853C130.98 94.2528 126.18 89.6861 123.68 88.3528Z" fill="#4CD49D"/>
<defs>
<filter id="filter0_i_174_2096" x="301.355" y="37.7529" width="19.4453" height="23.538" filterUnits="userSpaceOnUse" color-interpolation-filters="sRGB">
<feFlood flood-opacity="0" result="BackgroundImageFix"/>
<feBlend mode="normal" in="SourceGraphic" in2="BackgroundImageFix" result="shape"/>
<feColorMatrix in="SourceAlpha" type="matrix" values="0 0 0 0 0 0 0 0 0 0 0 0 0 0 0 0 0 0 127 0" result="hardAlpha"/>
<feOffset dy="1"/>
<feGaussianBlur stdDeviation="2"/>
<feComposite in2="hardAlpha" operator="arithmetic" k2="-1" k3="1"/>
<feColorMatrix type="matrix" values="0 0 0 0 1 0 0 0 0 1 0 0 0 0 1 0 0 0 1 0"/>
<feBlend mode="normal" in2="shape" result="effect1_innerShadow_174_2096"/>
</filter>
<filter id="filter1_i_174_2096" x="161.141" y="188.853" width="15.043" height="13" filterUnits="userSpaceOnUse" color-interpolation-filters="sRGB">
<feFlood flood-opacity="0" result="BackgroundImageFix"/>
<feBlend mode="normal" in="SourceGraphic" in2="BackgroundImageFix" result="shape"/>
<feColorMatrix in="SourceAlpha" type="matrix" values="0 0 0 0 0 0 0 0 0 0 0 0 0 0 0 0 0 0 127 0" result="hardAlpha"/>
<feOffset dx="-2" dy="4"/>
<feGaussianBlur stdDeviation="2.55"/>
<feComposite in2="hardAlpha" operator="arithmetic" k2="-1" k3="1"/>
<feColorMatrix type="matrix" values="0 0 0 0 0.996078 0 0 0 0 0.992157 0 0 0 0 1 0 0 0 1 0"/>
<feBlend mode="normal" in2="shape" result="effect1_innerShadow_174_2096"/>
</filter>
<filter id="filter2_i_174_2096" x="202.68" y="28.6028" width="13.5" height="7.75" filterUnits="userSpaceOnUse" color-interpolation-filters="sRGB">
<feFlood flood-opacity="0" result="BackgroundImageFix"/>
<feBlend mode="normal" in="SourceGraphic" in2="BackgroundImageFix" result="shape"/>
<feColorMatrix in="SourceAlpha" type="matrix" values="0 0 0 0 0 0 0 0 0 0 0 0 0 0 0 0 0 0 127 0" result="hardAlpha"/>
<feOffset dy="1"/>
<feGaussianBlur stdDeviation="2"/>
<feComposite in2="hardAlpha" operator="arithmetic" k2="-1" k3="1"/>
<feColorMatrix type="matrix" values="0 0 0 0 1 0 0 0 0 1 0 0 0 0 1 0 0 0 1 0"/>
<feBlend mode="normal" in2="shape" result="effect1_innerShadow_174_2096"/>
</filter>
</defs>
</svg>
