<svg width="48" height="41" viewBox="0 0 48 41" fill="none" xmlns="http://www.w3.org/2000/svg">
<path d="M27.9336 40.3257C28.2714 32.1692 34.7306 26.4299 37.918 24.5798C36.812 25.6456 34.1173 29.7379 34.1173 34.7151C36.078 26.8422 40.6328 23.1621 42.503 22.8303C39.6676 26.9327 39.738 29.4061 38.823 31.4875C37.2846 34.9866 34.4793 38.546 27.9336 40.3257Z" fill="#1E1E1E"/>
<path d="M27.9043 40.3254C28.3869 32.1207 34.7416 26.4096 37.8586 24.5796C36.8028 25.6353 33.6959 30.7331 32.8814 38.3044C31.886 39.0284 30.0761 39.7825 27.9043 40.3254Z" fill="#1E1E1E"/>
<path d="M31.4948 39.0891C31.0605 32.5012 34.6824 27.8981 36.442 26.6312C33.6065 31.7592 34.1794 34.2025 34.1794 37.3698C33.4555 37.9731 32.7618 38.5462 31.4948 39.0891Z" fill="#1E1E1E"/>
<path d="M20 40.3257C19.6622 32.1692 13.2029 26.4299 10.0156 24.5798C11.1216 25.6456 13.8163 29.7379 13.8163 34.7151C11.8556 26.8422 7.30077 23.1621 5.43057 22.8303C8.26603 26.9327 8.19556 29.4061 9.11064 31.4875C10.649 34.9866 13.4543 38.546 20 40.3257Z" fill="#1E1E1E"/>
<path d="M20.0293 40.3254C19.5467 32.1207 13.192 26.4096 10.075 24.5796C11.1308 25.6353 14.2377 30.7331 15.0522 38.3044C16.0476 39.0284 17.8575 39.7825 20.0293 40.3254Z" fill="#1E1E1E"/>
<path d="M16.4388 39.0891C16.8731 32.5012 13.2512 27.8981 11.4916 26.6312C14.3271 31.7592 13.7542 34.2025 13.7542 37.3698C14.4781 37.9731 15.1718 38.5462 16.4388 39.0891Z" fill="#1E1E1E"/>
<path d="M44.5831 2.40978C38.5201 -2.50702 32.1855 1.44452 30.979 2.86225C27.1481 0.358596 20.6326 0.479253 16.8922 2.95275C11.5109 -2.04247 5.33911 0.358615 3.28792 2.47011C3.49907 2.50027 3.97567 2.56663 4.19286 2.59076C1.41767 3.77321 0.24129 6.26077 0 7.35675C0.506763 6.99477 0.723947 6.84395 1.32731 6.75346C-0.51272 9.7699 -0.120658 14.1437 2.50372 16.7379C1.77978 14.3489 2.50372 12.2032 2.95619 11.4289C2.70482 11.5697 2.11159 12.0503 1.74961 12.8467C1.77978 11.2781 2.02109 9.95089 3.58964 8.29184C3.43882 8.23152 2.62438 8.56332 1.9306 9.43809C2.14778 7.50757 3.60975 6.3211 4.31359 5.96918C4.01195 5.90885 3.19147 5.93902 2.32274 6.54231C3.31213 4.24981 6.29439 3.53592 7.66184 3.46553C7.50097 3.29461 6.83534 2.95275 5.45984 2.95275C10.817 0.346552 15.0924 3.59625 16.5604 5.54688C21.1453 1.89698 28.1737 2.74159 31.3108 5.54688C35.4373 0.624043 40.3903 1.76627 42.3509 2.95274C41.9387 2.92257 40.9392 2.9829 40.2394 3.46553C43.7144 3.77924 45.1663 5.68765 45.4579 6.60264C45.2668 6.38143 44.6193 5.92695 43.5575 5.87869C45.295 6.84395 45.8902 8.73426 45.9707 9.55875C45.7294 9.21689 45.0416 8.49093 44.2211 8.32201C44.9753 8.86497 45.8802 10.2525 46.1215 12.907C45.9707 12.6657 45.7294 11.9719 44.8848 11.4893C45.6087 12.3339 45.85 14.1136 45.3372 16.7681C48.9328 12.6174 47.6398 8.34212 46.5438 6.72329C46.7851 6.78362 47.3763 7.00081 47.8107 7.38691C47.1109 4.58765 44.7842 3.00301 43.7083 2.5606C43.8592 2.52038 44.2453 2.43391 44.5831 2.40978Z" fill="#1E1E1E"/>
<path d="M24.8559 40.7561L26.0926 40.6354C27.631 28.6903 34.7196 24.0148 40.3904 21.4207C38.3392 21.2518 36.9818 21.652 36.5595 21.8732C36.65 21.6721 36.8491 21.107 36.9215 20.4554C39.4554 19.3394 40.7223 18.2233 41.416 15.0862C41.5668 15.4783 41.8379 17.8311 40.9031 20.184C45.5481 17.4692 44.2511 12.1301 41.8082 9.86772C42.14 9.89788 43.0148 10.1935 43.8594 11.1346C43.3526 8.57668 41.1948 7.05237 40.1793 6.60996C40.4709 6.51947 41.4945 6.5074 43.2561 7.18308C41.6393 5.1319 39.0632 4.86042 37.9773 4.98108C38.1884 4.76993 38.8641 4.32953 39.8777 4.25713C38.3393 3.92532 36.1976 4.16663 34.2369 5.82567C36.4087 5.40337 39.1839 6.12732 40.7223 8.35949C40.4809 8.23883 39.2744 7.54505 36.9215 7.81653C39.1234 8.54047 40.9937 9.68672 41.1446 13.6383C40.6619 12.48 39.4755 11.5871 38.9427 11.2854C40.2096 13.6986 39.7268 16.9262 36.2279 19.1885C36.4692 18.4042 37.4043 14.9655 34.7196 12.5222C36.077 16.9262 33.9354 21.9335 29.1694 24.0148C29.6822 22.8686 30.1346 21.3905 28.9884 20.1236C28.8919 24.2501 25.5496 25.1209 23.8906 25.0404V29.2634C24.6246 28.4088 26.9312 26.5426 30.2855 25.9152C28.2341 27.9408 26.8835 30.1208 26.0119 31.9527C24.9358 34.2144 24.6251 38.2621 24.8559 40.7561Z" fill="#1E1E1E"/>
<path d="M22.9293 40.7561L21.6926 40.6354C20.1542 28.6903 13.0655 24.0148 7.39479 21.4207C9.44597 21.2518 10.8034 21.652 11.2257 21.8732C11.1352 21.6721 10.9361 21.107 10.8636 20.4554C8.32973 19.3394 7.0629 18.2233 6.3692 15.0862C6.21838 15.4783 5.94726 17.8311 6.88207 20.184C2.23709 17.4692 3.53403 12.1301 5.97698 9.86772C5.64517 9.89788 4.7704 10.1935 3.9258 11.1346C4.43256 8.57668 6.59032 7.05237 7.60586 6.60996C7.31427 6.51947 6.29069 6.5074 4.52909 7.18308C6.1459 5.1319 8.72194 4.86042 9.80786 4.98108C9.59671 4.76993 8.92103 4.32953 7.9075 4.25713C9.44589 3.92532 11.5876 4.16663 13.5483 5.82567C11.3764 5.40337 8.60129 6.12732 7.0629 8.35949C7.30422 8.23883 8.51079 7.54505 10.8636 7.81653C8.66171 8.54047 6.79142 9.68672 6.6406 13.6383C7.12323 12.48 8.30962 11.5871 8.84249 11.2854C7.57558 13.6986 8.05833 16.9262 11.5573 19.1885C11.316 18.4042 10.3809 14.9655 13.0655 12.5222C11.7081 16.9262 13.8498 21.9335 18.6158 24.0148C18.103 22.8686 17.6505 21.3905 18.7968 20.1236C18.8933 24.2501 22.2355 25.1209 23.8946 25.0404V29.2634C23.1606 28.4088 20.854 26.5426 17.4997 25.9152C19.5511 27.9408 20.9016 30.1208 21.7732 31.9527C22.8494 34.2144 23.1601 38.2621 22.9293 40.7561Z" fill="#1E1E1E"/>
<path d="M27.3298 19.5436C27.354 21.8361 25.0876 22.3288 23.9514 22.2885V11.731C25.9785 11.7551 26.6237 13.0281 26.8472 14.2346C27.0427 15.2904 27.3057 17.2511 27.3298 19.5436Z" fill="#1E1E1E"/>
<path d="M20.5744 19.5436C20.5503 21.8361 22.8166 22.3288 23.9528 22.2885V11.731C21.9258 11.7551 21.2805 13.0281 21.057 14.2346C20.8615 15.2904 20.5985 17.2511 20.5744 19.5436Z" fill="#1E1E1E"/>
<circle cx="17.1664" cy="13.3899" r="1.7797" fill="black"/>
<circle cx="16.7142" cy="12.8165" r="0.723947" fill="#FFFEEF"/>
<circle cx="30.7387" cy="13.3899" r="1.7797" fill="black"/>
<circle cx="30.4075" cy="12.8165" r="0.723947" fill="#FFFEEF"/>
</svg>
