<svg width="5890" height="2401" viewBox="0 0 5890 2401" fill="none" xmlns="http://www.w3.org/2000/svg">
<path fill-rule="evenodd" clip-rule="evenodd" d="M3131.89 619.871C3751.34 485.494 4006.88 14.4429 4682.97 0.367917C5225.97 -10.9366 5656.91 240.148 5837.14 493.243C6012.04 738.841 5702.85 1068.99 5627.41 1326.62C5563.05 1546.43 5577.34 1768.35 5395.35 1971.47C5200.28 2189.18 4993.87 2086.2 4538.67 2164.87C4073.06 2245.34 3628.42 2474.61 3176.24 2377.18C2847.59 2306.37 2639.78 2083.98 2288.67 2048.02C1680.28 1985.72 976.847 2257.7 458.349 2088.67C8.22462 1941.94 -88.8889 1580.14 75.6651 1326.62C242.798 1069.13 854.876 964.817 1293.11 802.602C1581.12 695.996 1855.48 572.241 2208.42 537.168C2520.4 506.164 2840.55 683.07 3131.89 619.871Z" fill="#68D798"/>
</svg>
